<svg width="512" height="512" viewBox="0 0 512 512" fill="none" xmlns="http://www.w3.org/2000/svg">
<g clip-path="url(#clip0_7_94)">
<path d="M512 256C512 343.7 467.9 421.1 400.66 467.23C359.5 495.47 309.68 445.922 256 445.922C202.32 445.922 152.5 495.47 111.34 467.23C44.1 421.1 0 343.7 0 256C0 114.62 114.62 0 256 0C397.38 0 512 114.62 512 256Z" fill="#8FD1E3"/>
<path d="M400.66 467.23C388.94 475.277 376.567 482.328 363.67 488.31C330.94 503.51 294.46 480.97 256 480.97C228.24 480.97 218.49 498.47 193.46 490.29C183.81 487.14 157.44 492.54 148.34 488.3C135.436 482.329 123.059 475.281 111.34 467.23L133.49 428.88C135.64 425.16 137.92 421.58 140.33 418.15C160.56 389.16 189.18 370.68 220.1 362.7C274.51 348.66 336.06 367.14 371.68 418.14C374.08 421.57 376.36 425.15 378.51 428.88L400.66 467.23Z" fill="#F97855"/>
<path d="M243.67 381.86C243.67 381.86 180.83 410.7 176.49 499.4C153.349 491.842 131.409 481.009 111.34 467.23L133.49 428.88C153.82 393.68 185.52 371.62 220.1 362.7L243.67 381.86Z" fill="#F36A38"/>
<path d="M363.67 488.31C330.94 503.51 294.46 512 256 512C228.24 512 201.52 507.58 176.49 499.4C166.892 496.269 157.492 492.562 148.34 488.3C158.6 476.15 170.48 466.23 183.38 458.55C194.829 451.735 207.195 446.593 220.1 443.28C270.63 430.24 327.32 445.25 363.67 488.31Z" fill="#F36A38"/>
<path d="M183.38 458.55C179.75 470.48 177.24 484.04 176.49 499.4C166.892 496.269 157.492 492.562 148.34 488.3C158.6 476.15 170.48 466.23 183.38 458.55Z" fill="#E05327"/>
<path d="M183.857 72.391L99.201 5.69201C80.404 -9.11699 53.239 7.01401 57.246 30.606L83.509 185.221L183.857 72.391ZM325.217 72.391L409.873 5.69301C428.67 -9.11599 455.835 7.01501 451.828 30.607L425.565 185.222L325.217 72.391Z" fill="#F36A38"/>
<path d="M155.952 106.954C155.952 106.954 131.146 31.782 101.155 38.4C71.164 45.018 75.82 78.555 85.705 88.439C85.705 88.439 71.184 147.235 131.115 147.235C191.046 147.235 155.952 106.954 155.952 106.954Z" fill="#F7EADC"/>
<path d="M356.048 106.954C356.048 106.954 380.854 31.782 410.845 38.4C440.836 45.018 436.18 78.555 426.295 88.439C426.295 88.439 440.816 147.235 380.885 147.235C320.954 147.235 356.048 106.954 356.048 106.954Z" fill="#FFF9F1"/>
<path d="M371.68 418.14C363.61 419.78 355.18 420.64 346.45 420.64H165.55C156.83 420.64 148.4 419.78 140.33 418.15C160.56 389.16 189.18 370.68 220.1 362.7C274.51 348.66 336.06 367.14 371.68 418.14Z" fill="#F36A38"/>
<path d="M460.596 328.213H460.585C442.02 371.106 399.815 403.34 346.451 403.34H220.186C124.539 403.34 10.121 299.798 57.945 216.965L113.918 120.019C152.958 52.398 228.197 26.582 294.874 42.571C336.057 52.442 356.768 105.473 380.885 147.234L429.108 216.965C450.249 253.574 475.308 294.236 460.596 328.213Z" fill="#F97855"/>
<path d="M157.111 216.965C125.876 299.798 164.928 403.34 227.386 403.34H165.55C69.903 403.34 10.121 299.798 57.945 216.965L113.918 120.019C149.006 59.249 213.329 32.234 274.41 39.007C242.52 44.426 211.996 71.43 193.664 120.019L157.111 216.965Z" fill="#F36A38"/>
<path d="M460.596 328.213H460.585C198.283 299.599 267.803 101.809 294.874 42.571C336.057 52.442 373.965 78.258 398.082 120.019L454.055 216.965C475.197 253.574 475.308 294.236 460.596 328.213Z" fill="#F36A38"/>
<path d="M147.973 305.095C122.357 315.899 90.589 323.938 51.416 328.213H51.405C36.693 294.236 68.41 257.273 89.551 220.665L131.115 147.235C155.232 105.474 175.943 52.443 217.126 42.572C220.576 50.1351 223.76 57.8161 226.675 65.601C250.415 128.98 275.798 251.242 147.973 305.095Z" fill="#F36A38"/>
<path d="M226.675 65.6C213.717 78.913 202.336 97.057 193.664 120.019L157.111 216.965C146.318 245.579 143.92 276.669 147.973 305.095C122.357 315.899 90.589 323.938 51.416 328.213H51.405C36.693 294.236 36.804 253.574 57.945 216.966L113.918 120.02C138.035 78.259 175.943 52.443 217.126 42.572C220.576 50.1347 223.761 57.8154 226.675 65.6ZM288.225 310.922C275.548 310.922 263.931 305.438 256 296.255C248.069 305.438 236.452 310.922 223.775 310.922C221.653 310.922 219.618 310.079 218.118 308.579C216.618 307.079 215.775 305.044 215.775 302.922C215.775 300.8 216.618 298.765 218.118 297.265C219.618 295.765 221.653 294.922 223.775 294.922C234.784 294.922 244.512 288.301 248.56 278.055C249.15 276.563 250.175 275.282 251.501 274.38C252.828 273.478 254.396 272.995 256 272.995C257.604 272.995 259.172 273.478 260.499 274.38C261.825 275.282 262.85 276.563 263.44 278.055C267.487 288.301 277.216 294.922 288.225 294.922C290.347 294.922 292.382 295.765 293.882 297.265C295.382 298.765 296.225 300.8 296.225 302.922C296.225 305.044 295.382 307.079 293.882 308.579C292.382 310.079 290.347 310.922 288.225 310.922Z" fill="#E05327"/>
<path d="M285.047 251.942C285.047 253.033 284.833 254.113 284.415 255.121C283.998 256.129 283.386 257.045 282.615 257.816C281.847 258.588 280.933 259.201 279.927 259.618C278.92 260.035 277.841 260.249 276.752 260.248C275.498 260.245 274.255 260.491 273.097 260.972C271.938 261.452 270.886 262.157 270.001 263.046C269.112 263.929 268.407 264.979 267.927 266.136C267.446 267.293 267.2 268.533 267.203 269.786C267.206 271.259 266.917 272.718 266.353 274.079C265.789 275.44 264.96 276.675 263.916 277.714C262.208 279.431 259.985 280.543 257.587 280.879C257.062 280.964 256.531 281.005 256 281C254.529 281.002 253.072 280.712 251.713 280.148C250.354 279.584 249.12 278.756 248.083 277.713C247.039 276.674 246.21 275.439 245.646 274.078C245.082 272.717 244.793 271.258 244.796 269.785C244.799 268.532 244.553 267.292 244.072 266.135C243.592 264.978 242.887 263.928 241.998 263.045C241.113 262.156 240.061 261.451 238.902 260.971C237.744 260.49 236.501 260.244 235.247 260.247C234.158 260.248 233.079 260.034 232.072 259.617C231.066 259.199 230.153 258.587 229.384 257.815C228.613 257.044 228.001 256.128 227.583 255.12C227.166 254.112 226.952 253.032 226.952 251.941C226.952 236.818 239.21 224.548 254.334 224.548H257.665C261.263 224.543 264.826 225.249 268.15 226.627C271.473 228.005 274.491 230.027 277.03 232.576C279.576 235.117 281.595 238.136 282.971 241.459C284.346 244.783 285.052 248.345 285.047 251.942Z" fill="#516666"/>
<path d="M257.588 280.878C257.063 280.964 256.532 281.005 256 281C254.529 281.002 253.072 280.712 251.713 280.148C250.354 279.584 249.12 278.756 248.083 277.713C247.039 276.674 246.21 275.439 245.646 274.078C245.082 272.717 244.793 271.258 244.796 269.785C244.799 268.532 244.553 267.292 244.072 266.135C243.592 264.978 242.887 263.928 241.998 263.045C241.113 262.156 240.061 261.451 238.902 260.971C237.744 260.49 236.501 260.244 235.247 260.247C234.158 260.248 233.079 260.034 232.072 259.617C231.066 259.199 230.153 258.587 229.384 257.815C228.613 257.044 228.001 256.128 227.583 255.12C227.166 254.112 226.952 253.032 226.952 251.941C226.952 236.818 239.21 224.548 254.334 224.548H257.665C257.665 224.548 234.137 243.27 257.588 280.878Z" fill="#384948"/>
<path d="M182.742 269.404C204.754 269.404 222.598 247.185 222.598 219.776C222.598 192.367 204.754 170.148 182.742 170.148C160.73 170.148 142.886 192.367 142.886 219.776C142.886 247.185 160.73 269.404 182.742 269.404Z" fill="#FFF9F1"/>
<path d="M196.857 266.196C192.467 268.276 187.707 269.406 182.737 269.406C160.727 269.406 142.887 247.186 142.887 219.776C142.887 192.366 160.727 170.146 182.737 170.146C187.707 170.146 192.467 171.276 196.857 173.356C181.807 180.456 171.117 198.556 171.117 219.776C171.117 240.996 181.807 259.096 196.857 266.196Z" fill="#F7EADC"/>
<path d="M206.9 219.78C206.9 237.54 196.3 252.23 182.54 254.54C181.29 254.75 180.02 254.86 178.73 254.86C163.17 254.86 150.56 239.15 150.56 219.78C150.56 200.4 163.17 184.7 178.73 184.7C180.02 184.7 181.29 184.81 182.54 185.02C196.3 187.33 206.9 202.01 206.9 219.78Z" fill="#516666"/>
<path d="M329.258 269.404C351.27 269.404 369.114 247.185 369.114 219.776C369.114 192.367 351.27 170.148 329.258 170.148C307.246 170.148 289.402 192.367 289.402 219.776C289.402 247.185 307.246 269.404 329.258 269.404Z" fill="#FFF9F1"/>
<path d="M343.372 266.196C338.982 268.276 334.222 269.406 329.252 269.406C307.242 269.406 289.402 247.186 289.402 219.776C289.402 192.366 307.242 170.146 329.252 170.146C334.222 170.146 338.982 171.276 343.372 173.356C328.322 180.456 317.632 198.556 317.632 219.776C317.632 240.996 328.322 259.096 343.372 266.196Z" fill="#F7EADC"/>
<path d="M361.44 219.78C361.44 239.15 348.83 254.86 333.27 254.86C331.81 254.86 330.38 254.72 328.98 254.46C315.46 251.88 305.1 237.33 305.1 219.78C305.1 202.22 315.46 187.68 328.98 185.1C330.38 184.84 331.81 184.7 333.27 184.7C348.83 184.7 361.44 200.4 361.44 219.78Z" fill="#516666"/>
<path d="M317.63 219.78C317.63 233.28 321.96 245.52 328.98 254.46C315.46 251.88 305.1 237.33 305.1 219.78C305.1 202.22 315.46 187.68 328.98 185.1C321.96 194.04 317.63 206.28 317.63 219.78ZM171.12 219.78C171.12 233.32 175.47 245.59 182.54 254.54C181.29 254.75 180.02 254.86 178.73 254.86C163.17 254.86 150.56 239.15 150.56 219.78C150.56 200.4 163.17 184.7 178.73 184.7C180.02 184.7 181.29 184.81 182.54 185.02C175.47 193.97 171.12 206.24 171.12 219.78Z" fill="#384948"/>
<path d="M312.004 296.446C310.082 296.443 308.234 295.703 306.842 294.378C305.45 293.052 304.62 291.243 304.523 289.324C304.427 287.404 305.071 285.52 306.322 284.062C307.574 282.603 309.338 281.681 311.25 281.485L420.844 270.272C422.818 270.08 424.787 270.677 426.321 271.933C427.856 273.189 428.83 275.001 429.032 276.974C429.234 278.946 428.646 280.918 427.398 282.459C426.149 283.999 424.342 284.983 422.37 285.194L312.776 296.407C312.519 296.433 312.262 296.446 312.004 296.446ZM380.22 346.818C379.184 346.817 378.159 346.602 377.211 346.184L319.562 320.893C317.753 320.085 316.338 318.595 315.624 316.748C314.91 314.9 314.956 312.845 315.752 311.032C316.547 309.218 318.028 307.792 319.871 307.067C321.714 306.341 323.769 306.373 325.588 307.157L383.237 332.448C384.815 333.139 386.107 334.353 386.896 335.884C387.685 337.416 387.922 339.173 387.568 340.859C387.214 342.545 386.29 344.058 384.952 345.143C383.614 346.228 381.943 346.82 380.22 346.818ZM199.996 296.446C199.738 296.446 199.48 296.433 199.224 296.406L89.63 285.193C85.509 284.771 82.51 281.089 82.932 276.969C83.354 272.849 87.046 269.85 91.156 270.271L200.75 281.484C202.664 281.677 204.431 282.599 205.684 284.058C206.938 285.517 207.583 287.402 207.486 289.323C207.39 291.245 206.558 293.055 205.164 294.381C203.77 295.707 201.92 296.446 199.996 296.446ZM131.781 346.818C130.058 346.82 128.387 346.228 127.049 345.143C125.711 344.058 124.787 342.545 124.433 340.859C124.079 339.173 124.316 337.416 125.105 335.884C125.894 334.353 127.186 333.139 128.764 332.448L186.413 307.157C188.232 306.373 190.287 306.341 192.13 307.067C193.973 307.792 195.454 309.218 196.249 311.032C197.045 312.845 197.091 314.9 196.377 316.748C195.663 318.595 194.248 320.085 192.439 320.893L134.79 346.184C133.842 346.602 132.817 346.818 131.781 346.818Z" fill="#FFE5BF"/>
</g>
<defs>
<clipPath id="clip0_7_94">
<rect width="512" height="512" fill="white"/>
</clipPath>
</defs>
</svg>
