<svg width="520" height="520" viewBox="0 0 520 520" fill="none" xmlns="http://www.w3.org/2000/svg">
<g clip-path="url(#clip0_9_2)" filter="url(#filter0_d_9_2)">
<path d="M516 256C516 364.96 447.92 458.02 351.98 494.97C323.43 505.97 292.42 442.07 260 442.07C254.53 442.07 249.1 441.9 243.72 441.55C217.19 439.89 191.75 504.11 168.02 494.97C72.08 458.02 4 364.96 4 256C4 114.62 118.62 0 260 0C401.38 0 516 114.62 516 256Z" fill="#7FBB1B"/>
<path d="M351.98 237.96V494.97C323.43 505.97 292.42 512 260 512C227.58 512 196.57 505.97 168.02 494.97V237.96H351.98Z" fill="#F7EADC"/>
<path d="M243.72 237.96V511.48C217.19 509.82 191.75 504.11 168.02 494.97V237.96H243.72Z" fill="#EDE0D3"/>
<path d="M389.3 125.982C386.921 67.317 338.632 20.482 279.384 20.482H240.617C181.368 20.482 133.08 67.317 130.701 125.982C91.812 142.058 78.815 196.831 114.872 227.77L260 352.299L405.129 227.77C441.186 196.831 428.189 142.058 389.3 125.982Z" fill="#FFF9F1"/>
<path d="M260.009 352.301L114.871 227.77C78.818 196.826 91.811 142.053 130.702 125.978C133.09 67.314 181.367 20.475 240.622 20.475H250.919C225.242 20.475 203.948 60.551 200.024 112.993C199.485 120.192 197.25 127.138 193.437 133.268C180.063 154.769 177.114 200.514 191.998 227.77L260.009 352.301Z" fill="#F7EADC"/>
<path d="M177.369 169.307C187.705 169.307 196.084 157.259 196.084 142.398C196.084 127.537 187.705 115.489 177.369 115.489C167.033 115.489 158.654 127.537 158.654 142.398C158.654 157.259 167.033 169.307 177.369 169.307Z" fill="#516666"/>
<path d="M186.719 165.702C183.969 167.994 180.768 169.308 177.367 169.308C167.026 169.308 158.654 157.26 158.654 142.398C158.654 127.536 167.026 115.488 177.367 115.488C180.768 115.488 183.969 116.802 186.719 119.094C181.132 123.745 177.367 132.44 177.367 142.398C177.367 152.356 181.132 161.052 186.719 165.702Z" fill="#384948"/>
<path d="M342.631 169.307C352.967 169.307 361.346 157.259 361.346 142.398C361.346 127.537 352.967 115.489 342.631 115.489C332.295 115.489 323.916 127.537 323.916 142.398C323.916 157.259 332.295 169.307 342.631 169.307Z" fill="#516666"/>
<path d="M351.98 165.702C349.23 167.994 346.029 169.308 342.628 169.308C332.287 169.308 323.915 157.26 323.915 142.398C323.915 127.536 332.287 115.488 342.628 115.488C346.029 115.488 349.23 116.802 351.98 119.094C346.393 123.745 342.628 132.44 342.628 142.398C342.628 152.356 346.393 161.052 351.98 165.702Z" fill="#384948"/>
<path d="M178.286 240.322L193.898 157.349C196.084 145.73 209.872 140.64 219.084 148.052L248.599 171.803C251.83 174.403 255.853 175.821 260 175.821C264.147 175.821 268.17 174.403 271.401 171.803L300.916 148.052C310.127 140.64 323.915 145.729 326.102 157.349L341.714 240.322L249.904 288.617L178.286 240.322Z" fill="#617F7F"/>
<path d="M335.07 268.37C323.75 274.46 311.88 285.44 311.88 304.69V398.35C311.88 417.21 299.79 433.24 282.94 439.13C278.61 440.66 273.95 428.795 269.11 428.845H252.11C246.8 428.845 241.71 440.59 237.01 438.84C220.59 432.71 208.9 416.9 208.9 398.35V304.69C208.9 285.44 197.03 274.46 185.71 268.37C175.65 262.95 172.35 250.08 178.29 240.32L208.49 190.65C212.26 184.44 221.8 187.12 221.8 194.38V207.2C221.8 217.77 226.05 227.34 232.93 234.32L233.1 234.49C240.09 241.47 249.74 245.79 260.39 245.79C281.7 245.79 298.98 228.51 298.98 207.2V194.38C298.98 187.12 308.52 184.44 312.29 190.65L342.49 240.32C348.43 250.08 345.13 262.95 335.07 268.37Z" fill="#F5CF33"/>
<path d="M254.03 437.73C248.68 438.25 241.16 440.38 237.01 438.84C220.59 432.72 208.9 416.9 208.9 398.35V304.69C208.9 285.44 197.03 274.46 185.71 268.37C175.65 262.95 172.35 250.08 178.29 240.32L208.49 190.65C212.26 184.44 221.8 187.12 221.8 194.38V207.2C221.8 217.77 226.05 227.34 232.93 234.32L227.56 268.66C226.71 274.11 228.52 279.65 232.42 283.55C235.665 286.793 237.488 291.192 237.49 295.78V409.93C237.49 421.94 244.18 432.38 254.03 437.73Z" fill="#F2B632"/>
<path d="M283.72 429.98C283.72 433.14 283.45 436.21 282.94 439.13C278.495 440.693 273.822 441.51 269.11 441.55H252.11C246.8 441.55 241.71 440.59 237.01 438.84C236.53 436 236.28 433.04 236.28 429.98C236.28 425.08 236.93 420.4 238.1 416.14C241.66 403.11 250.13 393.95 260 393.95C273.1 393.95 283.72 410.08 283.72 429.98Z" fill="#6E8C8E"/>
<path d="M268.92 441.55H252.11C246.8 441.55 241.71 440.59 237.01 438.84C236.53 436 236.28 433.04 236.28 429.98C236.28 425.08 236.93 420.4 238.1 416.14C240.97 430.57 253.66 441.46 268.92 441.55Z" fill="#617F7F"/>
<path d="M219.06 262.327C225.001 260.549 226.987 249.655 223.498 237.995C220.008 226.335 212.364 218.323 206.424 220.101C200.484 221.879 198.497 232.772 201.986 244.432C205.476 256.093 213.12 264.104 219.06 262.327Z" fill="#516666"/>
<path d="M319.039 241.335C322.532 229.676 320.549 218.782 314.609 217.002C308.67 215.222 301.023 223.231 297.529 234.89C294.036 246.549 296.019 257.444 301.958 259.223C307.898 261.003 315.545 252.994 319.039 241.335Z" fill="#516666"/>
</g>
<defs>
<filter id="filter0_d_9_2" x="0" y="0" width="520" height="520" filterUnits="userSpaceOnUse" color-interpolation-filters="sRGB">
<feFlood flood-opacity="0" result="BackgroundImageFix"/>
<feColorMatrix in="SourceAlpha" type="matrix" values="0 0 0 0 0 0 0 0 0 0 0 0 0 0 0 0 0 0 127 0" result="hardAlpha"/>
<feOffset dy="4"/>
<feGaussianBlur stdDeviation="2"/>
<feComposite in2="hardAlpha" operator="out"/>
<feColorMatrix type="matrix" values="0 0 0 0 0 0 0 0 0 0 0 0 0 0 0 0 0 0 0.25 0"/>
<feBlend mode="normal" in2="BackgroundImageFix" result="effect1_dropShadow_9_2"/>
<feBlend mode="normal" in="SourceGraphic" in2="effect1_dropShadow_9_2" result="shape"/>
</filter>
<clipPath id="clip0_9_2">
<rect width="512" height="512" fill="white" transform="translate(4)"/>
</clipPath>
</defs>
</svg>
