<svg width="512" height="512" viewBox="0 0 512 512" fill="none" xmlns="http://www.w3.org/2000/svg">
<g clip-path="url(#clip0_7_62)">
<path d="M512 256C512 350.14 461.18 432.42 385.48 476.88C347.49 499.2 303.24 467.417 256 467.417C208.76 467.417 164.51 499.2 126.52 476.88C50.82 432.42 0 350.14 0 256C0 114.62 114.62 0 256 0C397.38 0 512 114.62 512 256Z" fill="#F5CF33"/>
<path d="M385.48 476.88C347.49 499.2 303.24 512 256 512C233.04 512 210.78 508.98 189.6 503.29C167.478 497.372 146.259 488.488 126.52 476.88L145.82 443.45C160.65 417.76 182.23 399.85 206.46 389.73C262.22 366.42 332.04 384.33 366.18 443.45L385.48 476.88Z" fill="#B75C34"/>
<path d="M212.69 431.05L189.6 503.29C167.478 497.372 146.259 488.488 126.52 476.88L145.82 443.45C160.65 417.76 182.23 399.85 206.46 389.73L212.69 431.05Z" fill="#A54828"/>
<path d="M361.888 452.364H150.112C141.136 452.364 133.86 445.088 133.86 436.112V412.822C133.86 403.846 141.136 396.57 150.112 396.57H361.888C370.864 396.57 378.14 403.846 378.14 412.822V436.112C378.14 445.088 370.864 452.364 361.888 452.364Z" fill="#FFF9F1"/>
<path d="M212.98 452.362H150.11C141.14 452.362 133.86 445.092 133.86 436.112V412.822C133.86 403.852 141.14 396.572 150.11 396.572H212.98C204.01 396.572 196.73 403.852 196.73 412.822V436.112C196.73 445.092 204.01 452.362 212.98 452.362Z" fill="#F7EADC"/>
<path d="M446.49 363.49C426.76 388.98 395.9 406.07 359.5 406.07H152.5C116.1 406.07 85.24 388.98 65.51 363.49C41.75 332.8 86.22 282.87 104.47 243.02L150.17 152.18C169.64 109.65 156.06 66.65 193.54 51.88C214.96 43.44 237.89 39.53 260.71 40.16C280.39 40.69 299.99 44.6 318.46 51.88C355.94 66.65 363.02 109.18 382.49 151.71L429.68 243.02C447.93 282.87 470.25 332.8 446.49 363.49Z" fill="#DC8758"/>
<path d="M187 406.07H152.5C116.1 406.07 85.24 388.98 65.51 363.49C41.75 332.8 86.22 282.87 104.47 243.02L150.17 152.18C169.64 109.65 156.06 66.65 193.54 51.88C214.96 43.44 237.89 39.53 260.71 40.16C209.4 44.74 49.42 302.49 187 406.07Z" fill="#CC754A"/>
<path d="M254.332 368.383C284.973 368.383 309.812 343.544 309.812 312.903C309.812 282.262 284.973 257.423 254.332 257.423C223.691 257.423 198.852 282.262 198.852 312.903C198.852 343.544 223.691 368.383 254.332 368.383Z" fill="#384948"/>
<path d="M227.82 99.79L219.26 220.75C217.17 250.27 196.64 275.25 168.08 283.01L150.43 287.81C144.24 289.49 138.28 291.61 132.56 294.11C101.5 307.74 77.71 333 65.51 363.49C41.75 332.8 34.11 289.93 52.36 250.08L103.75 137.83C123.22 95.3 156.06 66.65 193.54 51.88C204.29 54.71 213.61 61.38 219.83 70.38C225.51 78.61 228.6 88.79 227.82 99.79Z" fill="#B75C34"/>
<path d="M132.56 294.11C101.5 307.74 77.71 333 65.51 363.49C41.75 332.8 34.11 289.93 52.36 250.08L103.75 137.83C123.22 95.3 156.06 66.65 193.54 51.88C204.29 54.71 213.61 61.38 219.83 70.38C178.66 117.52 130.13 211.59 132.56 294.11Z" fill="#A54828"/>
<path d="M446.49 363.49C432.04 327.38 401.35 298.62 361.57 287.81L343.92 283.01C315.36 275.25 294.83 250.27 292.74 220.75L284.18 99.79C282.55 76.76 297.88 57.31 318.46 51.88C355.94 66.65 388.78 95.3 408.25 137.83L459.64 250.08C477.89 289.93 470.25 332.8 446.49 363.49Z" fill="#B75C34"/>
<path d="M154.55 125.227C152.139 102.783 143.447 59.917 112.138 36.489C99.676 27.164 82.126 28.847 71.481 40.203C44.82 68.647 -3.345 135.427 4.549 240.713C6.238 263.246 31.492 275.639 50.522 263.455C81.836 243.406 124.385 207.893 150.167 152.183C154.059 143.771 155.54 134.443 154.55 125.227ZM357.45 125.227C359.861 102.783 368.553 59.917 399.863 36.489C412.325 27.164 429.875 28.847 440.52 40.203C467.181 68.647 515.346 135.427 507.451 240.714C505.762 263.247 480.508 275.64 461.478 263.456C430.164 243.407 387.615 207.894 361.833 152.184C357.94 143.771 356.46 134.443 357.45 125.227Z" fill="#DC8758"/>
<path d="M57.039 240.713C57.469 246.363 59.369 251.373 62.289 255.523C58.229 258.403 54.299 261.043 50.519 263.463C31.489 275.643 6.239 263.253 4.549 240.713C-3.341 135.433 44.819 68.653 71.479 40.203C82.129 28.853 99.679 27.163 112.139 36.493C115.141 38.7379 117.981 41.1905 120.639 43.833C93.519 74.093 49.459 139.673 57.039 240.713ZM502.199 255.523C493.489 267.923 475.739 272.593 461.479 263.463C430.169 243.413 387.619 207.893 361.839 152.183C357.939 143.773 356.459 134.443 357.449 125.233C359.859 102.783 368.559 59.923 399.869 36.493C412.329 27.163 429.879 28.853 440.519 40.203C441.599 41.353 442.709 42.563 443.849 43.843C419.409 68.063 412.119 104.963 409.939 125.233C408.949 134.443 410.429 143.773 414.319 152.183C436.989 201.173 472.629 234.553 502.199 255.523Z" fill="#CC754A"/>
<path d="M278.54 316.35V365.63C278.54 366.12 278.53 366.61 278.49 367.09C277.74 379.78 267.21 389.84 254.33 389.84C241.45 389.84 230.92 379.78 230.17 367.09C230.13 366.61 230.12 366.12 230.12 365.63V316.35H278.54Z" fill="#FD5758"/>
<path d="M262.07 388.57C259.64 389.39 257.04 389.84 254.33 389.84C241.45 389.84 230.92 379.78 230.17 367.09C230.13 366.61 230.12 366.12 230.12 365.63V316.35H245.59V365.63C245.59 366.12 245.6 366.61 245.64 367.09C246.23 377.12 252.93 385.5 262.07 388.57Z" fill="#E9424A"/>
<path d="M278.54 316.35V365.63C278.54 366.12 278.53 366.61 278.49 367.09C272.603 364.929 267.269 361.487 262.875 357.013C258.218 352.275 250.442 352.275 245.785 357.013C241.391 361.487 236.057 364.929 230.17 367.09C230.13 366.61 230.12 366.12 230.12 365.63V316.35H278.54Z" fill="#E9424A"/>
<path d="M335.378 305.86C335.378 329.467 316.061 349.295 292.456 348.963C275.417 348.723 260.814 338.414 254.332 323.714C247.646 338.877 232.319 349.368 214.591 348.956C191.859 348.427 173.286 328.599 173.286 305.861C173.286 262.657 208.31 227.633 251.514 227.633H257.15C300.354 227.632 335.378 262.656 335.378 305.86Z" fill="#FFF9F1"/>
<path d="M238.975 250.54C224.825 264.7 216.065 284.26 216.065 305.86C216.065 321.3 224.625 335.39 237.235 343.02C230.635 346.96 222.875 349.15 214.585 348.96C191.855 348.43 173.285 328.6 173.285 305.86C173.285 284.26 182.045 264.7 196.195 250.54C210.345 236.39 229.905 227.63 251.505 227.63H257.145C263.545 227.63 269.765 228.4 275.725 229.85C261.575 233.29 248.945 240.58 238.975 250.54Z" fill="#F7EADC"/>
<path d="M295.974 287.106C295.974 290.401 294.637 293.362 292.488 295.527C291.386 296.634 290.076 297.512 288.634 298.11C287.191 298.708 285.645 299.015 284.083 299.013C282.285 299.009 280.503 299.362 278.842 300.051C277.181 300.739 275.672 301.75 274.404 303.025C273.13 304.29 272.119 305.796 271.431 307.455C270.742 309.113 270.389 310.892 270.393 312.688C270.393 317.129 268.594 321.157 265.681 324.054C263.232 326.516 260.046 328.109 256.607 328.591C255.875 328.718 255.111 328.766 254.331 328.766C252.222 328.769 250.133 328.354 248.185 327.545C246.237 326.736 244.468 325.55 242.981 324.054C241.484 322.565 240.296 320.793 239.488 318.843C238.679 316.892 238.265 314.8 238.269 312.688C238.273 310.892 237.92 309.113 237.231 307.455C236.543 305.796 235.532 304.29 234.258 303.025C232.989 301.75 231.481 300.739 229.82 300.051C228.159 299.362 226.377 299.01 224.579 299.013C223.017 299.015 221.471 298.708 220.028 298.11C218.586 297.512 217.276 296.634 216.174 295.527C214.025 293.362 212.688 290.401 212.688 287.106C212.688 265.425 230.262 247.835 251.943 247.835H256.719C267.56 247.835 277.381 252.228 284.481 259.344C291.581 266.444 295.974 276.265 295.974 287.106Z" fill="#516666"/>
<path d="M256.608 328.59C255.876 328.717 255.112 328.765 254.332 328.765C252.223 328.768 250.134 328.353 248.186 327.544C246.238 326.735 244.469 325.549 242.982 324.053C241.485 322.564 240.297 320.792 239.489 318.842C238.68 316.891 238.266 314.799 238.27 312.687C238.274 310.891 237.921 309.112 237.232 307.454C236.544 305.795 235.533 304.289 234.259 303.024C232.99 301.749 231.482 300.739 229.821 300.05C228.16 299.361 226.378 299.009 224.58 299.012C223.018 299.014 221.472 298.707 220.029 298.109C218.587 297.511 217.277 296.633 216.175 295.526C214.026 293.361 212.689 290.4 212.689 287.105C212.689 265.424 230.263 247.834 251.944 247.834H256.72C256.719 247.835 222.988 274.674 256.608 328.59Z" fill="#384948"/>
<path d="M156.475 275.045C176.299 275.045 192.369 255.034 192.369 230.35C192.369 205.666 176.299 185.655 156.475 185.655C136.651 185.655 120.581 205.666 120.581 230.35C120.581 255.034 136.651 275.045 156.475 275.045Z" fill="#FFF9F1"/>
<path d="M169.161 272.17C165.221 274.03 160.941 275.05 156.471 275.05C136.651 275.05 120.581 255.04 120.581 230.35C120.581 205.67 136.651 185.66 156.471 185.66C160.941 185.66 165.221 186.68 169.161 188.54C155.591 194.92 145.951 211.23 145.951 230.35C145.951 249.47 155.591 265.79 169.161 272.17Z" fill="#F7EADC"/>
<path d="M181.85 230.35C181.85 247.8 170.49 261.94 156.47 261.94H156.46C142.45 261.93 131.1 247.8 131.1 230.35C131.1 212.9 142.45 198.77 156.46 198.76H156.47C170.49 198.76 181.85 212.9 181.85 230.35Z" fill="#516666"/>
<path d="M145.95 230.35C145.95 242.69 149.96 253.86 156.46 261.94C142.45 261.93 131.1 247.8 131.1 230.35C131.1 212.9 142.45 198.77 156.46 198.76C149.97 206.84 145.95 218.01 145.95 230.35Z" fill="#384948"/>
<path d="M352.188 275.045C372.012 275.045 388.082 255.034 388.082 230.35C388.082 205.666 372.012 185.655 352.188 185.655C332.364 185.655 316.294 205.666 316.294 230.35C316.294 255.034 332.364 275.045 352.188 275.045Z" fill="#FFF9F1"/>
<path d="M364.874 272.17C360.934 274.03 356.654 275.05 352.184 275.05C332.364 275.05 316.294 255.04 316.294 230.35C316.294 205.67 332.364 185.66 352.184 185.66C356.654 185.66 360.934 186.68 364.874 188.54C351.304 194.92 341.664 211.23 341.664 230.35C341.664 249.47 351.304 265.79 364.874 272.17Z" fill="#F7EADC"/>
<path d="M352.188 261.943C366.201 261.943 377.56 247.798 377.56 230.35C377.56 212.902 366.201 198.757 352.188 198.757C338.175 198.757 326.816 212.902 326.816 230.35C326.816 247.798 338.175 261.943 352.188 261.943Z" fill="#516666"/>
<path d="M341.666 230.35C341.666 242.69 345.676 253.86 352.176 261.94C338.166 261.93 326.816 247.8 326.816 230.35C326.816 212.9 338.166 198.77 352.176 198.76C345.686 206.84 341.666 218.01 341.666 230.35Z" fill="#384948"/>
</g>
<defs>
<clipPath id="clip0_7_62">
<rect width="512" height="512" fill="white"/>
</clipPath>
</defs>
</svg>
