<svg width="512" height="512" viewBox="0 0 512 512" fill="none" xmlns="http://www.w3.org/2000/svg">
<g clip-path="url(#clip0_7_2)">
<path d="M512 256C512 327.97 482.3 393 434.49 439.51C388.37 484.37 325.41 459.601 256 459.601C230.13 459.601 231.1 473.507 207.57 466.377C184.1 459.267 145.76 461.24 125.67 448.11C111.84 439.06 89.31 450.99 77.51 439.51C29.7 393 0 327.97 0 256C0 114.62 114.62 0 256 0C397.38 0 512 114.62 512 256Z" fill="#7FBB1B"/>
<path d="M434.49 439.51C388.37 484.37 325.41 512 256 512C204.35 512 156.27 496.7 116.04 470.39L125.67 448.11C129.13 431.54 124.48 407.54 124.48 387.92C124.48 371.73 127.64 358.52 141.13 354.94C178.76 344.93 217.38 339.92 256 339.92C294.62 339.92 333.24 344.93 370.87 354.94C400.71 362.87 423.53 386.96 429.84 417.2L434.49 439.51Z" fill="#B75C34"/>
<path d="M273.71 340.27C256.18 341.58 238.71 346.68 221.6 355.6H221.59C205.7 363.89 193.55 389.04 190.18 420.6L181.63 501.03C158.16 493.92 136.13 483.52 116.04 470.39C102.236 461.356 89.3338 451.015 77.51 439.51L82.17 417.19C88.48 386.97 111.29 362.88 141.13 354.94H141.14C184.348 343.448 229.035 338.503 273.71 340.27Z" fill="#A54828"/>
<path d="M179.759 102.609C178.843 94.3351 174.684 86.7618 168.194 81.549L76.758 8.06799C69.05 1.87599 57.622 3.92699 52.616 12.453C33.035 45.839 -0.377003 125.939 87.305 181.348C94.064 185.619 102.83 185.243 109.17 180.383C116.425 174.816 127.636 168.599 141.291 168.905C145.708 168.999 150.393 169.78 155.282 171.49L185.449 153.968L179.759 102.609Z" fill="#CC754A"/>
<path d="M154.56 152.86C147.7 151.76 134.64 150.39 111.1 148.73C55.006 144.777 60.572 87.179 66.687 59.132C68.301 51.729 76.944 48.375 83.144 52.73L126.581 83.247C136.769 90.4045 143.847 101.175 146.374 113.367L154.56 152.86Z" fill="#DC8758"/>
<path d="M332.241 102.609C333.157 94.3351 337.316 86.7618 343.806 81.549L435.241 8.067C442.949 1.875 454.377 3.926 459.383 12.452C478.965 45.839 512.377 125.939 424.695 181.348C417.936 185.619 409.17 185.243 402.83 180.383C395.575 174.816 384.364 168.599 370.709 168.905C366.292 168.999 361.607 169.78 356.718 171.49L326.551 153.968L332.241 102.609Z" fill="#CC754A"/>
<path d="M357.44 152.86C364.3 151.76 377.36 150.39 400.9 148.73C456.994 144.777 451.428 87.179 445.313 59.132C443.699 51.729 435.056 48.375 428.856 52.73L385.419 83.247C375.231 90.4045 368.153 101.175 365.626 113.367L357.44 152.86Z" fill="#DC8758"/>
<path d="M316.016 433.61L380.913 394.669C408.21 378.29 422.147 346.427 415.647 315.264L378.329 136.343C376.153 125.912 371.121 116.291 363.794 108.554C356.466 100.818 347.133 95.27 336.835 92.531C293.254 80.9395 247.69 78.8564 203.233 86.423C193.812 88.026 189.04 100.142 179.759 102.61C158.758 108.196 168.725 136.823 164.288 158.097L96.352 315.264C89.852 346.427 103.79 378.289 131.086 394.669L195.983 433.61C232.925 455.776 279.075 455.776 316.016 433.61Z" fill="#DC8758"/>
<path d="M242.875 449.14C242.985 449.27 243.095 449.4 243.215 449.53C226.506 447.7 210.392 442.268 195.985 433.61L131.095 394.67C103.795 378.29 89.855 346.43 96.355 315.26L133.675 136.34C135.852 125.91 140.884 116.29 148.211 108.554C155.537 100.818 164.869 95.2705 175.165 92.53H175.175C205.58 84.4433 237.027 80.9646 268.465 82.21C256.125 83.13 243.835 86.72 231.795 93H231.785C220.605 98.83 212.055 116.53 209.685 138.74L189.815 325.57C186.355 358.11 193.775 391.38 208.315 408.48L242.875 449.14Z" fill="#CC754A"/>
<path d="M207.57 239.904C217.143 239.904 224.904 230.521 224.904 218.946C224.904 207.371 217.143 197.988 207.57 197.988C197.997 197.988 190.236 207.371 190.236 218.946C190.236 230.521 197.997 239.904 207.57 239.904Z" fill="#516666"/>
<path d="M216.23 237.096C213.683 238.881 210.718 239.905 207.568 239.905C197.99 239.905 190.236 230.521 190.236 218.946C190.236 207.371 197.99 197.987 207.568 197.987C210.718 197.987 213.683 199.011 216.23 200.796C211.055 204.418 207.568 211.19 207.568 218.946C207.568 226.702 211.055 233.474 216.23 237.096Z" fill="#384948"/>
<path d="M304.43 239.904C314.003 239.904 321.764 230.521 321.764 218.946C321.764 207.371 314.003 197.988 304.43 197.988C294.857 197.988 287.096 207.371 287.096 218.946C287.096 230.521 294.857 239.904 304.43 239.904Z" fill="#516666"/>
<path d="M313.09 237.096C310.543 238.881 307.578 239.905 304.428 239.905C294.85 239.905 287.096 230.521 287.096 218.946C287.096 207.371 294.85 197.987 304.428 197.987C307.578 197.987 310.543 199.011 313.09 200.796C307.915 204.418 304.428 211.19 304.428 218.946C304.428 226.702 307.915 233.474 313.09 237.096Z" fill="#384948"/>
<path d="M307.046 326.793L309.584 326.52C340.94 323.15 363.692 295.095 360.515 263.718C359.959 258.224 367.487 256.128 369.85 261.119L375.677 273.428C394.843 313.912 366.959 360.931 322.242 363.531L302.971 364.651L307.046 326.793Z" fill="#F7EADC"/>
<path d="M317.238 331.016L320.091 332.253C355.333 347.534 396.301 331.494 411.798 296.347C414.512 290.192 423.747 292.498 423.249 299.206L422.022 315.748C417.985 370.155 360.18 403.198 311.249 379.069L290.162 368.671L317.238 331.016Z" fill="#FFF9F1"/>
<path d="M204.954 326.793L202.416 326.52C171.06 323.15 148.308 295.095 151.485 263.718C152.041 258.224 144.513 256.128 142.15 261.119L136.323 273.428C117.157 313.912 145.041 360.931 189.758 363.531L209.029 364.651L204.954 326.793Z" fill="#F7EADC"/>
<path d="M221.84 368.67L200.75 379.07C183.08 387.78 164.26 389.04 147.22 384.53C117.09 376.55 92.56 350.51 89.98 315.75L88.75 299.21C88.45 295.2 91.63 292.76 94.81 292.76C96.96 292.76 99.11 293.87 100.2 296.35C105.36 308.06 113.35 317.64 123.01 324.65C142.35 338.7 168.41 342.44 191.91 332.25L194.76 331.02L221.84 368.67Z" fill="#FFF9F1"/>
<path d="M147.22 384.53C117.09 376.55 92.56 350.51 89.98 315.75L88.75 299.21C88.45 295.2 91.63 292.76 94.81 292.76C96.96 292.76 99.11 293.87 100.2 296.35C105.36 308.06 113.35 317.64 123.01 324.65C123.01 324.65 112.69 363.7 147.22 384.53Z" fill="#F7EADC"/>
<path d="M256 385.656C286.177 385.656 310.64 361.193 310.64 331.016C310.64 300.839 286.177 276.376 256 276.376C225.823 276.376 201.36 300.839 201.36 331.016C201.36 361.193 225.823 385.656 256 385.656Z" fill="#CC754A"/>
<path d="M329.297 307.152L295.383 273.238C273.632 251.487 238.367 251.487 216.617 273.238L182.703 307.152C166.735 323.12 166.735 349.008 182.703 364.976C191.715 373.988 202.675 375.115 214.44 373.955C218.747 373.53 224.211 375.222 228.234 373.434C232.817 371.394 236.984 368.527 240.527 364.976C249.073 356.43 262.928 356.43 271.473 364.976C287.441 380.944 313.329 380.944 329.297 364.976C345.264 349.008 345.264 323.119 329.297 307.152Z" fill="#FFC1AE"/>
<path d="M215.923 307.152C199.953 323.112 199.953 349.002 215.923 364.972C219.583 368.632 223.773 371.452 228.233 373.432C223.001 375.757 217.339 376.957 211.613 376.952C201.153 376.952 190.693 372.952 182.703 364.972C166.743 349.002 166.743 323.112 182.703 307.152L216.623 273.232C231.773 258.082 253.483 253.482 272.613 259.442C264.283 262.032 256.433 266.632 249.833 273.232L215.923 307.152Z" fill="#F4AD9D"/>
<path d="M227.641 340.515C236.097 332.059 238.694 320.946 233.441 315.693C228.188 310.44 217.075 313.037 208.619 321.493C200.163 329.949 197.566 341.062 202.819 346.315C208.072 351.568 219.185 348.971 227.641 340.515Z" fill="#516666"/>
<path d="M309.056 346.323C314.309 341.07 311.712 329.957 303.256 321.501C294.8 313.045 283.687 310.448 278.434 315.701C273.181 320.954 275.777 332.067 284.233 340.523C292.689 348.979 303.803 351.576 309.056 346.323Z" fill="#516666"/>
</g>
<defs>
<clipPath id="clip0_7_2">
<rect width="512" height="512" fill="white"/>
</clipPath>
</defs>
</svg>
