<svg width="512" height="512" viewBox="0 0 512 512" fill="none" xmlns="http://www.w3.org/2000/svg">
<g clip-path="url(#clip0_10_68)">
<path d="M512 256C512 375.4 430.25 475.71 319.68 504.02C299.32 509.23 277.98 480.39 256 480.39C248.5 480.39 241.07 480.07 233.73 479.43C219.57 478.21 205.73 507.45 192.32 504.02C81.75 475.71 0 375.4 0 256C0 114.62 114.62 0 256 0C397.38 0 512 114.62 512 256Z" fill="#B75C34"/>
<path d="M337.63 283.45L319.68 504.02C299.32 509.23 277.98 512 256 512C234.02 512 212.68 509.23 192.32 504.02L174.37 283.45H337.63Z" fill="#F7EADC"/>
<path d="M233.73 511.04C219.57 509.82 205.73 507.45 192.32 504.02L174.36 283.45H227.19L233.73 511.04Z" fill="#EDE0D3"/>
<path d="M167.721 304.968C194.326 320.091 210.328 341.886 239.772 344.23C280.018 347.434 320.975 338.7 357.341 318.029C380.95 304.609 401.314 288.093 413.17 270.05C441.193 227.407 399.768 189.638 385.147 175.017C370.526 160.396 385.147 155.523 385.147 134.811C385.147 114.099 430.227 99.478 419.261 61.709C414.921 46.759 388.436 35.053 358.018 26.367C291.398 7.342 220.601 7.342 153.981 26.367C123.563 35.054 97.078 46.759 92.738 61.709C81.773 99.478 126.852 114.099 126.852 134.811C126.852 155.523 141.472 160.397 126.852 175.017C112.232 189.637 70.807 227.407 98.829 270.05C110.687 288.093 144.111 291.548 167.721 304.968Z" fill="#FFF9F1"/>
<path d="M256 344.871C221.07 344.871 186.15 335.921 154.66 318.031C131.05 304.611 110.69 288.091 98.83 270.051C70.81 227.411 112.23 189.641 126.85 175.021C141.47 160.401 126.85 155.521 126.85 134.811C126.85 114.101 81.77 99.481 92.74 61.711C97.08 46.761 123.56 35.051 153.98 26.371C187.16 16.9023 221.496 12.0995 256 12.101C239.79 12.101 223.59 16.861 207.87 26.371C193.52 35.051 181.03 46.761 178.98 61.711C173.81 99.481 195.07 134.811 195.07 155.521C195.07 176.231 201.97 160.401 195.07 175.021C188.18 189.641 168.63 227.411 181.85 270.051C187.45 288.091 197.05 304.611 208.19 318.031C223.05 335.92 239.52 344.871 256 344.871Z" fill="#F7EADC"/>
<path d="M386.489 95.839C386.489 95.839 411.925 93.034 429.905 108.996C434.377 112.966 431.184 120.343 425.231 119.773L386.489 116.067V95.839Z" fill="#516666"/>
<path d="M377.58 201.93C377.58 202.9 377.52 203.87 377.4 204.83V204.84C377.03 207.75 366.577 201.107 365.057 203.807C363.687 206.227 371.48 217.84 369.48 219.54C365.261 223.173 359.878 225.171 354.31 225.17C350.47 225.17 346.58 224.22 343 222.22C323.59 211.38 299.53 213.54 282.37 227.66C274.71 233.96 265.36 237.11 256 237.11C246.64 237.11 237.29 233.96 229.63 227.66C220.416 220.07 208.942 215.755 197.01 215.39C196.45 215.37 195.88 215.36 195.32 215.36C186.3 215.36 177.23 217.62 169 222.22C165.42 224.22 161.53 225.17 157.69 225.17C152.122 225.171 146.739 223.173 142.52 219.54C140.52 217.84 148.096 209.97 146.726 207.55C145.206 204.85 134.97 207.75 134.6 204.84V204.83C133.53 196.35 137.21 187.64 144.72 182.61L210.76 138.34C223.848 129.558 238.857 124.997 253.95 124.617C254.633 124.593 255.317 124.58 256 124.58C271.78 124.58 287.56 129.16 301.24 138.34L367.28 182.61C373.93 187.07 377.58 194.41 377.58 201.93Z" fill="#FFC1AE"/>
<path d="M256 124.58C255.317 124.58 254.633 124.6 253.95 124.617C254.633 124.593 255.317 124.58 256 124.58Z" fill="#F4AD9D"/>
<path d="M197.01 215.39C196.45 215.37 195.88 215.36 195.32 215.36C186.3 215.36 177.23 217.62 169 222.22C165.42 224.22 161.53 225.17 157.69 225.17C152.122 225.171 146.739 223.173 142.52 219.54C140.52 217.84 138.79 215.75 137.42 213.33C135.9 210.63 134.97 207.75 134.6 204.84V204.83C133.53 196.35 137.21 187.64 144.72 182.61L210.76 138.34C223.848 129.558 238.857 124.997 253.95 124.617C211.666 126.145 191.154 174.87 197.01 215.39Z" fill="#F4AD9D"/>
<path d="M377.4 204.83V204.84C377.03 207.75 376.1 210.63 374.58 213.33C373.21 215.75 371.48 217.84 369.48 219.54L362.64 212.7C349.45 199.51 330.07 194.32 312.05 199.14L296.15 203.39C269.845 210.42 242.155 210.42 215.85 203.39L199.95 199.14C181.93 194.32 162.55 199.51 149.36 212.7L142.52 219.54C140.52 217.84 138.79 215.75 137.42 213.33C135.9 210.63 134.97 207.75 134.6 204.84V204.83L138.04 201.39C155.26 184.17 180.57 177.39 204.09 183.68L219.98 187.93C243.55 194.24 268.45 194.24 292.02 187.93L307.91 183.68C331.43 177.39 356.74 184.17 373.96 201.39L377.4 204.83Z" fill="#F97855"/>
<path d="M125.508 180.832C141.831 180.832 155.063 161.806 155.063 138.337C155.063 114.868 141.831 95.842 125.508 95.842C109.185 95.842 95.953 114.868 95.953 138.337C95.953 161.806 109.185 180.832 125.508 180.832Z" fill="#516666"/>
<path d="M140.273 175.139C135.93 178.758 130.875 180.834 125.504 180.834C109.173 180.834 95.953 161.807 95.953 138.337C95.953 114.867 109.174 95.84 125.504 95.84C130.874 95.84 135.93 97.916 140.273 101.535C131.45 108.88 125.504 122.611 125.504 138.338C125.504 154.065 131.45 167.795 140.273 175.139Z" fill="#384948"/>
<path d="M386.492 180.832C402.815 180.832 416.047 161.806 416.047 138.337C416.047 114.868 402.815 95.842 386.492 95.842C370.169 95.842 356.937 114.868 356.937 138.337C356.937 161.806 370.169 180.832 386.492 180.832Z" fill="#516666"/>
<path d="M401.257 175.139C396.914 178.758 391.859 180.834 386.488 180.834C370.157 180.834 356.937 161.807 356.937 138.337C356.937 114.867 370.158 95.84 386.488 95.84C391.858 95.84 396.914 97.916 401.257 101.535C392.434 108.88 386.488 122.611 386.488 138.338C386.488 154.065 392.434 167.795 401.257 175.139ZM125.508 95.839C125.508 95.839 100.072 93.034 82.092 108.996C77.62 112.966 80.813 120.343 86.766 119.773L125.508 116.067V95.839Z" fill="#384948"/>
</g>
<defs>
<clipPath id="clip0_10_68">
<rect width="512" height="512" fill="white"/>
</clipPath>
</defs>
</svg>
