<svg width="512" height="512" viewBox="0 0 512 512" fill="none" xmlns="http://www.w3.org/2000/svg">
<g clip-path="url(#clip0_6_2)">
<path d="M512 256C512 397.387 397.387 512 256 512C114.613 512 0 397.387 0 256C0 114.613 114.613 0 256 0C397.387 0 512 114.613 512 256Z" fill="#FFCE00"/>
<path d="M512 256C512 246.227 511.434 236.586 510.367 227.098L400.437 117.168L311.286 367L407.009 462.719C470.652 416.149 512 340.906 512 256Z" fill="#FFA300"/>
<path d="M403.238 242.535C393.868 178.418 330.773 130.335 256 130.335C181.227 130.335 118.133 178.419 108.762 242.54L79.684 441.598C125.594 485.223 187.668 512 256 512C324.332 512 386.406 485.223 432.316 441.598L403.238 242.535Z" fill="#555A66"/>
<path d="M432.316 441.598L403.234 242.535C393.867 178.418 330.774 130.335 256 130.335C255.906 130.335 255.809 130.34 255.715 130.34V511.996C255.809 511.996 255.902 512 256 512C324.332 512 386.406 485.223 432.316 441.598Z" fill="#333940"/>
<path d="M190.688 149.52C190.688 175.023 170.012 195.7 144.508 195.7C119.004 195.7 98.328 175.023 98.328 149.52C98.328 124.016 119.004 103.34 144.508 103.34C170.012 103.34 190.688 124.016 190.688 149.52Z" fill="#555A66"/>
<path d="M168.594 149.52C168.594 162.82 157.809 173.605 144.508 173.605C131.207 173.605 120.422 162.82 120.422 149.52C120.422 136.22 131.207 125.434 144.508 125.434C157.808 125.434 168.594 136.219 168.594 149.52Z" fill="#AFB4C8"/>
<path d="M413.672 149.52C413.672 175.023 392.996 195.7 367.492 195.7C341.988 195.7 321.312 175.023 321.312 149.52C321.312 124.016 341.988 103.34 367.492 103.34C392.996 103.34 413.672 124.016 413.672 149.52Z" fill="#333940"/>
<path d="M391.578 149.52C391.578 162.82 380.793 173.605 367.492 173.605C354.192 173.605 343.406 162.82 343.406 149.52C343.406 136.22 354.191 125.434 367.492 125.434C380.793 125.434 391.578 136.219 391.578 149.52Z" fill="#9196AA"/>
<path d="M407.02 256.328C407.02 340.824 338.523 409.32 254.027 409.32C169.531 409.32 101.035 340.824 101.035 256.328C101.035 171.836 169.531 103.34 254.027 103.34C338.523 103.34 407.02 171.836 407.02 256.328Z" fill="white"/>
<path d="M407.02 256.332C407.02 172.398 339.43 104.266 255.715 103.359V409.301C339.43 408.395 407.02 340.261 407.02 256.332Z" fill="#F2F6FC"/>
<path d="M214.566 241.691C214.566 218.164 193.656 199.09 167.859 199.09C142.066 199.09 121.152 218.164 121.152 241.691C121.152 265.223 142.066 284.297 167.859 284.297C193.656 284.297 214.566 265.223 214.566 241.691Z" fill="#7E8596"/>
<path d="M390.848 241.691C390.848 218.164 369.934 199.09 344.141 199.09C318.344 199.09 297.434 218.164 297.434 241.691C297.434 265.223 318.344 284.297 344.141 284.297C369.934 284.297 390.848 265.223 390.848 241.691Z" fill="#707789"/>
<path d="M187.164 231.188C187.164 239.254 180.625 245.797 172.559 245.797C164.493 245.797 157.953 239.254 157.953 231.187C157.953 223.12 164.493 216.582 172.559 216.582C180.625 216.582 187.164 223.122 187.164 231.188Z" fill="#555A66"/>
<path d="M354.047 231.188C354.047 239.254 347.507 245.797 339.441 245.797C331.375 245.797 324.836 239.254 324.836 231.187C324.836 223.12 331.375 216.582 339.441 216.582C347.507 216.582 354.047 223.122 354.047 231.188Z" fill="#333940"/>
<path d="M274.688 319.926L262.613 324.566C258.356 326.206 253.64 326.206 249.383 324.566L237.313 319.926C233.836 318.589 230.846 316.229 228.737 313.158C226.628 310.087 225.499 306.448 225.5 302.723C225.5 292.547 233.75 284.297 243.93 284.297H268.07C278.246 284.297 286.496 292.547 286.496 302.723C286.498 306.448 285.37 310.086 283.262 313.157C281.154 316.228 278.165 318.588 274.688 319.926Z" fill="#555A66"/>
<path d="M268.07 284.293H255.715V325.781C258.055 325.816 260.398 325.421 262.617 324.566L274.687 319.926C278.164 318.588 281.154 316.228 283.262 313.157C285.371 310.086 286.5 306.448 286.5 302.723C286.5 292.547 278.25 284.293 268.07 284.293Z" fill="#333940"/>
</g>
<defs>
<clipPath id="clip0_6_2">
<rect width="512" height="512" fill="white"/>
</clipPath>
</defs>
</svg>
