<svg width="512" height="512" viewBox="0 0 512 512" fill="none" xmlns="http://www.w3.org/2000/svg">
<g clip-path="url(#clip0_6_74)">
<path d="M512 256C512 324.095 485.413 385.981 442.053 431.843C395.386 481.203 329.29 436.93 256 436.93C182.71 436.93 116.614 481.202 69.947 431.843C26.587 385.981 0 324.095 0 256C0 114.615 114.615 0 256 0C397.385 0 512 114.615 512 256Z" fill="#8FD1E3"/>
<path d="M442.05 431.84C399.98 476.34 342.12 505.76 277.42 511.11C270.36 511.7 263.21 499.14 256 499.14C248.79 499.14 241.64 511.7 234.58 511.11C169.88 505.76 112.02 476.34 69.95 431.84C71.48 421.75 73.68 411.9 76.48 402.36C76.47 402.36 76.48 402.35 76.48 402.35C78.419 395.774 95.612 404.306 98.114 398.035C99.897 393.567 86.855 374.217 88.91 369.92C120.47 303.91 183.45 258.9 256 258.9C328.55 258.9 391.53 303.91 423.09 369.92C425.467 374.89 417.694 389.952 419.705 395.15C421.874 400.757 433.797 396.517 435.52 402.36C438.32 411.9 440.52 421.75 442.05 431.84Z" fill="#F36A38"/>
<path d="M324.74 469.64C295.1 481.3 282.61 498 277.42 511.11C270.36 511.7 263.21 512 256 512C248.79 512 241.64 511.7 234.58 511.11C229.39 498 216.9 481.3 187.26 469.64C183 467.96 184.05 461.62 188.62 461.49C205.35 460.98 231.36 465.21 256 489.85C280.64 465.21 306.65 460.98 323.38 461.49C327.95 461.62 329 467.96 324.74 469.64Z" fill="#516666"/>
<path d="M173.33 466.22C173.33 477.42 174.14 488.42 175.7 499.14C134.96 485.7 98.75 462.31 69.95 431.84C71.4589 421.877 73.6416 412.028 76.483 402.361C77.507 398.88 94.695 396.917 98.114 398.036C116.432 404.029 84.823 378.693 87.786 372.294C118.952 304.996 182.577 258.9 256 258.9C274.4 258.9 292.18 261.8 308.99 267.2C230.6 292.35 173.33 371.94 173.33 466.22Z" fill="#E05327"/>
<path d="M172.207 81.329L142.245 36.119C128.956 16.067 104.044 7.167 81.057 14.26C57.467 21.539 41.772 43.833 42.874 68.496L44.701 109.368C45.0423 117.007 47.3409 124.43 51.3761 130.925C55.4113 137.42 61.0479 142.769 67.745 146.459L101.612 165.12L154.985 101.771L172.207 81.329Z" fill="#F97855"/>
<path d="M94.988 146.456L110.249 154.87L101.612 165.122L67.749 146.457C61.0515 142.767 55.4146 137.418 51.3794 130.923C47.3441 124.428 45.0458 117.005 44.705 109.366L42.875 68.496C42.835 67.681 42.819 66.866 42.819 66.051C42.819 42.368 58.256 21.297 81.061 14.258C90.6694 11.2873 100.916 11.055 110.649 13.587C109.866 13.795 109.083 14.019 108.3 14.258C85.496 21.297 70.058 42.368 70.058 66.051C70.058 66.866 70.074 67.681 70.114 68.496L71.944 109.366C72.2846 117.005 74.5829 124.428 78.6182 130.923C82.6535 137.418 88.2904 142.767 94.988 146.456Z" fill="#E05327"/>
<path d="M165.175 112.742C165.175 112.742 132.21 43.572 97.057 34.177C61.904 24.782 29.679 127.778 131.116 152.142C232.553 176.506 165.175 112.742 165.175 112.742Z" fill="#FFE5BF"/>
<path d="M339.793 81.329L369.755 36.119C383.044 16.067 407.956 7.167 430.943 14.26C454.533 21.539 470.228 43.833 469.126 68.496L467.299 109.368C466.958 117.007 464.659 124.43 460.624 130.925C456.589 137.42 450.952 142.769 444.255 146.459L410.388 165.12L357.015 101.771L339.793 81.329Z" fill="#F97855"/>
<path d="M421.78 12.283C403.41 17.956 389.044 33.122 384.801 52.506L366.415 112.929L357.01 101.775L339.791 81.336L369.755 36.119C381.293 18.716 401.588 9.71 421.78 12.283Z" fill="#E05327"/>
<path d="M346.825 112.742C346.825 112.742 379.79 43.572 414.943 34.177C450.096 24.782 482.321 127.778 380.884 152.142C279.447 176.506 346.825 112.742 346.825 112.742Z" fill="#FFE5BF"/>
<path d="M454.91 196.122C454.91 196.122 454.925 202.332 454.915 202.365L457.575 214.937L455.868 220.918L439.783 277.372L299.817 326.235L256 341.526L76.731 292.391L69.95 202.365C69.95 193.437 52.709 184.716 56.201 176.711C59.9196 168.185 65.4476 160.57 72.402 154.393L152.797 94.47C171.677 77.711 194.825 65.498 217.859 75.829L246.505 88.684C249.491 90.0228 252.727 90.715 255.999 90.715C259.271 90.715 262.507 90.0228 265.493 88.684L294.14 75.83C317.174 65.498 344.123 69.631 363.003 86.39L439.598 154.393C446.551 160.571 452.08 168.185 455.802 176.709C459.293 184.714 454.91 187.194 454.91 196.122Z" fill="#F97855"/>
<path d="M62.863 272.921L54.822 202.364C54.822 193.435 52.711 184.714 56.204 176.712C59.9233 168.19 65.451 160.578 72.404 154.404L148.999 86.39C167.879 69.631 194.828 65.498 217.862 75.841L218.602 76.167C213.915 78.755 209.488 82.17 205.497 86.39L141.126 154.404C129.609 166.574 123.008 184.028 123.008 202.364V264.821C123.008 278.259 125.16 291.353 129.185 303.494L62.863 272.921Z" fill="#F36A38"/>
<path d="M244.18 395.15H182.84C179.59 395.15 176.35 394.9 173.16 394.41C164.239 393.054 155.706 389.827 148.12 384.94L99.2 353.43C84.368 343.885 72.169 330.77 63.7216 315.287C55.2741 299.804 50.8483 282.448 50.85 264.81V234.85L55.3 217.31C62.74 236.8 81.43 270.48 125.19 288.04C135.49 292.18 147.19 295.42 160.45 297.38C211.37 304.89 234.08 352.4 244.18 395.15Z" fill="#FFF9F1"/>
<path d="M173.16 394.41C164.239 393.054 155.706 389.827 148.12 384.94L99.2 353.43C84.368 343.885 72.169 330.77 63.7216 315.287C55.2741 299.804 50.8483 282.448 50.85 264.81V234.85L55.3 217.31C62.74 236.8 81.43 270.48 125.19 288.04C126.19 293.32 127.52 298.49 129.18 303.49L173.16 394.41Z" fill="#F7EADC"/>
<path d="M88.157 297.314C99.342 313.591 121.067 335.71 160.878 348.011C166.237 349.667 165.836 357.405 160.311 358.375C132.614 363.24 85.84 362.008 78.451 301.018C77.779 295.47 84.992 292.708 88.157 297.314Z" fill="#516666"/>
<path d="M461.15 234.85V264.81C461.15 300.66 442.94 334.03 412.8 353.43L363.88 384.94C353.528 391.607 341.474 395.152 329.16 395.15H267.82C273.53 371.01 283.25 345.34 299.82 326.24C312.56 311.5 329.39 300.65 351.55 297.38C418.46 287.51 445.41 244.88 455.55 220.2C456.31 218.33 456.99 216.57 457.57 214.94C457.66 214.69 457.74 214.45 457.83 214.21L461.15 234.85Z" fill="#FFF9F1"/>
<path d="M423.843 297.314C412.658 313.591 390.933 335.71 351.122 348.011C345.763 349.667 346.164 357.405 351.689 358.375C379.386 363.24 426.16 362.008 433.549 301.018C434.221 295.47 427.008 292.708 423.843 297.314Z" fill="#516666"/>
<path d="M160.449 272.921C186.787 272.921 208.139 247.75 208.139 216.699C208.139 185.648 186.787 160.477 160.449 160.477C134.111 160.477 112.759 185.648 112.759 216.699C112.759 247.75 134.111 272.921 160.449 272.921Z" fill="#FFF9F1"/>
<path d="M351.551 272.921C377.889 272.921 399.241 247.75 399.241 216.699C399.241 185.648 377.889 160.477 351.551 160.477C325.213 160.477 303.861 185.648 303.861 216.699C303.861 247.75 325.213 272.921 351.551 272.921Z" fill="#FFF9F1"/>
<path d="M177.72 259.841C196.21 259.841 211.2 241.176 211.2 218.152C211.2 195.128 196.21 176.463 177.72 176.463C159.23 176.463 144.24 195.128 144.24 218.152C144.24 241.176 159.23 259.841 177.72 259.841Z" fill="#FDE42F"/>
<path d="M189.577 257.147C185.889 258.894 181.891 259.844 177.716 259.844C159.227 259.844 144.24 241.178 144.24 218.153C144.24 195.128 159.226 176.462 177.716 176.462C181.891 176.462 185.89 177.411 189.577 179.159C176.934 185.123 167.954 200.328 167.954 218.154C167.954 235.98 176.934 251.183 189.577 257.147Z" fill="#F5CF33"/>
<path d="M198.014 218.156C198.014 233.075 189.11 245.415 177.551 247.356C176.501 247.532 175.434 247.625 174.35 247.625C161.279 247.625 150.686 234.428 150.686 218.156C150.686 201.876 161.279 188.687 174.35 188.687C175.434 188.687 176.5 188.779 177.551 188.956C189.109 190.897 198.014 203.228 198.014 218.156Z" fill="#516666"/>
<path d="M334.28 259.841C352.77 259.841 367.76 241.176 367.76 218.152C367.76 195.128 352.77 176.463 334.28 176.463C315.79 176.463 300.8 195.128 300.8 218.152C300.8 241.176 315.79 259.841 334.28 259.841Z" fill="#FDE42F"/>
<path d="M346.136 257.147C342.448 258.894 338.45 259.844 334.275 259.844C315.786 259.844 300.799 241.178 300.799 218.153C300.799 195.128 315.785 176.462 334.275 176.462C338.45 176.462 342.449 177.411 346.136 179.159C333.493 185.123 324.513 200.328 324.513 218.154C324.513 235.98 333.494 251.183 346.136 257.147Z" fill="#F5CF33"/>
<path d="M361.314 218.156C361.314 234.428 350.721 247.625 337.65 247.625C336.441 247.624 335.234 247.511 334.046 247.289C322.689 245.122 313.986 232.899 313.986 218.156C313.986 203.405 322.689 191.191 334.046 189.023C335.234 188.801 336.441 188.688 337.65 188.687C350.721 188.687 361.314 201.876 361.314 218.156Z" fill="#516666"/>
<path d="M324.512 218.156C324.512 229.497 328.149 239.779 334.046 247.289C322.689 245.122 313.986 232.899 313.986 218.156C313.986 203.405 322.689 191.191 334.046 189.023C328.149 196.533 324.512 206.815 324.512 218.156ZM167.957 218.156C167.957 229.53 171.611 239.837 177.55 247.356C176.5 247.532 175.433 247.625 174.349 247.625C161.278 247.625 150.685 234.428 150.685 218.156C150.685 201.876 161.278 188.687 174.349 188.687C175.433 188.687 176.499 188.779 177.55 188.956C171.611 196.474 167.957 206.782 167.957 218.156Z" fill="#384948"/>
<path d="M181.569 307.341C180.079 307.341 178.614 306.956 177.316 306.224C176.32 305.665 175.443 304.914 174.737 304.016C174.031 303.118 173.509 302.09 173.2 300.99C172.891 299.89 172.802 298.739 172.938 297.605C173.074 296.471 173.432 295.374 173.992 294.378L187.65 270.064C199.092 249.697 202.146 226.032 196.251 203.427C190.972 183.186 172.676 169.049 151.758 169.049C146.953 169.049 143.058 165.154 143.058 160.349C143.058 155.544 146.953 151.649 151.758 151.649C180.592 151.649 205.812 171.135 213.089 199.036C220.127 226.022 216.48 254.273 202.821 278.587L189.162 302.9C188.405 304.248 187.303 305.37 185.968 306.151C184.634 306.932 183.115 307.342 181.569 307.341ZM330.431 307.341C328.885 307.343 327.366 306.932 326.032 306.151C324.697 305.371 323.595 304.248 322.838 302.9L309.18 278.587C295.52 254.274 291.874 226.022 298.912 199.037C306.189 171.137 331.409 151.65 360.243 151.65C365.048 151.65 368.943 155.545 368.943 160.35C368.943 165.155 365.048 169.05 360.243 169.05C339.325 169.05 321.029 183.187 315.75 203.428C309.855 226.032 312.909 249.698 324.351 270.065L338.009 294.379C338.753 295.702 339.137 297.197 339.124 298.715C339.111 300.233 338.701 301.721 337.935 303.032C337.169 304.342 336.073 305.43 334.757 306.186C333.44 306.942 331.949 307.34 330.431 307.341Z" fill="#E05327"/>
<path d="M323.172 380.427C323.172 390.922 320.834 400.862 316.636 409.758C313.574 416.266 309.512 422.255 304.597 427.507C292.014 440.971 274.092 449.388 254.211 449.388C234.33 449.388 216.408 440.97 203.825 427.507C198.91 422.255 194.848 416.266 191.786 409.758C187.588 400.862 185.25 390.922 185.25 380.427C185.25 342.341 216.125 311.466 254.211 311.466C292.297 311.466 323.172 342.342 323.172 380.427Z" fill="#F7EADC"/>
<path d="M382.901 341.526C382.901 378.926 352.591 409.236 315.202 409.236C294.441 409.236 275.866 399.894 263.457 385.18C259.787 380.852 256.681 376.076 254.213 370.966C251.745 376.076 248.639 380.852 244.969 385.18C232.56 399.894 213.985 409.236 193.224 409.236C155.835 409.236 125.525 378.926 125.525 341.526C125.525 304.137 155.835 273.827 193.224 273.827C216.53 273.827 237.095 285.605 249.265 303.549C251.122 306.273 252.776 309.13 254.213 312.097C255.65 309.13 257.304 306.273 259.161 303.549C271.331 285.605 291.896 273.827 315.202 273.827C352.591 273.827 382.901 304.137 382.901 341.526Z" fill="#FFF9F1"/>
<path d="M168.794 341.53C168.794 371.35 188.076 396.668 214.862 405.695C207.889 408.044 200.578 409.238 193.22 409.229C155.831 409.229 125.521 378.919 125.521 341.53C125.521 304.13 155.831 273.82 193.22 273.82C200.789 273.82 208.065 275.06 214.862 277.354C188.076 286.381 168.794 311.699 168.794 341.53Z" fill="#F7EADC"/>
<path d="M263.457 303.549V385.179L263.348 385.05C262.231 383.713 260.834 382.638 259.255 381.9C257.677 381.162 255.956 380.779 254.214 380.779C252.471 380.779 250.75 381.162 249.172 381.9C247.593 382.638 246.196 383.713 245.079 385.05L244.97 385.179V303.549H263.457Z" fill="#516666"/>
<path d="M347.79 338.764C353.977 338.764 358.992 333.749 358.992 327.562C358.992 321.375 353.977 316.36 347.79 316.36C341.603 316.36 336.588 321.375 336.588 327.562C336.588 333.749 341.603 338.764 347.79 338.764Z" fill="#FFD797"/>
<path d="M316.713 349.966C322.9 349.966 327.915 344.951 327.915 338.764C327.915 332.577 322.9 327.562 316.713 327.562C310.526 327.562 305.511 332.577 305.511 338.764C305.511 344.951 310.526 349.966 316.713 349.966Z" fill="#FFD797"/>
<path d="M341.355 372.369C347.542 372.369 352.557 367.354 352.557 361.167C352.557 354.98 347.542 349.965 341.355 349.965C335.168 349.965 330.153 354.98 330.153 361.167C330.153 367.354 335.168 372.369 341.355 372.369Z" fill="#FFD797"/>
<path d="M160.635 338.764C166.822 338.764 171.837 333.749 171.837 327.562C171.837 321.375 166.822 316.36 160.635 316.36C154.448 316.36 149.433 321.375 149.433 327.562C149.433 333.749 154.448 338.764 160.635 338.764Z" fill="#FFD797"/>
<path d="M191.712 349.966C197.899 349.966 202.914 344.951 202.914 338.764C202.914 332.577 197.899 327.562 191.712 327.562C185.525 327.562 180.51 332.577 180.51 338.764C180.51 344.951 185.525 349.966 191.712 349.966Z" fill="#FFD797"/>
<path d="M167.07 372.369C173.257 372.369 178.272 367.354 178.272 361.167C178.272 354.98 173.257 349.965 167.07 349.965C160.883 349.965 155.868 354.98 155.868 361.167C155.868 367.354 160.883 372.369 167.07 372.369Z" fill="#FFD797"/>
<path d="M265.828 321.83H242.594C223.004 321.83 207.124 305.949 207.124 286.36V282.328C207.124 281.093 207.367 279.869 207.84 278.728C208.313 277.587 209.006 276.55 209.879 275.676C210.753 274.803 211.79 274.11 212.931 273.637C214.072 273.164 215.296 272.921 216.531 272.921H291.892C294.387 272.921 296.78 273.912 298.544 275.676C300.308 277.44 301.299 279.833 301.299 282.328V286.36C301.298 305.95 285.418 321.83 265.828 321.83Z" fill="#516666"/>
<path d="M272.301 321.245C270.166 321.641 267.999 321.839 265.827 321.837H242.59C223.004 321.837 207.124 305.957 207.124 286.362V282.328C207.124 277.138 211.331 272.922 216.53 272.922H252.724C247.525 272.922 243.318 277.138 243.318 282.328V286.362C243.318 303.744 255.811 318.203 272.301 321.245Z" fill="#384948"/>
<path d="M272.123 205.076C280.742 189.268 301.86 157.772 340.238 140.879C345.252 138.672 343.153 131.182 337.728 131.943C320.117 134.412 297.436 140.786 273.954 155.951C273.954 155.951 268.826 116.041 324.741 94.036C328.996 92.361 327.95 86.023 323.38 85.884C306.65 85.376 280.64 89.611 256 114.251C231.36 89.611 205.35 85.376 188.62 85.884C184.049 86.023 183.003 92.362 187.259 94.036C243.173 116.041 238.046 155.951 238.046 155.951C214.564 140.786 191.883 134.412 174.272 131.943C168.847 131.183 166.749 138.672 171.762 140.879C210.14 157.772 231.258 189.268 239.877 205.076C241.456 207.973 243.787 210.391 246.624 212.075C249.462 213.76 252.7 214.648 256 214.647C259.299 214.648 262.538 213.759 265.375 212.075C268.213 210.391 270.544 207.973 272.123 205.076ZM406.684 203.987C410.284 223.406 410.564 254.408 391.111 291.256C388.492 296.217 394.247 301.404 398.84 298.184C421.865 282.039 454.068 248.094 416.166 199.743C412.719 195.345 405.666 198.493 406.684 203.987ZM461.153 202.365V234.85C459.623 230.122 457.86 225.472 455.868 220.919C455.77 220.68 455.661 220.441 455.553 220.201C444.156 194.611 428.245 179.582 415.988 171.153C411.823 168.293 414.324 161.778 419.338 162.387C435.966 164.399 447.679 169.663 455.803 176.71C459.332 184.803 461.153 193.536 461.153 202.365ZM105.316 203.987C101.716 223.406 101.436 254.408 120.889 291.256C123.508 296.217 117.753 301.404 113.16 298.184C90.135 282.039 57.932 248.094 95.834 199.743C99.281 195.345 106.334 198.493 105.316 203.987ZM50.847 202.365V234.85C52.3766 230.122 54.1404 225.472 56.132 220.919C56.23 220.68 56.339 220.441 56.447 220.201C67.844 194.611 83.755 179.582 96.012 171.153C100.177 168.293 97.676 161.778 92.662 162.387C76.034 164.399 64.321 169.663 56.197 176.71C52.6679 184.803 50.8466 193.536 50.847 202.365Z" fill="#516666"/>
<path d="M435.52 402.36C412.38 442.33 367 442.23 337.52 437.06C330 435.74 329.46 425.21 336.75 422.96C378.71 409.99 405.9 389.01 423.09 369.92C428.03 380.25 432.2 391.1 435.52 402.36ZM174.48 437.06C145 442.23 99.62 442.33 76.48 402.36C76.47 402.36 76.48 402.35 76.48 402.35C79.8 391.09 83.97 380.25 88.91 369.92C106.1 389.01 133.29 409.99 175.25 422.96C182.54 425.21 182 435.74 174.48 437.06Z" fill="#516666"/>
</g>
<defs>
<clipPath id="clip0_6_74">
<rect width="512" height="512" fill="white"/>
</clipPath>
</defs>
</svg>
