<svg width="512" height="512" viewBox="0 0 512 512" fill="none" xmlns="http://www.w3.org/2000/svg">
<g clip-path="url(#clip0_7_28)">
<path d="M512 256C512 314.3 492.51 368.05 459.68 411.09C447.54 427.01 433.59 402.122 418.11 414.792C373.97 450.962 317.52 472.662 256 472.662C209.26 472.662 165.44 460.132 127.73 438.252C116.969 432.011 106.678 424.992 96.94 417.252C80.24 404.002 65.25 428.05 52.32 411.09C19.49 368.05 0 314.3 0 256C0 114.62 114.62 0 256 0C397.38 0 512 114.62 512 256Z" fill="#8FD1E3"/>
<path d="M459.68 411.09C447.991 426.419 434.618 440.387 419.811 452.731C371.194 460.042 318.31 414.792 256 414.792C209.26 414.792 205.483 459.426 167.773 437.546C156.983 431.286 106.65 464.309 96.94 456.589C80.2385 443.33 65.2502 428.046 52.32 411.089L85.46 174.329C97.37 89.28 170.12 26 256 26C341.88 26 414.63 89.28 426.54 174.33L459.68 411.09Z" fill="#6E8C8E"/>
<path d="M298.36 31.27C231.9 48.11 180.06 103.71 170.18 174.33L130.186 460.042C119.398 453.784 106.653 464.309 96.936 456.594C80.2348 443.334 65.2475 428.049 52.319 411.09L85.459 174.33C97.36 89.28 170.11 26 255.99 26C270.57 26 284.77 27.82 298.36 31.27Z" fill="#617F7F"/>
<path d="M406.83 438.57L418.11 454.13C373.97 490.3 317.52 512 256 512C209.26 512 165.44 499.47 127.73 477.59C116.969 471.349 106.678 464.33 96.94 456.59L110 438.57C119.43 425.57 119.8 408.22 111.31 394.58C102.757 380.844 97.1556 365.479 94.8608 349.462C92.5659 333.444 93.6282 317.125 97.98 301.54L145.75 130.43C148.5 120.6 154.35 112.28 162.07 106.42C169.79 100.56 179.38 97.16 189.59 97.16C193.29 97.16 196.89 97.6 200.34 98.44C218.97 102.96 233.27 118.96 234.94 138.85L244.81 256H272.03L281.89 138.85C282.88 127.06 288.31 116.64 296.44 109.17C304.58 101.69 315.42 97.16 327.25 97.16C347.67 97.16 365.59 110.76 371.08 130.43L418.85 301.54C427.75 333.42 422.61 367.14 405.52 394.58C397.03 408.22 397.4 425.57 406.83 438.57Z" fill="#FFF9F1"/>
<path d="M200.34 98.44C184.76 120.33 174.12 146.14 170.18 174.33L127.73 477.59C116.969 471.349 106.678 464.33 96.94 456.59L110 438.57C119.43 425.57 119.8 408.22 111.31 394.58C102.757 380.844 97.1556 365.479 94.8608 349.462C92.5659 333.444 93.6282 317.125 97.98 301.54L145.75 130.43C148.5 120.6 154.35 112.28 162.07 106.42C169.79 100.56 179.38 97.16 189.59 97.16C193.29 97.16 196.89 97.6 200.34 98.44Z" fill="#F7EADC"/>
<path d="M310.377 248.397C310.377 248.397 286.935 289.449 256 289.449C225.065 289.449 201.623 248.397 201.623 248.397H310.377Z" fill="#F2B632"/>
<path d="M315.224 239.752C315.225 241.487 314.78 243.192 313.933 244.706C313.083 246.22 311.858 247.491 310.377 248.397L272.772 271.421C268.517 274.03 263.71 275.607 258.736 276.026C251.908 276.614 245.072 275 239.228 271.421L201.623 248.397C200.142 247.491 198.917 246.22 198.067 244.706C197.311 243.356 196.873 241.851 196.789 240.305C196.704 238.76 196.975 237.216 197.58 235.792C198.185 234.367 199.108 233.1 200.278 232.088C201.448 231.075 202.835 230.344 204.332 229.951L220.634 225.662C222.265 225.232 223.762 224.403 224.992 223.249C226.222 222.095 227.146 220.654 227.679 219.054L233.527 201.462C236.74 191.775 245.795 185.248 256 185.248C266.205 185.248 275.259 191.775 278.473 201.462L284.321 219.054C284.854 220.654 285.778 222.095 287.008 223.249C288.238 224.403 289.735 225.232 291.366 225.662L307.668 229.951C309.833 230.521 311.749 231.791 313.116 233.564C314.483 235.337 315.224 237.513 315.224 239.752Z" fill="#FDE42F"/>
<path d="M258.736 276.026C251.908 276.614 245.072 275 239.228 271.421L201.623 248.397C200.142 247.491 198.917 246.22 198.067 244.706C197.311 243.356 196.873 241.851 196.789 240.305C196.704 238.76 196.975 237.216 197.58 235.792C198.185 234.367 199.108 233.1 200.278 232.088C201.448 231.075 202.835 230.344 204.332 229.951L220.634 225.662C222.265 225.232 223.762 224.403 224.992 223.249C226.222 222.095 227.146 220.654 227.679 219.054L233.527 201.462C235.093 196.74 238.108 192.632 242.142 189.722C246.176 186.811 251.025 185.246 256 185.248C238.058 196.158 230.354 266.016 258.736 276.026Z" fill="#F5CF33"/>
<path d="M199.58 215.499C213.399 215.499 224.601 201.955 224.601 185.247C224.601 168.539 213.399 154.995 199.58 154.995C185.761 154.995 174.559 168.539 174.559 185.247C174.559 201.955 185.761 215.499 199.58 215.499Z" fill="#516666"/>
<path d="M212.08 211.447C208.403 214.023 204.124 215.501 199.577 215.501C185.752 215.501 174.559 201.956 174.559 185.247C174.559 168.538 185.751 154.993 199.577 154.993C204.124 154.993 208.403 156.471 212.08 159.047C204.611 164.276 199.577 174.051 199.577 185.247C199.577 196.443 204.61 206.218 212.08 211.447Z" fill="#384948"/>
<path d="M312.42 215.499C326.239 215.499 337.441 201.955 337.441 185.247C337.441 168.539 326.239 154.995 312.42 154.995C298.601 154.995 287.399 168.539 287.399 185.247C287.399 201.955 298.601 215.499 312.42 215.499Z" fill="#516666"/>
<path d="M324.92 211.447C321.243 214.023 316.964 215.501 312.417 215.501C298.592 215.501 287.399 201.956 287.399 185.247C287.399 168.538 298.591 154.993 312.417 154.993C316.964 154.993 321.243 156.471 324.92 159.047C317.451 164.276 312.417 174.051 312.417 185.247C312.417 196.443 317.451 206.218 324.92 211.447Z" fill="#384948"/>
</g>
<defs>
<clipPath id="clip0_7_28">
<rect width="512" height="512" fill="white"/>
</clipPath>
</defs>
</svg>
