<svg width="512" height="512" viewBox="0 0 512 512" fill="none" xmlns="http://www.w3.org/2000/svg">
<g clip-path="url(#clip0_10_84)">
<path d="M416.67 455.31C474.81 408.38 512 336.53 512 256C512 114.62 397.38 0 256 0C114.62 0 0 114.62 0 256C0 336.53 37.19 408.38 95.33 455.31H416.67Z" fill="#853BCC"/>
<path d="M262.976 122.495L230.859 90.378L185.222 85.806L143.318 43.902C133.936 61.529 142.269 87.577 142.269 87.577L210.575 155.873L97.615 175.062L132.781 210.228L63.622 217.972L129.432 283.782L102.866 292.983L190.919 381.036L273.435 449.851C291.612 445.56 336.375 443.854 352.822 435.913L416.668 455.31C474.81 408.38 512 336.53 512 256C512 227.21 507.245 199.531 498.481 173.702L368.682 43.902C378.583 82.558 262.976 122.495 262.976 122.495Z" fill="#593099"/>
<path d="M266.68 475.72L252.386 480.872L235.836 466.83L144.91 486.7C127.257 478.156 110.439 467.506 95.33 455.31V416.2C95.33 335.81 160.5 270.63 240.89 270.63H256L266.68 475.72Z" fill="#0ED2B3"/>
<path d="M416.67 416.2V455.31C401.538 467.524 384.775 478.148 367.09 486.7C367.09 486.7 313.232 459.309 274.855 459.911C274.855 459.911 238.327 474.558 236.957 474.558L256 270.63H271.11C351.5 270.63 416.67 335.81 416.67 416.2Z" fill="#0AB69F"/>
<path d="M304.635 438.496C304.165 438.506 284.671 494.325 284.671 494.325L256 512C216.19 512 178.51 502.91 144.91 486.7C147.52 460.41 156.43 429.54 181.01 407.64C228.75 365.1 219.37 330.46 219.37 330.46L256 333.93L304.635 438.496Z" fill="#FFD15B"/>
<path d="M367.09 486.7C335.05 502.17 299.29 511.15 261.51 511.94L260.1 511.97C258.74 511.99 257.37 512 256 512V333.93L292.63 330.46C292.63 330.46 283.25 365.1 331 407.64C355.57 429.54 364.49 460.41 367.09 486.7Z" fill="#FEB237"/>
<path d="M147.858 188.516L63.624 217.972C63.624 217.972 130.485 233.289 102.868 292.983C102.868 292.983 155.751 299.889 146.222 357.091L223.22 284.914L147.858 188.516Z" fill="#FFD15B"/>
<path d="M364.142 188.516L448.368 217.972C448.368 217.972 381.507 233.289 409.124 292.983C409.124 292.983 356.241 299.889 365.77 357.091L288.772 284.914L364.142 188.516Z" fill="#FEB237"/>
<path d="M241.882 111.496C241.882 111.496 236.423 73.849 182.46 69.906C141.962 66.947 143.318 43.902 143.318 43.902C143.318 43.902 116.418 84.186 159.708 97.159C194.796 107.675 194.645 128.657 194.645 128.657L241.882 111.496Z" fill="white"/>
<path d="M270.117 111.496C270.117 111.496 275.576 73.849 329.539 69.906C370.037 66.947 368.681 43.902 368.681 43.902C368.681 43.902 395.581 84.186 352.291 97.159C317.203 107.675 317.354 128.657 317.354 128.657L270.117 111.496Z" fill="#EAEAEA"/>
<path d="M202.019 128.658H78.306L83.326 150.231C88.543 172.651 108.525 188.516 131.543 188.516H178.07L202.019 128.658Z" fill="#0ED2B3"/>
<path d="M256 108.876C196.026 108.876 156.12 135.778 147.785 188.979C139.449 242.18 185.612 227.372 200.173 301.978C209.913 351.881 222.616 359.985 256 359.985L320.2 224.448L256 108.876Z" fill="#86E8D0"/>
<path d="M308.936 128.658H433.693L428.673 150.231C423.456 172.651 403.474 188.516 380.456 188.516H333.929L308.936 128.658Z" fill="#0AB69F"/>
<path d="M256 108.876C315.974 108.876 355.88 135.778 364.215 188.979C372.551 242.18 326.388 227.372 311.827 301.978C302.088 351.881 289.384 359.985 256 359.985V108.876Z" fill="#0ED2B3"/>
<path d="M218.149 204.7C228.266 204.7 236.468 196.241 236.468 185.806C236.468 175.371 228.266 166.912 218.149 166.912C208.032 166.912 199.83 175.371 199.83 185.806C199.83 196.241 208.032 204.7 218.149 204.7Z" fill="#6D574E"/>
<path d="M293.851 204.7C303.968 204.7 312.17 196.241 312.17 185.806C312.17 175.371 303.968 166.912 293.851 166.912C283.734 166.912 275.532 175.371 275.532 185.806C275.532 196.241 283.734 204.7 293.851 204.7Z" fill="#4C3B38"/>
<path d="M231.424 313.111C238.081 313.111 243.477 305.347 243.477 295.77C243.477 286.193 238.081 278.429 231.424 278.429C224.767 278.429 219.371 286.193 219.371 295.77C219.371 305.347 224.767 313.111 231.424 313.111Z" fill="#0ED2B3"/>
<path d="M280.576 313.111C287.233 313.111 292.629 305.347 292.629 295.77C292.629 286.193 287.233 278.429 280.576 278.429C273.919 278.429 268.523 286.193 268.523 295.77C268.523 305.347 273.919 313.111 280.576 313.111Z" fill="#0AB69F"/>
</g>
<defs>
<clipPath id="clip0_10_84">
<rect width="512" height="512" fill="white"/>
</clipPath>
</defs>
</svg>
