<svg width="512" height="512" viewBox="0 0 512 512" fill="none" xmlns="http://www.w3.org/2000/svg">
<g clip-path="url(#clip0_10_40)">
<path d="M512 256C512 352.08 459.07 435.8 380.77 479.59C332.836 463.033 301.3 465.028 256 465.028C235.49 465.028 215.54 462.618 196.43 458.058C173.32 452.548 151.43 490.89 131.23 479.59C52.93 435.8 0 352.08 0 256C0 114.62 114.62 0 256 0C397.38 0 512 114.62 512 256Z" fill="#FF455E"/>
<path d="M312.085 52.928V36.114C312.085 25.789 303.715 17.419 293.39 17.419C283.065 17.419 274.695 25.789 274.695 36.114V18.695C274.695 8.37 266.325 0 256 0C245.675 0 237.305 8.37 237.305 18.695V36.114C237.305 25.789 228.935 17.419 218.61 17.419C208.285 17.419 199.915 25.789 199.915 36.114V52.928C199.915 72.132 215.483 87.699 234.686 87.699H277.314C296.518 87.699 312.085 72.131 312.085 52.928Z" fill="#5A545D"/>
<path d="M387.348 350.95L402.172 358.884C411.275 363.756 422.604 360.326 427.476 351.223C432.348 342.12 428.918 330.791 419.815 325.919L435.172 334.139C444.275 339.011 455.604 335.581 460.476 326.478C465.348 317.375 461.918 306.046 452.815 301.173L437.458 292.954C446.561 297.826 457.89 294.396 462.763 285.293C467.635 276.19 464.205 264.861 455.102 259.989L440.278 252.055C423.347 242.993 402.276 249.372 393.214 266.303L373.099 303.886C364.037 320.817 370.417 341.888 387.348 350.95Z" fill="#6B6670"/>
<path d="M124.652 350.95L109.827 358.884C100.724 363.756 89.395 360.326 84.523 351.223C79.651 342.12 83.081 330.791 92.184 325.919L76.827 334.139C67.724 339.011 56.395 335.581 51.523 326.478C46.651 317.375 50.081 306.046 59.184 301.173L74.541 292.954C65.438 297.826 54.109 294.396 49.237 285.293C44.365 276.19 47.795 264.861 56.898 259.989L71.722 252.055C88.653 242.993 109.724 249.372 118.786 266.303L138.901 303.886C147.963 320.817 141.583 341.888 124.652 350.95ZM180.236 115.073L98.859 8.189C89.408 -4.225 70.156 -2.172 63.534 11.955L53.618 33.109C31.68 79.912 41.415 135.443 77.965 171.994L108.599 202.628" fill="#5A545D"/>
<path d="M331.764 115.073L413.141 8.18901C422.592 -4.22399 441.845 -2.17199 448.467 11.955L458.383 33.109C480.321 79.912 470.587 135.444 434.037 171.994L403.403 202.628" fill="#6B6670"/>
<path d="M379.83 135.949L422.648 66.136C427.282 58.581 438.773 60.608 440.542 69.293C443.196 82.3214 443.196 95.7512 440.541 108.779C437.886 121.808 432.631 134.167 425.091 145.118L398.015 184.443M132.17 135.949L89.351 66.136C84.717 58.581 73.226 60.608 71.457 69.293C68.8031 82.3214 68.8035 95.7512 71.4583 108.779C74.1131 121.808 79.3677 134.167 86.908 145.118L113.984 184.443" fill="#FFCA90"/>
<path d="M380.77 479.59C343.86 500.23 301.3 512 256 512C210.7 512 168.14 500.23 131.23 479.59L153.18 382.74H358.82L380.77 479.59Z" fill="#6B6670"/>
<path d="M207.32 382.74L196.43 505.03C173.628 499.596 151.687 491.035 131.23 479.59L153.18 382.74H207.32Z" fill="#5A545D"/>
<path d="M256 415.605C356.434 415.605 437.852 334.187 437.852 233.753C437.852 133.319 356.434 51.901 256 51.901C155.566 51.901 74.148 133.319 74.148 233.753C74.148 334.187 155.566 415.605 256 415.605Z" fill="#6B6670"/>
<path d="M302.839 409.515C287.895 413.49 272.194 415.604 255.999 415.604C155.567 415.604 74.148 334.185 74.148 233.753C74.148 133.321 155.566 51.902 255.999 51.902C272.194 51.902 287.895 54.016 302.839 57.991C225.101 78.656 167.828 149.516 167.828 233.753C167.828 317.99 225.101 388.85 302.839 409.515Z" fill="#5A545D"/>
<path d="M178.428 279.276C198.163 279.276 214.161 263.278 214.161 243.543C214.161 223.808 198.163 207.81 178.428 207.81C158.693 207.81 142.695 223.808 142.695 243.543C142.695 263.278 158.693 279.276 178.428 279.276Z" fill="#F8F6F7"/>
<path d="M187.394 278.139C184.462 278.894 181.447 279.275 178.42 279.273C158.683 279.273 142.692 263.283 142.692 243.545C142.692 223.807 158.682 207.817 178.42 207.817C181.447 207.815 184.462 208.196 187.394 208.951C171.988 212.925 160.616 226.898 160.616 243.545C160.617 260.192 171.989 274.166 187.394 278.139Z" fill="#E3E1F2"/>
<path d="M178.426 264.137C189.799 264.137 199.018 254.918 199.018 243.545C199.018 232.172 189.799 222.953 178.426 222.953C167.053 222.953 157.834 232.172 157.834 243.545C157.834 254.918 167.053 264.137 178.426 264.137Z" fill="#403B43"/>
<path d="M333.574 279.276C353.309 279.276 369.307 263.278 369.307 243.543C369.307 223.808 353.309 207.81 333.574 207.81C313.839 207.81 297.841 223.808 297.841 243.543C297.841 263.278 313.839 279.276 333.574 279.276Z" fill="#F8F6F7"/>
<path d="M342.546 278.139C339.614 278.894 336.599 279.275 333.572 279.273C313.835 279.273 297.844 263.283 297.844 243.545C297.844 223.807 313.834 207.817 333.572 207.817C336.599 207.815 339.614 208.196 342.546 208.951C327.14 212.925 315.768 226.898 315.768 243.545C315.768 260.192 327.14 274.166 342.546 278.139Z" fill="#E3E1F2"/>
<path d="M333.577 264.137C344.95 264.137 354.169 254.918 354.169 243.545C354.169 232.172 344.95 222.953 333.577 222.953C322.204 222.953 312.985 232.172 312.985 243.545C312.985 254.918 322.204 264.137 333.577 264.137Z" fill="#403B43"/>
<path d="M256 371.063C272.845 371.063 286.5 357.408 286.5 340.563C286.5 323.718 272.845 310.063 256 310.063C239.155 310.063 225.5 323.718 225.5 340.563C225.5 357.408 239.155 371.063 256 371.063Z" fill="#FF455E"/>
<path d="M225.225 368.394C244.153 368.394 259.497 353.05 259.497 334.122V279.333H225.225C206.297 279.333 190.953 294.677 190.953 313.605V334.122C190.953 353.049 206.297 368.394 225.225 368.394Z" fill="#F8F6F7"/>
<path d="M286.775 368.394C267.847 368.394 252.503 353.05 252.503 334.122V279.333H286.775C305.703 279.333 321.047 294.677 321.047 313.605V334.122C321.047 353.049 305.703 368.394 286.775 368.394Z" fill="#F8F6F7"/>
<path d="M278.086 271.522H233.914C222.325 271.522 212.931 280.916 212.931 292.505C212.931 304.094 222.325 313.488 233.914 313.488H235.017V314.591C235.017 326.18 244.411 335.574 256 335.574C267.589 335.574 276.983 326.18 276.983 314.591V313.488H278.086C289.675 313.488 299.069 304.094 299.069 292.505C299.069 280.917 289.674 271.522 278.086 271.522Z" fill="#403B43"/>
<path d="M307.405 310.999C305.614 310.999 303.885 310.346 302.541 309.163C301.197 307.979 300.33 306.347 300.103 304.571C299.876 302.794 300.304 300.996 301.308 299.513C302.311 298.03 303.82 296.963 305.553 296.512L380.573 276.96C381.512 276.704 382.493 276.637 383.458 276.763C384.424 276.889 385.354 277.205 386.197 277.693C387.039 278.181 387.777 278.831 388.366 279.606C388.955 280.38 389.385 281.264 389.631 282.206C389.877 283.148 389.933 284.13 389.797 285.094C389.66 286.058 389.334 286.985 388.837 287.822C388.34 288.659 387.682 289.389 386.901 289.97C386.12 290.551 385.232 290.972 384.287 291.207L309.267 310.759C308.659 310.918 308.033 310.999 307.405 310.999ZM382.435 372.8C381.807 372.8 381.181 372.719 380.573 372.56L305.553 353.008C303.685 352.497 302.094 351.27 301.124 349.593C300.154 347.916 299.885 345.925 300.373 344.051C300.862 342.176 302.069 340.57 303.734 339.58C305.398 338.59 307.386 338.296 309.266 338.761L384.286 358.313C386.019 358.764 387.528 359.83 388.531 361.314C389.534 362.797 389.963 364.595 389.736 366.371C389.509 368.147 388.642 369.78 387.298 370.963C385.955 372.147 384.226 372.8 382.435 372.8ZM392.225 333.773L392.07 333.771L306.739 332.01C302.674 331.926 299.447 328.563 299.531 324.498C299.615 320.433 302.988 317.221 307.043 317.29L392.374 319.051C394.326 319.071 396.191 319.865 397.557 321.26C398.924 322.654 399.68 324.534 399.66 326.487C399.641 328.439 398.846 330.303 397.452 331.67C396.057 333.036 394.177 333.793 392.225 333.773ZM204.595 310.999C203.967 310.999 203.342 310.918 202.734 310.759L127.714 291.207C126.769 290.972 125.881 290.551 125.1 289.97C124.319 289.389 123.661 288.659 123.164 287.822C122.667 286.985 122.341 286.058 122.204 285.094C122.068 284.13 122.124 283.148 122.37 282.206C122.616 281.264 123.046 280.38 123.635 279.606C124.224 278.831 124.962 278.181 125.804 277.693C126.647 277.205 127.577 276.889 128.543 276.763C129.508 276.637 130.489 276.704 131.428 276.96L206.448 296.512C208.181 296.963 209.691 298.03 210.694 299.513C211.697 300.997 212.125 302.795 211.898 304.571C211.67 306.347 210.804 307.98 209.459 309.163C208.115 310.346 206.386 310.999 204.595 310.999ZM129.565 372.8C127.774 372.8 126.045 372.147 124.701 370.964C123.357 369.78 122.49 368.148 122.263 366.372C122.036 364.595 122.464 362.797 123.468 361.314C124.471 359.831 125.98 358.764 127.713 358.313L202.733 338.761C204.613 338.296 206.601 338.59 208.265 339.58C209.93 340.57 211.137 342.176 211.626 344.051C212.114 345.925 211.845 347.916 210.875 349.593C209.905 351.27 208.314 352.497 206.446 353.008L131.426 372.56C130.819 372.719 130.193 372.8 129.565 372.8ZM119.775 333.773C117.839 333.767 115.983 332.999 114.609 331.636C113.236 330.272 112.454 328.421 112.435 326.486C112.415 324.55 113.159 322.684 114.505 321.293C115.851 319.901 117.691 319.096 119.626 319.051L204.957 317.29C205.924 317.269 206.885 317.439 207.786 317.79C208.687 318.141 209.51 318.666 210.208 319.336C210.906 320.005 211.465 320.806 211.853 321.692C212.241 322.577 212.45 323.531 212.469 324.498C212.489 325.465 212.318 326.426 211.967 327.326C211.616 328.227 211.09 329.049 210.421 329.747C209.752 330.445 208.951 331.003 208.066 331.392C207.181 331.78 206.228 331.99 205.261 332.01L119.93 333.771L119.775 333.773Z" fill="#DEDAEC"/>
<path d="M358.799 171.853H336.417C330.43 171.853 325.576 166.999 325.576 161.012C325.576 155.025 330.43 150.171 336.417 150.171H358.799C364.786 150.171 369.64 155.025 369.64 161.012C369.64 166.999 364.786 171.853 358.799 171.853ZM175.583 171.853H153.201C147.214 171.853 142.36 166.999 142.36 161.012C142.36 155.025 147.214 150.171 153.201 150.171H175.583C181.57 150.171 186.424 155.025 186.424 161.012C186.424 166.999 181.57 171.853 175.583 171.853Z" fill="#FCF7F0"/>
</g>
<defs>
<clipPath id="clip0_10_40">
<rect width="512" height="512" fill="white"/>
</clipPath>
</defs>
</svg>
