<svg width="512" height="512" viewBox="0 0 512 512" fill="none" xmlns="http://www.w3.org/2000/svg">
<g clip-path="url(#clip0_7_156)">
<path d="M512 256C512 318.49 489.61 375.74 452.42 420.19C405.46 476.31 334.89 465.259 256 465.259C215.79 465.259 177.75 455.989 143.89 439.469C111.31 423.569 82.61 447.71 59.59 420.19C22.39 375.74 0 318.49 0 256C0 114.62 114.62 0 256 0C397.38 0 512 114.62 512 256Z" fill="#8FD1E3"/>
<path d="M452.42 420.19C439.458 435.676 424.72 449.585 408.51 461.63C400.926 467.268 393.018 455.723 384.819 460.505C380.714 462.899 376.537 481.952 372.29 484.12C364.61 488.05 356.7 491.59 348.59 494.73C341.705 497.41 326.353 482.04 319.193 484.12C312.033 486.2 313.065 505.73 305.66 507.18C296.65 508.96 287.46 510.26 278.13 511.05C270.84 511.68 265.482 491.417 258.022 491.417C250.562 491.417 241.16 511.68 233.87 511.05C224.54 510.26 215.35 508.96 206.34 507.18C200.064 505.951 201.033 477.873 194.932 476.19C186.634 473.901 171.345 497.819 163.41 494.73C155.3 491.59 147.39 488.05 139.71 484.12C133.345 480.87 131.733 463.719 125.692 459.965C119.651 456.211 109.18 465.855 103.49 461.62C87.2789 449.584 72.5438 435.678 59.59 420.19C61.83 415.32 64.23 410.56 66.81 405.9C73.5505 393.695 81.461 382.175 90.43 371.5C130.18 324.12 189.81 294.25 256 294.25C262.48 294.25 268.89 294.54 275.23 295.1H275.25C348.21 301.55 411.2 344.37 445.2 405.89C447.78 410.55 450.19 415.32 452.42 420.19Z" fill="#DC8758"/>
<path d="M275.23 295.1C206.88 304.11 151.58 383.76 143.89 486.21C142.49 485.527 141.096 484.831 139.709 484.122C133.655 481.029 131.455 463.514 125.692 459.965C119.339 456.053 109.455 466.061 103.486 461.626C87.2793 449.584 72.5463 435.676 59.591 420.19C67.6442 402.652 78.017 386.276 90.431 371.5C130.181 324.12 189.811 294.25 256.001 294.25C262.48 294.25 268.89 294.54 275.23 295.1Z" fill="#CC754A"/>
<path d="M445.2 405.89C439.55 420.06 425.71 430.07 409.53 430.07C388.33 430.07 371.15 412.89 371.15 391.69C371.15 412.89 353.96 430.07 332.76 430.07C311.57 430.07 294.38 412.89 294.38 391.69C294.38 412.89 277.2 430.07 256 430.07C234.8 430.07 217.62 412.89 217.62 391.69C217.62 412.89 200.43 430.07 179.24 430.07C168.88 430.07 159.48 425.97 152.58 419.29C145.35 412.32 140.85 402.53 140.85 391.69C140.85 412.89 123.67 430.07 102.47 430.07C86.29 430.07 72.46 420.07 66.81 405.9C73.5505 393.695 81.461 382.175 90.43 371.5C130.18 324.12 189.81 294.25 256 294.25C262.48 294.25 268.89 294.54 275.23 295.1H275.25C348.21 301.55 411.2 344.37 445.2 405.89Z" fill="#CC754A"/>
<path d="M447.91 361.13C447.91 382.33 430.73 399.51 409.53 399.51C388.33 399.51 371.15 382.33 371.15 361.13C371.15 382.33 353.96 399.51 332.76 399.51C311.57 399.51 294.38 382.33 294.38 361.13C294.38 382.33 277.2 399.51 256 399.51C234.8 399.51 217.62 382.33 217.62 361.13C217.62 382.33 200.43 399.51 179.24 399.51C168.88 399.51 159.48 395.41 152.58 388.73C145.35 381.76 140.85 371.97 140.85 361.13C140.85 382.33 123.67 399.51 102.47 399.51C81.27 399.51 64.09 382.33 64.09 361.13L71.2 263.77L75.82 200.54C78.69 161.32 93.93 125.78 117.56 97.63C130.652 82.025 146.281 68.7388 163.79 58.33V58.32C173.016 52.838 177.443 62.832 187.617 59.041C196.354 55.785 210.725 38.51 220.03 36.63C225.62 35.49 231.31 34.62 237.07 34.02C243.29 33.37 247.3 46.99 253.69 46.99C259.11 46.99 266.78 33.28 272.08 33.75L270.82 41.72C271.77 41.8 273.99 33.93 274.93 34.03C280.69 34.63 286.38 35.5 291.97 36.64C302.361 38.74 312.436 50.529 322.11 54.335C331.186 57.906 339.909 53.397 348.21 58.33V58.34C397.42 87.59 431.72 139.62 436.18 200.54L447.91 361.13Z" fill="#516666"/>
<path d="M269.122 39.276C262.848 40.103 259.664 36.114 253.69 38.312C203.782 56.679 165.724 121.05 161.821 200.537L152.581 388.727C145.351 381.757 140.851 371.967 140.851 361.127C140.851 382.327 123.671 399.507 102.471 399.507C81.271 399.507 64.091 382.327 64.091 361.127L71.201 263.767L75.821 200.537C78.691 161.317 93.931 125.777 117.561 97.627C130.449 82.2687 145.795 69.1533 162.973 58.814C170.133 54.506 177.612 58.761 185.364 55.464C196.231 50.842 207.634 39.177 219.445 36.746C225.271 35.5474 231.153 34.6376 237.069 34.02C243.295 33.37 247.3 38.312 253.69 38.312C259.111 38.313 263.822 38.806 269.122 39.276Z" fill="#384948"/>
<path d="M440.801 263.768C420.041 298.098 382.361 321.048 339.311 321.048C306.831 321.048 277.401 307.988 256.001 286.808C234.601 307.988 205.171 321.048 172.691 321.048C129.641 321.048 91.961 298.098 71.201 263.768L75.821 200.538C76.18 195.636 76.732 190.791 77.469 186.01C79.158 175.065 72.057 154.698 75.597 144.518C82.881 123.577 103.647 114.202 117.56 97.627C119.01 96.857 120.49 96.127 121.98 95.417L129.18 121.807L130.54 126.797L256 186.467L381.46 126.797L382.82 121.807L390.02 95.417C391.51 96.127 392.99 96.857 394.44 97.627C408.667 114.576 437.092 125.073 444.368 146.569C447.634 156.219 432.873 175.376 434.485 185.706C435.252 190.624 435.817 195.572 436.18 200.536L440.801 263.768Z" fill="#384948"/>
<path d="M258.312 235.428C245.102 269.828 211.742 294.248 172.692 294.248C167.442 294.248 162.292 293.808 157.282 292.948C113.972 285.628 80.992 247.938 80.992 202.548C80.992 167.648 100.492 137.298 129.182 121.808L130.542 126.798L170.392 145.748L256.002 186.468L258.312 235.428Z" fill="#DC8758"/>
<path d="M170.392 145.748C165.732 162.828 162.772 181.238 161.822 200.538L157.282 292.948C113.972 285.628 80.992 247.938 80.992 202.548C80.992 167.648 100.492 137.298 129.182 121.808L130.542 126.798L170.392 145.748Z" fill="#CC754A"/>
<path d="M253.692 235.428C266.902 269.828 300.262 294.248 339.312 294.248C389.952 294.248 431.012 253.188 431.012 202.548C431.012 167.648 411.512 137.298 382.822 121.808L381.462 126.798L256.002 186.468L253.692 235.428Z" fill="#DC8758"/>
<path d="M172.692 253.258C200.699 253.258 223.404 230.553 223.404 202.546C223.404 174.539 200.699 151.834 172.692 151.834C144.685 151.834 121.98 174.539 121.98 202.546C121.98 230.553 144.685 253.258 172.692 253.258Z" fill="#516666"/>
<path d="M172.692 242.017C194.491 242.017 212.163 224.345 212.163 202.546C212.163 180.747 194.491 163.075 172.692 163.075C150.893 163.075 133.221 180.747 133.221 202.546C133.221 224.345 150.893 242.017 172.692 242.017Z" fill="#FDE42F"/>
<path d="M186.381 239.566C182.001 241.194 177.364 242.024 172.691 242.016C150.891 242.016 133.221 224.336 133.221 202.546C133.221 180.746 150.891 163.066 172.691 163.066C177.501 163.066 182.121 163.926 186.381 165.516C171.331 171.076 160.601 185.556 160.601 202.546C160.601 219.526 171.331 234.006 186.381 239.566Z" fill="#F2B632"/>
<path d="M189.642 202.548C189.642 213.458 180.792 222.298 169.892 222.298C168.432 222.298 167.002 222.138 165.632 221.838C156.772 219.888 150.142 211.998 150.142 202.548C150.142 193.098 156.772 185.208 165.632 183.268C167.002 182.958 168.432 182.798 169.892 182.798C180.792 182.798 189.642 191.638 189.642 202.548Z" fill="#516666"/>
<path d="M160.601 202.548C160.601 209.558 162.431 216.138 165.631 221.838C156.771 219.888 150.141 211.998 150.141 202.548C150.141 193.098 156.771 185.208 165.631 183.268C162.422 188.968 160.601 195.548 160.601 202.548Z" fill="#384948"/>
<path d="M339.308 253.258C367.315 253.258 390.02 230.553 390.02 202.546C390.02 174.539 367.315 151.834 339.308 151.834C311.301 151.834 288.596 174.539 288.596 202.546C288.596 230.553 311.301 253.258 339.308 253.258Z" fill="#516666"/>
<path d="M339.308 242.017C361.107 242.017 378.779 224.345 378.779 202.546C378.779 180.747 361.107 163.075 339.308 163.075C317.509 163.075 299.837 180.747 299.837 202.546C299.837 224.345 317.509 242.017 339.308 242.017Z" fill="#FDE42F"/>
<path d="M352.997 239.566C348.617 241.194 343.98 242.024 339.307 242.016C317.507 242.016 299.837 224.336 299.837 202.546C299.837 180.746 317.507 163.066 339.307 163.066C344.117 163.066 348.737 163.926 352.997 165.516C337.947 171.076 327.217 185.556 327.217 202.546C327.217 219.526 337.947 234.006 352.997 239.566Z" fill="#F2B632"/>
<path d="M361.861 202.548C361.861 213.458 353.021 222.298 342.111 222.298C337.831 222.298 333.871 220.938 330.641 218.618C325.631 215.048 322.361 209.178 322.361 202.548C322.361 195.918 325.621 190.058 330.631 186.478C333.977 184.078 337.993 182.791 342.111 182.798C353.022 182.798 361.861 191.638 361.861 202.548Z" fill="#516666"/>
<path d="M330.642 218.618C325.632 215.048 322.362 209.178 322.362 202.548C322.362 195.918 325.622 190.058 330.632 186.478C328.442 191.388 327.222 196.828 327.222 202.548C327.222 208.268 328.442 213.708 330.642 218.618Z" fill="#384948"/>
<path d="M512 130.37C512 144.46 497.55 156.7 481.12 166.06C459.8 178.21 435.16 185.51 434.49 185.71C432.14 170.72 427.99 156.38 422.24 142.9C346.35 131.43 256 213.56 256 213.56C256 213.56 215.83 177.04 166.56 156.12C141.94 145.64 115.04 139.07 89.76 142.9C84.01 156.38 79.86 170.72 77.51 185.71C76.32 185.36 0 162.75 0 130.37C0 98.41 74.34 119.16 77.42 120.03C74.44 119 5.65 94.83 17.21 59.75C26.08 32.83 100.85 65.93 137.61 84.12C150.61 90.55 161.58 100.44 169.36 112.67C171.88 116.63 174.58 120.44 177.46 124.1C183.65 131.97 190.63 139.11 198.3 145.45C203.91 150.09 209.89 154.3 216.18 158.03C222.46 161.75 229.05 165 235.92 167.72C242.42 170.05 249.21 171.22 256 171.22C262.79 171.22 269.58 170.05 276.08 167.72C289.709 162.314 302.404 154.799 313.7 145.45C325.004 136.106 334.77 125.045 342.64 112.67C350.42 100.44 361.39 90.55 374.39 84.12C411.15 65.93 485.92 32.83 494.79 59.75C498.94 72.35 492.72 83.55 482.91 92.78C475.52 99.71 479.68 111.98 489.76 112.95C502.3 114.16 512 118.82 512 130.37Z" fill="#FFF9F1"/>
<path d="M481.12 166.06C459.8 178.21 435.16 185.51 434.49 185.71C432.14 170.72 427.99 156.38 422.24 142.9C449.33 145.39 469.61 152.03 481.12 166.06Z" fill="#F7EADC"/>
<path d="M256 186.469C240.375 186.469 228.431 200.403 230.819 215.844L239.727 273.438C240.329 277.322 242.3 280.863 245.284 283.42C248.268 285.978 252.069 287.384 255.999 287.384C259.929 287.384 263.73 285.978 266.714 283.42C269.698 280.863 271.669 277.322 272.271 273.438L281.179 215.844C283.569 200.403 271.625 186.469 256 186.469Z" fill="#516666"/>
<path d="M259.029 287.104C256.86 287.51 254.632 287.476 252.477 287.004C250.322 286.533 248.284 285.632 246.483 284.357C244.683 283.082 243.157 281.458 241.997 279.581C240.837 277.705 240.065 275.614 239.729 273.434L230.819 215.844C228.429 200.394 240.379 186.464 255.999 186.464C257.029 186.464 258.039 186.524 259.029 186.644C251.429 188.304 245.879 201.404 247.089 215.844L251.889 273.434C252.479 280.444 255.389 285.854 259.029 287.104Z" fill="#384948"/>
<path d="M166.564 156.115C141.939 145.643 115.044 139.073 89.76 142.895C83.9205 156.603 79.807 170.984 77.514 185.707C76.317 185.363 0 162.746 0 130.365C0 118.823 9.7 114.157 22.237 112.948C32.318 111.975 36.476 99.711 29.095 92.776C19.279 83.554 13.057 72.355 17.214 59.745C26.085 32.829 100.851 65.929 137.611 84.116C150.603 90.5586 161.584 100.435 169.362 112.674C171.869 116.615 174.573 120.429 177.462 124.099C177.462 124.099 160.968 133.772 166.564 156.115Z" fill="#F7EADC"/>
<path d="M278.31 57.94C278.31 80.14 269.86 100.37 256 115.58C242.14 100.37 233.69 80.14 233.69 57.94C233.69 49.64 234.87 41.61 237.07 34.02C243.29 33.37 249.61 33.04 256 33.04C261.42 33.04 266.78 33.28 272.08 33.75H272.09C273.04 33.83 273.99 33.93 274.93 34.03C277.13 41.61 278.31 49.64 278.31 57.94ZM347.6 87.53C327.85 81.75 310.11 68.87 298.56 49.91C295.94 45.61 293.75 41.17 291.97 36.64C312.11 40.71 331.06 48.14 348.21 58.33V58.34C349.685 68.0328 349.478 77.9073 347.6 87.53Z" fill="#DC8758"/>
<path d="M220.03 36.63C218.222 41.2393 216.017 45.6827 213.44 49.91C201.89 68.87 184.15 81.75 164.4 87.53C162.522 77.9039 162.315 68.0262 163.79 58.33V58.32C181.182 47.9757 200.196 40.6426 220.03 36.63Z" fill="#CC754A"/>
<path d="M278.31 505.47C278.31 507.34 278.25 509.21 278.13 511.05C270.84 511.68 263.46 512 256 512C248.54 512 241.16 511.68 233.87 511.05C233.75 509.21 233.69 507.34 233.69 505.47C233.69 483.27 242.14 463.04 256 447.82C269.86 463.04 278.31 483.27 278.31 505.47ZM348.59 494.73C334.678 500.146 320.311 504.312 305.66 507.18C305.632 507.125 305.609 507.068 305.59 507.01C297.62 486.28 298.26 464.37 305.74 445.2C324.13 454.42 339.28 470.27 347.25 491C347.73 492.24 348.17 493.48 348.59 494.73ZM408.51 461.63C397.085 470.123 384.969 477.646 372.29 484.12C365.3 468.65 363.25 451.86 365.74 435.81C381.88 439.89 396.89 448.64 408.51 461.63ZM206.41 507.01C206.39 507.07 206.37 507.12 206.34 507.18C191.689 504.312 177.322 500.146 163.41 494.73C163.83 493.48 164.27 492.24 164.75 491C172.72 470.27 187.87 454.42 206.26 445.2C213.74 464.37 214.38 486.28 206.41 507.01Z" fill="#516666"/>
<path d="M139.71 484.12C127.028 477.646 114.913 470.12 103.49 461.62C115.12 448.63 130.12 439.88 146.26 435.81C148.75 451.86 146.7 468.65 139.71 484.12Z" fill="#384948"/>
</g>
<defs>
<clipPath id="clip0_7_156">
<rect width="512" height="512" fill="white"/>
</clipPath>
</defs>
</svg>
