<svg width="512" height="512" viewBox="0 0 512 512" fill="none" xmlns="http://www.w3.org/2000/svg">
<g clip-path="url(#clip0_11_128)">
<path d="M129.457 478.589C52.136 434.536 0 351.357 0 256C0 114.615 114.615 0 256 0C397.385 0 512 114.615 512 256C512 351.356 459.864 434.536 382.543 478.588L129.457 478.589Z" fill="#A3D4FF"/>
<path d="M382.543 478.588C459.864 434.536 512 351.356 512 256C512 236.722 509.869 217.941 505.83 199.881L351.047 45.098L377.576 121.286L317.328 201.472L160.953 45.098L112.373 157.985L145.25 190.862L91.9 226.951L327.533 462.584L382.543 478.588Z" fill="#65B1FC"/>
<path d="M351 172.182L390.996 161.828C410.601 156.753 418.673 133.32 406.353 117.248L351.046 45.098L354.261 118.678L249.004 145.926L351 172.182Z" fill="#CDD2E1"/>
<path d="M129.458 478.588C166.781 499.852 209.972 512 256 512C302.028 512 345.22 499.853 382.543 478.588L363.503 297.902H148.498L129.458 478.588Z" fill="#555A66"/>
<path d="M363.502 297.902H256V512C302.028 512 345.219 499.853 382.542 478.588L363.502 297.902Z" fill="#333940"/>
<path d="M414.877 230.739C437.003 215.702 446.691 191.377 436.518 176.407C426.344 161.437 400.16 161.491 378.034 176.527C355.909 191.564 346.22 215.889 356.394 230.859C366.567 245.829 392.751 245.776 414.877 230.739Z" fill="#636978"/>
<path d="M160.999 172.182L121.003 161.828C101.398 156.753 93.326 133.32 105.646 117.248L160.953 45.098L157.738 118.678L262.995 145.926L160.999 172.182Z" fill="#E9EDF5"/>
<path d="M155.496 231.164C165.67 216.193 155.981 191.868 133.855 176.832C111.729 161.795 85.5454 161.741 75.3716 176.711C65.1979 191.681 74.8869 216.007 97.0126 231.043C119.138 246.08 145.322 246.134 155.496 231.164Z" fill="#7E8596"/>
<path d="M121.918 240.029C121.918 153.132 181.949 121.149 256.001 121.149C330.053 121.149 390.084 153.132 390.084 240.029C390.084 326.926 330.053 427.09 256.001 427.09C181.949 427.09 121.918 326.925 121.918 240.029Z" fill="#F2F6FC"/>
<path d="M256 121.149V427.089C330.052 427.089 390.083 326.925 390.083 240.028C390.083 153.132 330.052 121.149 256 121.149Z" fill="#DCE1EB"/>
<path d="M181.394 291.386C190.93 291.386 198.661 283.655 198.661 274.119C198.661 264.583 190.93 256.852 181.394 256.852C171.858 256.852 164.127 264.583 164.127 274.119C164.127 283.655 171.858 291.386 181.394 291.386Z" fill="#555A66"/>
<path d="M330.606 291.386C340.142 291.386 347.873 283.655 347.873 274.119C347.873 264.583 340.142 256.852 330.606 256.852C321.07 256.852 313.339 264.583 313.339 274.119C313.339 283.655 321.07 291.386 330.606 291.386Z" fill="#333940"/>
<path d="M302.806 444.231H216.579C187.61 444.231 164.127 420.747 164.127 391.779C164.127 362.81 187.611 339.327 216.579 339.327H302.806C331.775 339.327 355.258 362.811 355.258 391.779C355.258 420.747 331.774 444.231 302.806 444.231Z" fill="#AFB4C8"/>
<path d="M302.806 339.326H256V444.231H302.806C331.775 444.231 355.258 420.748 355.258 391.779C355.258 362.81 331.774 339.326 302.806 339.326Z" fill="#7E8596"/>
<path d="M232.281 405.835C240.054 398.062 240.054 385.46 232.281 377.687C224.508 369.914 211.905 369.914 204.132 377.687C196.359 385.46 196.359 398.062 204.132 405.835C211.905 413.608 224.508 413.608 232.281 405.835Z" fill="#555A66"/>
<path d="M320.46 396.53C322.988 385.832 316.366 375.11 305.668 372.581C294.97 370.052 284.248 376.674 281.719 387.372C279.19 398.07 285.813 408.792 296.51 411.321C307.208 413.85 317.931 407.228 320.46 396.53Z" fill="#333940"/>
<path d="M121.918 240.029C121.918 261.341 125.529 283.452 132.073 304.687C142.225 284.909 151.85 254.564 164.128 223.704C187.835 164.117 219.588 194.35 256.001 172.183C281.929 156.399 267.386 133.201 256.861 121.151L256.001 121.15C181.948 121.149 121.918 153.132 121.918 240.029Z" fill="#AFB4C8"/>
<path d="M256.86 121.15L256 121.149V172.182C281.928 156.398 267.385 133.201 256.86 121.15Z" fill="#7E8596"/>
</g>
<defs>
<clipPath id="clip0_11_128">
<rect width="512" height="512" fill="white"/>
</clipPath>
</defs>
</svg>
