<svg width="512" height="512" viewBox="0 0 512 512" fill="none" xmlns="http://www.w3.org/2000/svg">
<g clip-path="url(#clip0_10_104)">
<path d="M512 256C512 336.58 474.76 408.47 416.56 455.4C372.64 490.8 316.8 448.403 256 448.403C225.9 448.403 202.4 478.4 175.57 468.86C148.22 459.13 117.62 473.28 95.45 455.41C37.24 408.48 0 336.59 0 256C0 114.62 114.62 0 256 0C397.38 0 512 114.62 512 256Z" fill="#7FBB1B"/>
<path d="M416.56 455.4C372.64 490.8 316.8 512 256 512C195.21 512 139.37 490.8 95.45 455.41C104.831 432.96 118.831 412.735 136.54 396.05C141.942 390.939 147.67 386.186 153.69 381.82C182.74 360.72 218.3 348.58 256 348.58C301.5 348.58 343.88 366.26 375.46 396.05C393.167 412.736 407.169 432.956 416.56 455.4Z" fill="#B75C34"/>
<path d="M129.314 153.706L117.216 275.373L75.284 291.947L72.18 293.172C52.47 300.963 30.375 289.794 24.97 269.293L1.567 180.604C-0.583117 172.45 -0.516101 163.869 1.76112 155.749C4.03835 147.629 8.44312 140.265 14.52 134.418L34.979 114.74C47.088 103.096 63.556 99.274 78.526 102.747C89.336 105.238 99.355 111.541 106.385 121.432L129.314 153.706Z" fill="#FFE5BF"/>
<path d="M75.285 291.947L72.181 293.172C52.471 300.963 30.376 289.794 24.971 269.293L1.567 180.604C-0.583117 172.45 -0.516101 163.869 1.76112 155.749C4.03835 147.629 8.44312 140.265 14.52 134.418L34.979 114.74C47.088 103.096 63.556 99.274 78.526 102.747C47.742 116.831 -6.974 229.493 75.285 291.947Z" fill="#FFE0A7"/>
<path d="M59.186 265.739C57.16 265.739 54.644 264.463 53.904 261.66L30.504 172.971C29.7136 169.971 29.7385 166.815 30.576 163.828C31.4135 160.841 33.0333 158.132 35.268 155.981L55.724 136.301C59.905 132.278 64.576 131.434 67.758 131.434C73.494 131.434 78.681 134.105 81.99 138.762L98.43 161.899L89.25 254.25L61.186 265.342C60.5509 265.601 59.8719 265.736 59.186 265.739Z" fill="#FFD797"/>
<path d="M382.685 153.705L405.619 121.43C422.376 97.848 456.179 94.679 477.026 114.736L497.482 134.416C503.56 140.263 507.965 147.628 510.242 155.748C512.519 163.869 512.585 172.45 510.433 180.605L487.033 269.294C481.625 289.79 459.532 300.963 439.819 293.171L394.783 275.371L382.685 153.705Z" fill="#FFE5BF"/>
<path d="M452.818 265.739C454.844 265.739 457.36 264.463 458.1 261.66L481.5 172.971C482.29 169.971 482.266 166.815 481.428 163.828C480.591 160.841 478.971 158.132 476.736 155.981L456.28 136.301C452.099 132.278 447.428 131.434 444.246 131.434C438.51 131.434 433.323 134.105 430.014 138.762L413.574 161.899L422.757 254.25L450.821 265.342C451.455 265.601 452.133 265.736 452.818 265.739Z" fill="#FFD797"/>
<path d="M311.738 411.365L404.891 343.686C438.125 319.54 452.032 276.74 439.338 237.67L421.547 182.916C398.244 111.198 331.412 62.641 256.003 62.641C180.594 62.641 113.761 111.198 90.459 182.916L72.668 237.67C59.974 276.739 73.88 319.54 107.115 343.686L193.952 385.157C205.296 393.399 225.296 422.73 238.446 425.345C247.917 427.229 256.645 429.96 266.217 428.925C282.664 427.15 298.359 421.095 311.738 411.365Z" fill="#B75C34"/>
<path d="M266.215 428.916C243.36 431.386 219.786 425.538 200.267 411.36L107.114 343.68C73.881 319.537 59.978 276.729 72.667 237.669L90.455 182.911C102.11 147.05 124.648 116.984 153.69 95.881C182.732 74.778 218.298 62.638 256.006 62.638C259.426 62.638 262.826 62.733 266.214 62.934C246.441 64.919 227.882 76.7 212.48 95.882C195.526 116.985 182.372 147.051 175.574 182.912L165.197 237.67C157.786 276.73 165.904 319.538 185.297 343.681L239.654 411.361C247.656 421.336 256.841 427.185 266.215 428.916Z" fill="#A54828"/>
<path d="M266.22 348.88C246.44 350.86 227.88 362.64 212.48 381.83C195.53 402.93 182.37 432.99 175.57 468.86L170.19 497.26C142.84 487.53 117.62 473.28 95.45 455.41C107.97 425.46 128.36 400.24 153.69 381.83C182.73 360.72 218.3 348.58 256.01 348.58C259.43 348.58 262.83 348.68 266.22 348.88Z" fill="#A54828"/>
<path d="M384.314 213.024C384.842 176.688 355.547 147.076 319.348 147.076C300.673 147.076 283.846 154.951 271.99 167.556C263.27 176.846 248.702 176.783 239.971 167.514C227.609 154.381 209.842 146.4 190.238 147.118C188.466 147.18 186.698 147.317 184.938 147.53C153.078 151.341 128.164 178.525 127.689 211.103C127.319 236.513 141.54 258.63 162.505 269.63C164.564 270.712 166.68 271.682 168.844 272.536C176.019 275.366 180.006 283.085 177.955 290.52C175.281 300.215 173.833 309.868 173.833 318.866C173.833 320.925 173.907 322.973 174.065 324.989C176.451 357.557 197.839 384.846 227.187 395.836C236.15 399.204 245.862 401.041 256.007 401.041C301.38 401.041 338.17 364.25 338.17 318.867C338.17 309.854 336.718 300.183 334.035 290.472C331.994 283.085 335.896 275.35 343.023 272.534C366.873 263.113 383.925 239.912 384.314 213.024Z" fill="#FFE5BF"/>
<path d="M184.938 147.53C181.106 158.53 177.949 170.364 175.574 182.916L165.197 237.674C163.202 248.199 162.326 258.999 162.505 269.629C141.539 258.629 127.319 236.512 127.689 211.102C128.164 178.525 153.078 151.341 184.938 147.53ZM227.186 395.836C197.838 384.846 176.45 357.557 174.064 324.989C177.21 331.988 180.968 338.301 185.296 343.685L227.186 395.836ZM286.666 262.25C286.666 263.402 286.44 264.542 285.999 265.606C285.559 266.67 284.913 267.637 284.099 268.451C283.288 269.266 282.323 269.912 281.261 270.353C280.199 270.793 279.06 271.019 277.91 271.018C275.132 271.018 272.6 272.143 270.783 273.972C269.844 274.904 269.1 276.012 268.593 277.234C268.086 278.455 267.826 279.765 267.829 281.087C267.832 282.642 267.527 284.182 266.931 285.619C266.336 287.055 265.462 288.359 264.359 289.456C262.556 291.269 260.21 292.442 257.678 292.797C257.124 292.888 256.563 292.931 256.002 292.926C254.449 292.928 252.911 292.622 251.476 292.027C250.042 291.431 248.739 290.557 247.644 289.456C246.541 288.359 245.667 287.055 245.072 285.619C244.476 284.182 244.171 282.642 244.174 281.087C244.177 279.765 243.917 278.455 243.41 277.234C242.903 276.012 242.158 274.904 241.22 273.972C240.286 273.033 239.175 272.289 237.952 271.782C236.729 271.275 235.417 271.015 234.093 271.018C232.943 271.019 231.804 270.793 230.742 270.353C229.68 269.912 228.715 269.266 227.904 268.451C227.09 267.637 226.444 266.67 226.003 265.606C225.563 264.542 225.337 263.402 225.337 262.25C225.337 246.285 238.278 233.332 254.243 233.332H257.76C261.558 233.326 265.32 234.072 268.828 235.527C272.337 236.981 275.523 239.116 278.203 241.807C280.891 244.489 283.022 247.676 284.474 251.184C285.926 254.692 286.671 258.453 286.666 262.25Z" fill="#FFE0A7"/>
<path d="M257.678 292.797C257.124 292.888 256.563 292.931 256.002 292.926C254.449 292.928 252.911 292.622 251.476 292.027C250.042 291.431 248.739 290.557 247.644 289.456C246.541 288.359 245.667 287.055 245.071 285.619C244.476 284.182 244.171 282.642 244.174 281.087C244.177 279.765 243.917 278.455 243.41 277.234C242.903 276.012 242.158 274.904 241.22 273.972C240.286 273.033 239.175 272.289 237.952 271.782C236.729 271.275 235.417 271.015 234.093 271.018C232.943 271.019 231.804 270.793 230.742 270.353C229.68 269.912 228.715 269.266 227.904 268.451C227.09 267.637 226.444 266.67 226.003 265.606C225.563 264.542 225.336 263.402 225.337 262.25C225.337 246.285 238.278 233.332 254.243 233.332H257.76C257.76 233.332 232.922 253.095 257.678 292.797ZM190.099 327.131C183.123 327.082 181.786 337.06 188.538 338.815C209.669 344.307 232.45 347.386 256 347.368C279.551 347.387 302.334 344.308 323.466 338.815C330.218 337.06 328.881 327.083 321.905 327.131C300.576 327.279 278.608 327.413 256 327.41C233.394 327.412 211.427 327.279 190.099 327.131Z" fill="#FFD797"/>
<path d="M223.051 358.366C219.563 358.342 218.895 363.33 222.271 364.208C232.836 366.954 244.227 368.493 256.002 368.484C267.778 368.493 279.169 366.954 289.735 364.208C293.111 363.33 292.443 358.342 288.955 358.366C278.291 358.44 267.306 358.507 256.002 358.505C244.698 358.506 233.715 358.44 223.051 358.366Z" fill="#FFE0A7"/>
<path d="M191.484 247.567C208.487 247.567 222.27 230.404 222.27 209.233C222.27 188.062 208.487 170.899 191.484 170.899C174.481 170.899 160.698 188.062 160.698 209.233C160.698 230.404 174.481 247.567 191.484 247.567Z" fill="#FDE42F"/>
<path d="M202.387 245.089C198.996 246.696 195.319 247.569 191.48 247.569C174.479 247.569 160.699 230.406 160.699 209.234C160.699 188.062 174.479 170.899 191.48 170.899C195.319 170.899 198.996 171.772 202.387 173.379C190.762 178.863 182.505 192.844 182.505 209.235C182.505 225.626 190.762 239.604 202.387 245.089Z" fill="#F5CF33"/>
<path d="M210.144 209.236C210.144 222.954 201.956 234.301 191.328 236.085C190.362 236.247 189.382 236.332 188.385 236.332C176.366 236.332 166.626 224.197 166.626 209.235C166.626 194.265 176.366 182.138 188.385 182.138C189.381 182.138 190.362 182.223 191.328 182.385C201.957 184.171 210.144 195.51 210.144 209.236Z" fill="#516666"/>
<path d="M316.782 247.567C333.785 247.567 347.568 230.404 347.568 209.233C347.568 188.062 333.785 170.899 316.782 170.899C299.779 170.899 285.996 188.062 285.996 209.233C285.996 230.404 299.779 247.567 316.782 247.567Z" fill="#FDE42F"/>
<path d="M327.684 245.089C324.293 246.696 320.616 247.569 316.777 247.569C299.776 247.569 285.996 230.406 285.996 209.234C285.996 188.062 299.776 170.899 316.777 170.899C320.616 170.899 324.293 171.772 327.684 173.379C316.059 178.863 307.802 192.844 307.802 209.235C307.802 225.626 316.059 239.604 327.684 245.089Z" fill="#F5CF33"/>
<path d="M341.64 209.236C341.64 224.198 331.9 236.333 319.881 236.333C318.753 236.333 317.649 236.225 316.567 236.024C306.124 234.031 298.122 222.792 298.122 209.236C298.122 195.672 306.124 184.441 316.567 182.448C317.66 182.243 318.769 182.14 319.881 182.139C331.9 182.139 341.64 194.266 341.64 209.236Z" fill="#516666"/>
<path d="M307.8 209.236C307.8 219.664 311.145 229.118 316.567 236.024C306.124 234.031 298.122 222.792 298.122 209.236C298.122 195.672 306.124 184.441 316.567 182.448C311.145 189.354 307.8 198.808 307.8 209.236ZM182.507 209.236C182.507 219.695 185.867 229.172 191.328 236.085C190.362 236.247 189.382 236.332 188.385 236.332C176.366 236.332 166.626 224.197 166.626 209.235C166.626 194.265 176.366 182.138 188.385 182.138C189.381 182.138 190.362 182.223 191.328 182.385C185.867 189.3 182.507 198.777 182.507 209.236Z" fill="#384948"/>
</g>
<defs>
<clipPath id="clip0_10_104">
<rect width="512" height="512" fill="white"/>
</clipPath>
</defs>
</svg>
