<svg width="512" height="512" viewBox="0 0 512 512" fill="none" xmlns="http://www.w3.org/2000/svg">
<g clip-path="url(#clip0_6_20)">
<path d="M369.321 485.595C453.857 443.791 512 356.692 512 256C512 114.615 397.385 0 256 0C114.615 0 0 114.615 0 256C0 356.692 58.143 443.791 142.679 485.595H369.321Z" fill="#1DD882"/>
<path d="M504.375 193.804L367.279 56.577L365.067 54.495L327.646 200.746L183.086 56.054L181.394 54.495L150.521 339.068L162.794 351.341L186.625 343.988L300.475 357.671L369.319 485.581C453.855 443.781 512 356.691 512 256C512 234.547 509.346 213.717 504.375 193.804Z" fill="#0CAA5F"/>
<path d="M204.579 137.021C204.579 196.753 186.484 264.023 164.163 264.023C141.842 264.023 123.747 196.753 123.747 137.021C123.747 77.289 141.842 47.713 164.163 47.713C186.484 47.713 204.579 77.289 204.579 137.021Z" fill="#E9EDF5"/>
<path d="M186.616 145.687C186.265 178.707 175.868 215.787 163.529 215.656C151.19 215.525 141.582 178.232 141.933 145.212C142.284 112.192 152.46 95.949 164.799 96.08C177.137 96.212 186.966 112.667 186.616 145.687ZM307.421 137.021C307.421 196.753 325.516 264.023 347.837 264.023C370.158 264.023 388.253 196.753 388.253 137.021C388.253 77.289 370.158 47.713 347.837 47.713C325.516 47.714 307.421 77.289 307.421 137.021Z" fill="#CDD2E1"/>
<path d="M325.384 145.687C325.735 178.707 336.132 215.787 348.471 215.656C360.81 215.525 370.418 178.232 370.067 145.212C369.716 112.192 359.54 95.949 347.201 96.08C334.863 96.212 325.034 112.667 325.384 145.687Z" fill="#AFB4C8"/>
<path d="M184.299 463.544C184.299 423.945 216.401 391.843 256 391.843C295.599 391.843 327.701 423.945 327.701 463.544V501.804C342.073 497.624 356.049 492.183 369.464 485.545L346.061 329.353H165.939L142.536 485.545C155.951 492.183 169.927 497.624 184.299 501.804V463.544Z" fill="#E9EDF5"/>
<path d="M256 391.843C295.599 391.843 327.701 423.945 327.701 463.544V501.804C342.073 497.624 356.049 492.183 369.464 485.545L346.061 329.353H255.986V391.844L256 391.843Z" fill="#CDD2E1"/>
<path d="M381.541 287.176C381.541 348.218 325.334 370.684 256 370.684C186.666 370.684 130.459 348.218 130.459 287.176C130.459 226.134 186.666 155.774 256 155.774C325.334 155.774 381.541 226.135 381.541 287.176Z" fill="white"/>
<path d="M256 155.774H255.986V370.684H256C325.334 370.684 381.541 348.217 381.541 287.176C381.541 226.135 325.334 155.774 256 155.774Z" fill="#E9EDF5"/>
<path d="M277.922 292.057H234.078C217.128 292.057 203.388 305.798 203.388 322.747C203.388 339.696 217.128 353.437 234.078 353.437C242.666 353.437 250.415 349.923 255.986 344.238C258.844 347.157 262.257 349.475 266.024 351.055C269.791 352.635 273.837 353.445 277.922 353.437C294.872 353.437 308.612 339.696 308.612 322.747C308.612 305.797 294.872 292.057 277.922 292.057Z" fill="#E9EDF5"/>
<path d="M277.922 292.057H255.986V344.239C255.991 344.234 255.981 344.244 255.986 344.239C258.844 347.158 262.257 349.476 266.024 351.055C269.792 352.635 273.837 353.445 277.922 353.437C294.872 353.437 308.612 339.697 308.612 322.747C308.612 305.797 294.872 292.057 277.922 292.057Z" fill="#CDD2E1"/>
<path d="M282.379 299.183C282.379 310.936 270.569 320.464 256 320.464C241.431 320.464 229.621 310.936 229.621 299.183C229.621 287.43 241.431 286.481 256 286.481C270.569 286.481 282.379 287.43 282.379 299.183Z" fill="#414952"/>
<path d="M256 286.481H255.986V320.463H256C270.569 320.463 282.379 310.935 282.379 299.182C282.379 287.429 270.569 286.481 256 286.481Z" fill="#23272B"/>
<path d="M198.375 259.432C199.891 250.017 193.488 241.155 184.073 239.638C174.658 238.122 165.797 244.525 164.28 253.94C162.764 263.355 169.167 272.217 178.582 273.733C187.997 275.25 196.858 268.847 198.375 259.432Z" fill="#555A66"/>
<path d="M347.578 259.466C349.095 250.051 342.692 241.189 333.277 239.673C323.862 238.156 315 244.559 313.484 253.974C311.967 263.389 318.37 272.251 327.785 273.767C337.2 275.284 346.062 268.881 347.578 259.466Z" fill="#333940"/>
<path d="M256 390.843C216.401 390.843 184.299 422.945 184.299 462.544V501.823C207.05 508.448 231.11 512 256 512C280.89 512 304.95 508.448 327.701 501.823V462.544C327.701 422.945 295.599 390.843 256 390.843Z" fill="white"/>
<path d="M256 390.843H255.986V512H256C280.89 512 304.95 508.448 327.701 501.823V462.544C327.701 422.945 295.599 390.843 256 390.843Z" fill="#E9EDF5"/>
</g>
<defs>
<clipPath id="clip0_6_20">
<rect width="512" height="512" fill="white"/>
</clipPath>
</defs>
</svg>
