<svg width="512" height="512" viewBox="0 0 512 512" fill="none" xmlns="http://www.w3.org/2000/svg">
<g clip-path="url(#clip0_8_2)">
<path d="M512 256C512 285.68 506.95 314.18 497.65 340.69C462.69 440.45 367.7 435.669 256 435.669C144.3 435.669 49.31 440.45 14.35 340.69C5.05 314.18 0 285.68 0 256C0 114.62 114.62 0 256 0C397.38 0 512 114.62 512 256Z" fill="#F5CF33"/>
<path d="M214.331 144.15C228.979 129.501 223.692 100.464 202.521 79.2926C181.35 58.1215 152.312 52.8339 137.664 67.4825C123.015 82.1311 128.303 111.169 149.474 132.34C170.645 153.511 199.682 158.798 214.331 144.15Z" fill="#6E8C8E"/>
<path d="M192.5 132.427C185.434 132.427 174.144 128.687 163.646 118.189C156.361 110.904 151.331 102.042 149.843 93.874C149.367 91.263 148.61 84.843 151.836 81.617C153.842 79.611 157.141 79.189 159.555 79.189C166.621 79.189 177.911 82.929 188.409 93.427C195.694 100.712 200.724 109.574 202.212 117.742C202.688 120.353 203.445 126.773 200.219 129.999C198.212 132.006 194.914 132.427 192.5 132.427Z" fill="#617F7F"/>
<path d="M362.45 132.356C383.621 111.185 388.908 82.1473 374.26 67.4988C359.611 52.8502 330.573 58.1378 309.402 79.3089C288.231 100.48 282.944 129.518 297.592 144.166C312.241 158.815 341.278 153.527 362.45 132.356Z" fill="#6E8C8E"/>
<path d="M319.5 132.427C326.566 132.427 337.856 128.687 348.354 118.189C355.639 110.904 360.669 102.042 362.157 93.874C362.633 91.263 363.39 84.843 360.164 81.617C358.158 79.611 354.859 79.189 352.445 79.189C345.379 79.189 334.089 82.929 323.591 93.427C316.306 100.712 311.276 109.574 309.788 117.742C309.312 120.353 308.555 126.773 311.781 129.999C313.788 132.006 317.086 132.427 319.5 132.427Z" fill="#617F7F"/>
<path d="M350.714 184.06C350.714 236.375 319.93 299.83 256 299.83C234.54 299.83 214.45 293.99 197.22 283.8C163.11 263.67 161.286 218.817 161.286 184.06C161.286 173.633 142.3 159.053 146.105 147.586C161.292 101.812 204.28 68.71 255.051 68.31C255.361 68.31 255.681 68.3 256.001 68.3C309.605 68.3 354.702 104.739 367.872 154.196C370.408 163.724 350.714 175.611 350.714 184.06Z" fill="#809CA0"/>
<path d="M197.22 283.8C163.11 263.67 145.6 226.54 145.6 184.06C145.6 175.165 141.243 166.503 143.143 158.183C154.831 107.007 200.438 68.74 255.049 68.31C205.44 70 173.65 202.77 197.22 283.8Z" fill="#6E8C8E"/>
<path d="M497.65 340.69C462.69 440.45 367.7 512 256 512C215.47 512 177.13 502.58 143.07 485.81C83.26 456.36 36.62 404.25 14.35 340.69L108.65 256L107.56 255.26C93.67 245.83 93.13 225.56 106.5 215.41L125.412 201.041C129.773 197.728 133.393 193.538 136.039 188.742C138.684 183.947 140.297 178.65 140.774 173.194C141.113 169.312 140.945 165.385 140.058 161.591C139.528 159.329 139.261 157.013 139.261 154.69C139.261 139.68 150.471 126.05 166.551 124.3L173.171 123.58C178.063 123.048 183.011 123.705 187.595 125.495C192.179 127.284 196.263 130.154 199.501 133.86L200.831 135.37C201.061 135.64 201.291 135.9 201.541 136.16C208.408 143.8 216.805 149.909 226.188 154.09C235.571 158.272 245.729 160.432 256.001 160.43C266.581 160.43 276.891 158.15 286.301 153.87C295.821 149.552 304.305 143.244 311.181 135.37L312.507 133.853C315.744 130.149 319.828 127.281 324.411 125.492C328.994 123.704 333.94 123.048 338.831 123.58L345.451 124.3C364.003 126.316 376.072 144.138 371.936 161.653C371.047 165.42 370.898 169.325 371.233 173.181C371.708 178.641 373.32 183.941 375.967 188.741C378.614 193.54 382.236 197.732 386.601 201.047L405.511 215.41C414.789 222.459 417.363 234.388 413.419 244.178C410.05 252.54 411.886 262.084 418.532 268.175L497.65 340.69Z" fill="#6E8C8E"/>
<path d="M143.07 485.81C83.26 456.36 36.62 404.25 14.35 340.69L93.47 268.174C100.115 262.083 101.952 252.539 98.583 244.178C94.638 234.388 97.215 222.458 106.5 215.409L125.576 200.916C129.886 197.642 133.463 193.502 136.077 188.763C138.691 184.024 140.285 178.79 140.756 173.398L140.784 173.078C141.116 169.272 140.969 165.418 140.084 161.702C139.537 159.404 139.26 157.051 139.26 154.689C139.26 139.679 150.47 126.049 166.55 124.299L173.17 123.579C178.062 123.047 183.01 123.704 187.594 125.494C192.178 127.283 196.262 130.153 199.5 133.859L200.83 135.369C201.06 135.639 201.29 135.899 201.54 136.159C186.23 186.829 183.82 254.729 202.64 299.179C232.77 370.32 154.56 394.97 143.07 485.81Z" fill="#617F7F"/>
<path d="M364.05 417.43L349.36 420.42C288.713 432.79 226.212 432.98 165.49 420.98C164.54 420.8 163.59 420.61 162.64 420.42L147.95 417.43C116.22 410.96 95.36 381.22 99.14 349.87H412.86C416.64 381.22 395.78 410.96 364.05 417.43Z" fill="#617F7F"/>
<path d="M206.5 349.87C199.38 373.38 180.9 394 165.49 420.98C164.54 420.8 163.59 420.61 162.64 420.42L147.95 417.43C116.22 410.96 95.36 381.22 99.14 349.87H206.5Z" fill="#516666"/>
<path d="M140.596 407.007L126.764 401.839C118.459 398.736 114.243 389.488 117.346 381.184L128.133 352.315L172.039 368.721L161.252 397.59C158.148 405.894 148.901 410.111 140.596 407.007ZM371.404 407.007L385.236 401.839C393.541 398.736 397.757 389.488 394.654 381.184L383.867 352.315L339.961 368.721L350.748 397.59C353.852 405.894 363.099 410.111 371.404 407.007Z" fill="#FFF9F1"/>
<path d="M303.76 239.96L256 299.18L208.24 239.96L227.74 208.31C231.227 202.642 234.144 196.642 236.448 190.399C239.484 182.173 247.231 176.64 255.999 176.64C264.767 176.64 272.515 182.173 275.55 190.399C277.854 196.642 280.771 202.642 284.258 208.31L303.76 239.96Z" fill="#617F7F"/>
<path d="M412.86 349.87L404.62 359.18C379.68 387.37 340.47 398.23 304.57 386.9L276.03 377.88C262.993 373.77 249.007 373.77 235.97 377.88L207.43 386.9C201.931 388.639 196.284 389.871 190.56 390.58C159.72 394.45 128.45 383 107.38 359.18L99.14 349.87C99.43 347.47 99.86 345.06 100.44 342.66L112.5 292.84C122.74 250.56 167 226.11 208.24 239.96L228.54 246.78C246.358 252.76 265.642 252.76 283.46 246.78L303.76 239.96C345 226.11 389.26 250.56 399.5 292.84L411.56 342.66C412.14 345.06 412.57 347.47 412.86 349.87Z" fill="#809CA0"/>
<path d="M225.456 286.898C230.202 280.844 226.351 269.899 216.853 262.452C207.355 255.005 195.807 253.875 191.06 259.929C186.313 265.982 190.165 276.927 199.663 284.374C209.161 291.822 220.709 292.952 225.456 286.898Z" fill="#384948"/>
<path d="M312.362 284.27C321.86 276.823 325.712 265.878 320.965 259.824C316.218 253.77 304.671 254.9 295.173 262.348C285.675 269.795 281.823 280.74 286.57 286.794C291.317 292.847 302.864 291.717 312.362 284.27Z" fill="#384948"/>
<path d="M170.14 199.082C180.391 199.082 188.701 189.034 188.701 176.64C188.701 164.246 180.391 154.198 170.14 154.198C159.889 154.198 151.579 164.246 151.579 176.64C151.579 189.034 159.889 199.082 170.14 199.082Z" fill="#516666"/>
<path d="M179.413 196.076C176.686 197.987 173.511 199.083 170.138 199.083C159.882 199.083 151.579 189.035 151.579 176.64C151.579 164.245 159.882 154.197 170.138 154.197C173.511 154.197 176.686 155.293 179.413 157.204C173.872 161.083 170.138 168.334 170.138 176.64C170.138 184.946 173.872 192.197 179.413 196.076Z" fill="#384948"/>
<path d="M341.86 199.082C352.111 199.082 360.421 189.034 360.421 176.64C360.421 164.246 352.111 154.198 341.86 154.198C331.609 154.198 323.299 164.246 323.299 176.64C323.299 189.034 331.609 199.082 341.86 199.082Z" fill="#516666"/>
<path d="M351.133 196.076C348.406 197.987 345.231 199.083 341.858 199.083C331.602 199.083 323.299 189.035 323.299 176.64C323.299 164.245 331.602 154.197 341.858 154.197C345.231 154.197 348.406 155.293 351.133 157.204C345.592 161.083 341.858 168.334 341.858 176.64C341.858 184.946 345.592 192.197 351.133 196.076Z" fill="#384948"/>
<path d="M190.56 390.58C159.72 394.45 128.45 383 107.38 359.18L99.14 349.87C99.43 347.47 99.86 345.06 100.44 342.66L112.5 292.84C122.74 250.56 167 226.11 208.24 239.96C166.73 233.17 152.26 348.33 190.56 390.58Z" fill="#6E8C8E"/>
</g>
<defs>
<clipPath id="clip0_8_2">
<rect width="512" height="512" fill="white"/>
</clipPath>
</defs>
</svg>
