<svg width="512" height="512" viewBox="0 0 512 512" fill="none" xmlns="http://www.w3.org/2000/svg">
<g clip-path="url(#clip0_7_42)">
<path d="M512 256C512 361.16 448.58 451.52 357.91 490.91C326.68 504.48 292.22 488.058 256 488.058C244.99 488.058 234.14 487.358 223.49 486.008C199.06 482.918 175.71 500.321 153.93 490.841C63.34 451.41 0 361.1 0 256C0 114.62 114.62 0 256 0C397.38 0 512 114.62 512 256Z" fill="#F97855"/>
<path d="M357.91 490.91C326.68 504.48 292.22 512 256 512C219.72 512 185.2 504.45 153.93 490.84L183.34 442.02L207.94 401.18H303.85L328.47 442.04L357.91 490.91Z" fill="#FFF9F1"/>
<path d="M233.83 401.18L223.49 509.95C199.512 506.922 176.089 500.487 153.93 490.84L207.94 401.18H233.83Z" fill="#F7EADC"/>
<path d="M322.161 131.434L296.044 189.267L315.435 205.381L320.437 209.538C411.846 163.455 454.811 68.103 471.606 18.765C475.655 6.876 463.366 -4.001 452.044 1.445L452.028 1.453L384.22 42.38C346.784 60.378 330.836 90.807 322.161 131.434Z" fill="#FFE5BF"/>
<path d="M309.15 127.944L296.044 189.266L315.435 205.38C338.136 88.055 450.426 2.66799 452.029 1.45099L382.258 34.992C363.784 43.8755 347.59 56.8717 334.917 72.9841C322.245 89.0965 313.43 107.897 309.15 127.944Z" fill="#FFF9F1"/>
<path d="M194.42 131.434L219.928 189.267L200.537 205.381L195.535 209.538C104.125 163.454 61.16 68.102 44.365 18.764C40.316 6.87499 52.605 -4.00201 63.927 1.44399L63.943 1.45199L132.851 48.592C170.286 66.59 185.745 90.807 194.42 131.434Z" fill="#FFD797"/>
<path d="M206.822 127.944L219.928 189.266L200.537 205.38C177.836 88.055 65.546 2.66799 63.942 1.45099L133.713 34.992C152.187 43.8753 168.382 56.8715 181.054 72.9839C193.727 89.0963 202.542 107.897 206.822 127.944ZM303.85 401.18H207.94L183.34 442.02C183.9 442.04 184.47 442.05 185.03 442.06C193.75 442.16 202.14 440.73 209.92 438.03C241.058 427.26 274.912 427.26 306.05 438.03C313.268 440.528 320.833 441.881 328.47 442.04L303.85 401.18Z" fill="#F7EADC"/>
<path d="M356.084 241.359L356.289 240.228C364.371 195.593 330.074 154.528 284.713 154.528H231.26C220.576 154.528 212.997 161.419 203.95 165.485C174.585 178.682 153.505 206.105 159.684 240.228L159.889 241.359C163.623 261.981 155.523 282.74 139.324 296.036C122.341 309.976 111.722 331.383 112.492 355.243C113.751 394.292 146.813 420.097 185.88 420.543C194.608 420.643 195.035 422.299 202.821 419.602C204.362 419.068 213.011 421.181 214.565 420.7C244.372 411.477 276.499 411.984 306.051 422.222C314.055 424.99 322.478 426.35 330.947 426.243C370.014 425.797 402.223 394.292 403.482 355.243C404.251 331.383 393.633 309.975 376.65 296.036C360.449 282.74 352.35 261.981 356.084 241.359Z" fill="#FFF9F1"/>
<path d="M253.348 154.52H231.266C185.903 154.52 151.602 195.589 159.685 240.226L159.895 241.352C163.621 261.981 155.527 282.737 139.329 296.03C122.342 309.976 111.722 331.384 112.49 355.244C113.753 394.292 145.96 425.794 185.029 426.236C193.754 426.341 202.143 424.92 209.921 422.215C211.458 421.678 213.006 421.173 214.563 420.699C200.838 409.974 190.966 384.766 190.461 355.244C190.061 331.384 195.681 309.976 204.67 296.03C213.248 282.737 217.532 261.981 215.564 241.352L215.448 240.226C211.174 195.589 229.33 154.52 253.348 154.52Z" fill="#F7EADC"/>
<path d="M157.698 284.977C169.272 284.977 178.654 271.087 178.654 253.952C178.654 236.817 169.272 222.927 157.698 222.927C146.124 222.927 136.742 236.817 136.742 253.952C136.742 271.087 146.124 284.977 157.698 284.977Z" fill="#516666"/>
<path d="M168.167 280.82C165.088 283.462 161.503 284.978 157.695 284.978C146.116 284.978 136.742 271.087 136.742 253.951C136.742 236.815 146.116 222.925 157.695 222.925C161.503 222.925 165.087 224.44 168.167 227.083C161.911 232.445 157.695 242.47 157.695 253.952C157.695 265.434 161.911 275.458 168.167 280.82Z" fill="#384948"/>
<path d="M358.274 284.977C369.848 284.977 379.23 271.087 379.23 253.952C379.23 236.817 369.848 222.927 358.274 222.927C346.7 222.927 337.318 236.817 337.318 253.952C337.318 271.087 346.7 284.977 358.274 284.977Z" fill="#516666"/>
<path d="M368.743 280.82C365.664 283.462 362.079 284.978 358.271 284.978C346.692 284.978 337.318 271.087 337.318 253.951C337.318 236.815 346.692 222.925 358.271 222.925C362.079 222.925 365.663 224.44 368.743 227.083C362.487 232.445 358.271 242.47 358.271 253.952C358.271 265.434 362.487 275.458 368.743 280.82Z" fill="#384948"/>
<path d="M311.717 328.154C309.795 328.151 307.947 327.411 306.555 326.086C305.163 324.76 304.333 322.951 304.236 321.032C304.14 319.112 304.784 317.228 306.035 315.77C307.287 314.311 309.051 313.389 310.963 313.193L420.2 302.016C422.179 301.814 424.157 302.406 425.699 303.662C427.241 304.918 428.222 306.735 428.424 308.714C428.524 309.694 428.431 310.684 428.148 311.627C427.866 312.571 427.401 313.45 426.779 314.213C426.157 314.977 425.39 315.611 424.523 316.078C423.656 316.546 422.706 316.838 421.726 316.938L312.49 328.114C312.23 328.141 311.973 328.154 311.717 328.154ZM426.543 378.362C425.947 378.361 425.353 378.29 424.774 378.15L320.49 352.942C318.565 352.467 316.906 351.249 315.876 349.554C314.847 347.859 314.53 345.826 314.996 343.898C315.462 341.971 316.672 340.306 318.362 339.269C320.052 338.231 322.084 337.905 324.014 338.362L428.298 363.57C430.083 363.999 431.649 365.069 432.699 366.576C433.748 368.083 434.208 369.922 433.992 371.746C433.775 373.569 432.898 375.25 431.525 376.469C430.152 377.689 428.379 378.362 426.543 378.362ZM200.074 328.154C199.816 328.154 199.558 328.141 199.302 328.114L90.065 316.938C89.0817 316.842 88.127 316.553 87.2557 316.087C86.3845 315.621 85.6139 314.988 84.9881 314.224C84.3624 313.459 83.8938 312.578 83.6095 311.632C83.3251 310.686 83.2304 309.693 83.3309 308.71C83.4314 307.727 83.7251 306.774 84.1951 305.905C84.6652 305.036 85.3022 304.269 86.0698 303.647C86.8373 303.025 87.7202 302.56 88.6677 302.28C89.6152 302.001 90.6087 301.911 91.591 302.016L200.827 313.193C202.806 313.395 204.623 314.376 205.879 315.918C207.135 317.46 207.727 319.438 207.525 321.417C207.336 323.263 206.47 324.973 205.094 326.217C203.718 327.461 201.929 328.151 200.074 328.154ZM85.249 378.362C83.5673 378.36 81.935 377.793 80.6142 376.752C79.2933 375.711 78.3603 374.257 77.965 372.622C77.4977 370.689 77.8176 368.649 78.8543 366.951C79.891 365.254 81.5596 364.037 83.493 363.57L187.776 338.362C191.799 337.39 195.855 339.863 196.828 343.89C197.801 347.917 195.327 351.969 191.3 352.942L87.018 378.15C86.4388 378.29 85.845 378.362 85.249 378.362Z" fill="#FFE5BF"/>
<path d="M288.038 282.547C287.256 281.765 286.328 281.145 285.306 280.722C284.285 280.298 283.19 280.081 282.084 280.081C280.978 280.081 279.883 280.298 278.862 280.722C277.84 281.145 276.912 281.765 276.13 282.547L257.985 300.692L239.84 282.547C238.261 280.968 236.119 280.081 233.886 280.081C231.653 280.081 229.511 280.968 227.932 282.547C226.353 284.126 225.466 286.268 225.466 288.501C225.466 290.734 226.353 292.876 227.932 294.455L249.565 316.088V344.505C249.565 346.738 250.452 348.88 252.031 350.459C253.61 352.038 255.752 352.925 257.985 352.925C260.218 352.925 262.36 352.038 263.939 350.459C265.518 348.88 266.405 346.738 266.405 344.505V316.088L288.037 294.455C288.819 293.673 289.44 292.745 289.863 291.724C290.287 290.702 290.505 289.607 290.505 288.501C290.505 287.395 290.287 286.3 289.864 285.279C289.44 284.257 288.82 283.329 288.038 282.547Z" fill="#FFD797"/>
<path d="M282.085 367.055C280.979 367.056 279.884 366.839 278.862 366.416C277.84 365.993 276.912 365.372 276.131 364.589C266.126 354.584 249.845 354.585 239.841 364.589C238.262 366.168 236.12 367.055 233.887 367.055C231.654 367.055 229.512 366.168 227.933 364.589C226.354 363.01 225.467 360.868 225.467 358.635C225.467 356.402 226.354 354.26 227.933 352.681C244.504 336.109 271.468 336.11 288.038 352.681C288.82 353.463 289.44 354.391 289.864 355.413C290.287 356.434 290.505 357.529 290.505 358.635C290.505 359.741 290.287 360.836 289.864 361.857C289.44 362.879 288.82 363.807 288.038 364.589C287.257 365.372 286.329 365.993 285.308 366.416C284.286 366.839 283.191 367.056 282.085 367.055Z" fill="#FFD797"/>
</g>
<defs>
<clipPath id="clip0_7_42">
<rect width="512" height="512" fill="white"/>
</clipPath>
</defs>
</svg>
