<svg width="512" height="512" viewBox="0 0 512 512" fill="none" xmlns="http://www.w3.org/2000/svg">
<g clip-path="url(#clip0_10_22)">
<path d="M512 256C512 397.387 397.387 512 256 512C114.613 512 0 397.387 0 256C0 114.613 114.613 0 256 0C397.387 0 512 114.613 512 256Z" fill="#1EA1E3"/>
<path d="M452 91.336L392.32 412.152L426.82 446.652C479.098 399.785 512 331.738 512 256C512 193.285 489.437 135.852 452 91.336Z" fill="#0053BF"/>
<path d="M452 420.664V91.336C433.538 69.379 411.532 50.665 386.895 35.969V243.05C354.949 164.746 307.883 115.92 256 115.92C168.7 115.92 95.035 254.144 84.098 438.472L83.691 445.327C129.176 486.746 189.637 512 256 512C334.672 512 405.04 476.504 452 420.664Z" fill="#DCE1EB"/>
<path d="M386.895 35.969V243.05C354.949 164.746 307.883 115.92 256 115.92C255.906 115.92 255.809 115.929 255.715 115.929V511.995C255.809 511.995 255.902 511.999 256 511.999C334.672 511.999 405.04 476.503 452 420.663V91.336C433.538 69.379 411.532 50.665 386.895 35.969Z" fill="#CDD2E1"/>
<path d="M256 512C300.195 512 341.773 500.8 378.055 481.086L377.254 468.809C369.539 350.437 317.578 261.672 256 261.672C194.422 261.672 142.46 350.437 134.746 468.809L133.946 481.086C170.225 500.8 211.804 512 256 512Z" fill="#BEC3D2"/>
<path d="M378.055 481.086L377.254 468.809C369.539 350.437 317.578 261.672 256 261.672C255.906 261.672 255.809 261.68 255.715 261.68V511.996C255.809 511.996 255.902 512 256 512C300.195 512 341.773 500.8 378.055 481.086Z" fill="#AFB4C8"/>
<path d="M98.055 214.367C98.055 144.63 168.77 88.094 256 88.094C343.23 88.094 413.945 144.629 413.945 214.367C413.945 284.109 255.715 371.832 255.715 371.832C255.715 371.832 98.055 284.109 98.055 214.367Z" fill="#CDD2E1"/>
<path d="M255.715 371.832C255.715 371.832 413.945 284.109 413.945 214.367C413.945 144.629 343.23 88.094 256 88.094C255.902 88.094 255.809 88.098 255.715 88.098V371.84V371.832Z" fill="#BEC3D2"/>
<path d="M125.105 214.367C125.105 156.57 183.707 109.719 256 109.719C328.293 109.719 386.895 156.57 386.895 214.367C386.895 272.164 255.715 308.937 255.715 308.937C255.715 308.937 125.105 272.164 125.105 214.367Z" fill="white"/>
<path d="M255.715 308.938C255.715 308.938 386.895 272.164 386.895 214.368C386.895 156.574 328.293 109.718 256 109.718C255.906 109.718 255.809 109.723 255.715 109.723V308.938Z" fill="#F2F6FC"/>
<path d="M220.035 164.121C212.094 144.469 188.043 134.363 166.316 141.547L119 161.407C116.879 168.75 103.004 176.355 103.004 184.152C103.004 203.301 109.73 221.312 121.566 237.02L195.074 212.71C216.801 205.527 227.977 183.773 220.035 164.121Z" fill="#CDD2E1"/>
<path d="M291.965 164.121C299.906 144.469 323.957 134.363 345.684 141.547L391 161.407C393.121 168.75 408.996 176.355 408.996 184.152C408.996 203.301 402.27 221.312 390.434 237.02L316.926 212.71C295.199 205.527 284.023 183.773 291.965 164.121Z" fill="#BEC3D2"/>
<path d="M206.758 171.938C206.758 178.805 201.191 184.368 194.328 184.368C187.465 184.368 181.898 178.805 181.898 171.938C181.898 165.074 187.465 159.508 194.328 159.508C201.191 159.508 206.758 165.074 206.758 171.938Z" fill="#555A66"/>
<path d="M330.102 171.938C330.102 178.805 324.535 184.368 317.672 184.368C310.809 184.368 305.242 178.805 305.242 171.938C305.242 165.074 310.809 159.508 317.672 159.508C324.535 159.508 330.102 165.074 330.102 171.938Z" fill="#333940"/>
<path d="M262.656 215L273.41 210.863C276.649 209.617 279.435 207.418 281.4 204.557C283.365 201.696 284.417 198.307 284.418 194.836C284.418 185.356 276.73 177.664 267.246 177.664H244.754C235.27 177.664 227.582 185.355 227.582 194.836C227.582 198.307 228.634 201.697 230.599 204.558C232.564 207.419 235.35 209.617 238.59 210.863L249.344 215H218V229H294V215H262.656Z" fill="#555A66"/>
<path d="M294 215H262.656L273.41 210.863C276.649 209.617 279.435 207.418 281.4 204.557C283.365 201.696 284.417 198.307 284.418 194.836C284.418 185.356 276.73 177.664 267.246 177.664H255.715V229H294V215Z" fill="#333940"/>
</g>
<defs>
<clipPath id="clip0_10_22">
<rect width="512" height="512" fill="white"/>
</clipPath>
</defs>
</svg>
