<svg width="512" height="512" viewBox="0 0 512 512" fill="none" xmlns="http://www.w3.org/2000/svg">
<g clip-path="url(#clip0_6_57)">
<path d="M512 256C512 397.387 397.387 512 256 512C114.613 512 0 397.387 0 256C0 114.613 114.613 0 256 0C397.387 0 512 114.613 512 256Z" fill="#FE6A16"/>
<path d="M511.883 263.516L382.69 134.324L350.417 381.441L420.831 451.855C474.788 406.398 509.702 339.063 511.881 263.515L511.883 263.516Z" fill="#D84707"/>
<path d="M256 512C330.848 512 398.188 479.871 445 428.664L420.965 226.277C410.559 138.676 340.485 72.984 257.437 72.984C174.389 72.984 104.317 138.676 93.914 226.277L69.551 431.402C116.242 481.016 182.496 512 256 512Z" fill="#DCE1EB"/>
<path d="M420.965 226.277C410.559 138.676 340.485 72.984 257.438 72.984C256.785 72.984 256.137 73 255.484 73.008V511.992C255.656 511.992 255.828 512 256 512C330.848 512 398.188 479.871 445 428.664L420.965 226.277Z" fill="#CDD2E1"/>
<path d="M297 206.648H215C192.355 206.648 174 225.004 174 247.648C174 270.293 192.355 288.648 215 288.648C237.645 288.648 256 270.293 256 247.648C256 270.293 274.355 288.648 297 288.648C319.645 288.648 338 270.293 338 247.648C338 225.004 319.645 206.648 297 206.648Z" fill="white"/>
<path d="M297 206.648H255.484V254.133C255.82 252.02 256 249.855 256 247.648C256 270.293 274.355 288.648 297 288.648C319.645 288.648 338 270.293 338 247.648C338 225.004 319.645 206.648 297 206.648Z" fill="#F2F6FC"/>
<path d="M22.023 360C61.891 449.555 151.648 512 256 512C360.352 512 450.11 449.555 489.977 360H22.023Z" fill="#1EA1E3"/>
<path d="M255.484 360V511.996C255.656 511.996 255.828 512 256 512C360.352 512 450.11 449.555 489.977 360H255.484Z" fill="#0053BF"/>
<path d="M274.48 234.27L262.543 238.863C258.331 240.48 253.669 240.48 249.457 238.863L237.52 234.27C234.081 232.948 231.124 230.614 229.038 227.577C226.952 224.54 225.836 220.942 225.836 217.258C225.836 207.191 233.996 199.031 244.063 199.031H267.938C278.004 199.031 286.164 207.191 286.164 217.258C286.164 220.942 285.048 224.54 282.962 227.577C280.876 230.614 277.919 232.948 274.48 234.27Z" fill="#555A66"/>
<path d="M267.938 199.031H255.484V240.055C257.875 240.121 260.274 239.735 262.543 238.863L274.48 234.27C277.919 232.948 280.876 230.614 282.962 227.577C285.048 224.54 286.164 220.942 286.164 217.258C286.164 207.191 278.004 199.031 267.938 199.031Z" fill="#333940"/>
<path d="M183.684 200.883C183.684 209.359 176.813 216.23 168.34 216.23C159.863 216.23 152.992 209.36 152.992 200.883C152.992 192.41 159.863 185.539 168.34 185.539C176.812 185.539 183.684 192.41 183.684 200.883Z" fill="#555A66"/>
<path d="M359.008 200.883C359.008 209.359 352.137 216.23 343.66 216.23C335.188 216.23 328.316 209.36 328.316 200.883C328.316 192.41 335.188 185.539 343.66 185.539C352.137 185.539 359.008 192.41 359.008 200.883Z" fill="#333940"/>
<path d="M297 225.824H386V244.824H297V225.824ZM294.184 275.945L297.364 257.215L379.656 271.188L376.476 289.918L294.184 275.945Z" fill="#9196AA"/>
<path d="M126 225.824H215V244.824H126V225.824ZM130.242 271.563L214.645 257.223L217.825 275.957L133.422 290.297L130.242 271.563Z" fill="#AFB4C8"/>
</g>
<defs>
<clipPath id="clip0_6_57">
<rect width="512" height="512" fill="white"/>
</clipPath>
</defs>
</svg>
