<svg width="512" height="512" viewBox="0 0 512 512" fill="none" xmlns="http://www.w3.org/2000/svg">
<g clip-path="url(#clip0_10_2)">
<path d="M511.978 255.984C511.978 315.263 492.026 369.226 458.841 412.165C451.42 421.765 443.337 430.817 434.667 439.25L77.2906 439.271C56.0791 418.905 38.9447 395.082 26.259 369.164C-3.09659 309.235 -8.7014 238.075 13.9243 172.5C18.7997 158.371 24.9134 144.7 32.1941 131.646C45.6467 107.496 62.9064 85.6739 83.3083 67.0203C88.0151 62.7264 92.8665 58.6079 97.8829 54.665H97.8932C141.421 20.4168 196.323 0 255.994 0C329.012 0 394.897 30.5736 441.521 79.6234C471.093 110.713 492.934 149.245 503.938 192.102C509.191 212.529 511.978 233.926 511.978 255.984Z" fill="#755377"/>
<path d="M503.938 192.102C500.469 195.064 497.073 198.078 494.059 201.34C480.961 215.532 474.788 235.856 477.802 254.931C481.105 275.874 494.648 296.9 487.164 316.739C482.354 329.456 470.03 337.641 462.485 348.943C450.336 367.131 451.905 391.428 458.841 412.165C451.42 421.765 443.337 430.817 434.667 439.25L77.2906 439.271C56.0791 418.905 38.9447 395.082 26.259 369.164C24.5559 341.501 8.69106 313.322 19.6117 288.003C26.001 273.17 40.72 262.559 44.7662 246.932C51.2794 221.715 28.0034 199.864 15.9887 176.753C15.2558 175.349 14.5746 173.935 13.9243 172.5C18.7997 158.371 24.9134 144.7 32.1941 131.646C45.6467 107.496 62.9064 85.6739 83.3083 67.0203C107.699 69.766 130.882 79.1589 155.066 83.4425C174.585 86.89 194.692 86.9623 214.232 83.6593C233.668 80.3563 253.022 73.7193 272.623 75.8869C293.215 78.1474 311.753 89.935 332.263 92.8561C360.215 96.8301 387.578 84.0412 415.551 80.1911C424.097 79.0144 432.84 78.8389 441.521 79.6234C471.094 110.713 492.934 149.245 503.938 192.102Z" fill="#5B3C5C"/>
<path d="M434.689 439.25C404.807 468.317 367.968 490.075 327.227 501.904L185.435 502.1C181.251 500.903 177.1 499.596 172.986 498.178C137.004 485.843 104.335 465.633 77.2917 439.281V439.271C103.675 366.098 173.719 313.787 255.994 313.787C279.786 313.787 302.557 318.163 323.541 326.163C375.121 345.785 415.934 387.248 434.689 439.25Z" fill="#FBB53A"/>
<path d="M343.422 418.173C339.449 425.685 331.191 429.857 323.14 432.551C303.187 439.219 281.697 438.785 260.661 438.785H244.084C225.463 437.072 204.076 437.206 190.245 449.799C181.068 458.149 177.198 470.804 175.154 483.046C174.318 488.052 173.719 493.13 172.986 498.178C137.004 485.843 104.335 465.633 77.2917 439.281V439.271C103.675 366.098 173.719 313.787 255.994 313.787C279.786 313.787 302.557 318.163 323.541 326.163C323.768 326.958 323.995 327.721 324.243 328.434C326.472 334.957 328.64 341.512 330.766 348.076C335.009 361.206 341.119 381.386 343.442 394.99C344.546 401.455 346.728 411.92 343.422 418.173ZM181.884 173.708L135.92 252.836C130.088 262.869 115.194 261.259 111.56 250.245C106.358 234.442 98.3587 219.558 90.1631 206.893C82.5868 195.167 74.8557 185.351 69.0135 178.466C63.8215 172.356 65.7105 162.983 72.8945 159.402C89.2445 151.237 118.734 141.823 152.477 155.758C162.003 159.691 171.871 165.492 181.884 173.708Z" fill="#F79F16"/>
<path d="M181.884 173.708L135.92 252.836C130.088 262.869 115.194 261.259 111.561 250.245C106.358 234.442 98.3587 219.558 90.1631 206.893C95.4067 201.711 100.919 196.839 105.894 192.236C120.396 178.797 135.218 165.337 152.477 155.758C162.003 159.691 171.871 165.492 181.884 173.708Z" fill="#F38800"/>
<path d="M400.426 250.245C410.45 219.82 430.83 192.785 442.974 178.471C448.163 172.355 446.274 162.986 439.098 159.404C418.122 148.93 375.54 136.416 330.102 173.705L376.072 252.839C381.898 262.867 396.797 261.261 400.426 250.245Z" fill="#FBB53A"/>
<path d="M330.106 173.708L376.069 252.836C381.901 262.869 396.796 261.259 400.429 250.245C405.631 234.442 413.631 219.558 421.827 206.893C416.583 201.711 411.071 196.839 406.096 192.236C391.594 178.797 376.771 165.337 359.513 155.758C349.987 159.691 340.118 165.492 330.106 173.708Z" fill="#F79F16"/>
<path d="M445.918 297.272C443.214 334.1 398.53 373.014 343.442 394.99C315.594 406.096 285.092 412.877 255.994 412.877C169.342 412.877 70.1479 352.711 66.0707 297.272L66.081 297.261C67.1029 295.713 151.001 168.826 230.757 144.425C239.252 141.813 247.706 140.378 255.994 140.378C342.172 140.378 444.783 295.548 445.908 297.261L445.918 297.272Z" fill="#FBB53A"/>
<path d="M343.442 394.99C315.594 406.096 285.092 412.877 255.994 412.877C169.342 412.877 70.1479 352.711 66.0707 297.272L66.081 297.261C67.1029 295.713 151.001 168.826 230.757 144.425C225.008 152.827 221.147 162.56 219.351 172.531C217.772 181.284 217.813 190.347 219.671 199.048C223.625 217.493 235 234.7 233.544 253.507C232.945 261.269 230.086 268.845 225.39 275.059C217.081 286.062 203.425 292.668 196.984 304.869C187.374 323.066 198.821 346.858 216.668 357.098C234.514 367.347 256.387 367.203 276.845 364.932C296.508 362.733 319.216 359.761 333.543 373.417C339.448 379.042 342.699 386.846 343.442 394.99Z" fill="#F79F16"/>
<path d="M327.226 501.904C302.839 508.991 277.527 512.383 252.134 511.968C244.021 511.854 235.97 511.349 228.022 510.471C213.613 508.899 199.365 506.099 185.434 502.1C199.678 475.191 226.112 457.117 256.376 457.117C286.569 457.117 312.952 475.108 327.226 501.904Z" fill="#E0E7F9"/>
<path d="M344.725 277.199C342.041 290.614 332.634 281.095 319.218 278.412C305.803 275.728 293.458 280.894 296.143 267.478C298.826 254.063 311.878 245.364 325.294 248.047C338.709 250.731 347.408 263.783 344.725 277.199ZM167.263 277.214C169.946 290.631 179.353 281.113 192.769 278.431C206.186 275.748 218.53 280.918 215.847 267.501C213.164 254.085 200.114 245.383 186.699 248.066C173.283 250.748 164.581 263.799 167.263 277.214Z" fill="#5D6A85"/>
<path d="M445.918 297.272C443.214 334.1 398.53 373.014 343.442 394.99C315.594 406.096 285.092 412.877 255.994 412.877C169.342 412.877 70.1479 352.711 66.0707 297.272L66.081 297.261C66.721 296.879 92.1656 281.799 123.977 289.014C154.488 295.94 162.261 311.568 193.609 316.44C199.647 317.379 206.573 317.916 214.707 317.916H297.282C347.581 317.916 351.617 297.272 388.012 289.014C419.824 281.799 445.268 296.879 445.908 297.261L445.918 297.272Z" fill="#E0E7F9"/>
<path d="M343.442 394.99C315.594 406.096 285.092 412.877 255.994 412.877C169.342 412.877 70.1479 352.711 66.0707 297.272L66.081 297.261C66.721 296.879 92.1656 281.799 123.977 289.014C154.488 295.94 162.261 311.568 193.609 316.44C192.267 332.139 202.434 348.933 216.668 357.098C234.514 367.347 256.387 367.203 276.845 364.932C296.508 362.733 319.216 359.761 333.543 373.417C339.448 379.042 342.699 386.846 343.442 394.99Z" fill="#CDD9F8"/>
<path d="M313.797 388.105C313.797 429.149 287.918 429.393 255.994 429.393C224.071 429.393 198.191 429.149 198.191 388.105C198.191 347.061 224.071 313.787 255.994 313.787C287.918 313.787 313.797 347.061 313.797 388.105Z" fill="#FBB53A"/>
<path d="M283.569 374.353C280.537 372.809 276.817 374.017 275.249 377.037C274.076 379.29 269.969 385.721 262.187 383.843L262.186 355.075C262.186 353.432 261.534 351.857 260.373 350.695C259.211 349.534 257.636 348.881 255.993 348.881C254.351 348.881 252.775 349.534 251.614 350.695C250.453 351.857 249.8 353.432 249.8 355.075L249.801 383.843C242.029 385.719 237.92 379.302 236.744 377.042C236.005 375.575 234.713 374.462 233.153 373.947C231.593 373.433 229.893 373.559 228.426 374.299C226.959 375.038 225.846 376.33 225.332 377.89C224.817 379.449 224.944 381.15 225.683 382.617C228.982 389.215 236.732 396.582 247.153 396.582C249.922 396.582 252.881 396.054 255.994 394.86C259.107 396.054 262.067 396.582 264.836 396.582C275.255 396.582 283.007 389.215 286.306 382.617C287.827 379.575 286.6 375.898 283.569 374.353Z" fill="#5D6A85"/>
<path d="M297.282 317.916C297.282 338.397 278.839 355.075 255.994 355.075C233.193 355.075 214.707 338.436 214.707 317.916C214.707 296.888 234.563 297.272 255.994 297.272C278.795 297.272 297.282 297.396 297.282 317.916Z" fill="#5D6A85"/>
<path d="M279.942 348.19C273.192 352.525 264.924 355.075 255.995 355.075C233.194 355.075 214.708 338.436 214.708 317.916C214.708 298.624 231.047 297.354 251.959 297.282C252.145 302.195 250.948 307.459 251.629 312.146C253.012 321.642 258.204 330.539 265.801 336.413C269.053 338.921 272.696 340.892 275.824 343.545C277.392 344.876 278.848 346.445 279.942 348.19Z" fill="#525E77"/>
</g>
<defs>
<clipPath id="clip0_10_2">
<rect width="512" height="512" fill="white"/>
</clipPath>
</defs>
</svg>
