<svg width="512" height="512" viewBox="0 0 512 512" fill="none" xmlns="http://www.w3.org/2000/svg">
<g clip-path="url(#clip0_7_124)">
<path d="M256 512C397.385 512 512 397.385 512 256C512 114.615 397.385 0 256 0C114.615 0 0 114.615 0 256C0 397.385 114.615 512 256 512Z" fill="#FF6C52"/>
<path d="M512 256C512 245.387 511.354 234.925 510.099 224.651L420.723 135.275L58.507 318.063L252.419 511.975C253.611 511.991 254.804 512 256 512C397.385 512 512 397.385 512 256Z" fill="#F92814"/>
<path d="M104.231 222.691L46.359 205.7L58.507 318.064L127.826 280.923L104.231 222.691Z" fill="#FDBA12"/>
<path d="M407.769 222.691L465.641 205.7L453.493 318.064L384.174 280.923L407.769 222.691Z" fill="#FFA300"/>
<path d="M256 189.07C329.848 189.07 393.933 230.86 425.903 292.08C428.409 280.217 429.67 268.125 429.666 256C429.666 160.087 351.913 82.334 256 82.334C160.087 82.334 82.334 160.087 82.334 256C82.334 268.373 83.638 280.44 86.097 292.08C118.067 230.86 182.152 189.07 256 189.07Z" fill="#FFCE00"/>
<path d="M425.903 292.08C428.409 280.217 429.67 268.125 429.666 256C429.666 160.087 351.913 82.334 256 82.334V189.07C329.848 189.07 393.933 230.86 425.903 292.08Z" fill="#FDBA12"/>
<path d="M256 188.07C182.033 188.07 117.858 229.994 85.94 291.375C102.278 370.324 172.209 429.665 256 429.665C339.791 429.665 409.721 370.324 426.06 291.375C394.142 229.994 329.967 188.07 256 188.07Z" fill="#FFE89C"/>
<path d="M256 188.07V429.666C339.791 429.666 409.721 370.325 426.06 291.376C394.142 229.994 329.967 188.07 256 188.07Z" fill="#FAD17F"/>
<path d="M119.967 201.928C141.787 201.928 159.475 184.24 159.475 162.42C159.475 140.6 141.787 122.912 119.967 122.912C98.1473 122.912 80.459 140.6 80.459 162.42C80.459 184.24 98.1473 201.928 119.967 201.928Z" fill="white"/>
<path d="M111.325 177.373C119.583 177.373 126.278 170.678 126.278 162.42C126.278 154.162 119.583 147.467 111.325 147.467C103.067 147.467 96.372 154.162 96.372 162.42C96.372 170.678 103.067 177.373 111.325 177.373Z" fill="#414952"/>
<path d="M392.033 201.928C413.853 201.928 431.541 184.24 431.541 162.42C431.541 140.6 413.853 122.912 392.033 122.912C370.213 122.912 352.525 140.6 352.525 162.42C352.525 184.24 370.213 201.928 392.033 201.928Z" fill="#E9EDF5"/>
<path d="M400.675 177.373C408.933 177.373 415.628 170.678 415.628 162.42C415.628 154.162 408.933 147.467 400.675 147.467C392.417 147.467 385.722 154.162 385.722 162.42C385.722 170.678 392.417 177.373 400.675 177.373Z" fill="#23272B"/>
<path d="M297.608 192.641C301.336 169.627 285.701 147.948 262.687 144.221C239.672 140.493 217.994 156.128 214.266 179.142C210.539 202.157 226.174 223.835 249.188 227.563C272.202 231.29 293.881 215.655 297.608 192.641Z" fill="#7E8596"/>
<path d="M256 143.689V228.116C279.314 228.116 298.214 209.216 298.214 185.902C298.214 162.588 279.314 143.689 256 143.689Z" fill="#636978"/>
<path d="M256 243.116C224.452 243.116 198.786 217.45 198.786 185.902C198.786 154.354 224.452 128.688 256 128.688C287.548 128.688 313.214 154.354 313.214 185.902C313.214 217.45 287.548 243.116 256 243.116ZM256 158.689C240.994 158.689 228.786 170.897 228.786 185.903C228.786 200.909 240.994 213.117 256 213.117C271.006 213.117 283.214 200.909 283.214 185.903C283.214 170.897 271.006 158.689 256 158.689Z" fill="white"/>
<path d="M256 128.689V158.689C271.006 158.689 283.214 170.897 283.214 185.903C283.214 200.909 271.006 213.116 256 213.116V243.116C287.548 243.116 313.214 217.45 313.214 185.902C313.214 154.354 287.548 128.689 256 128.689Z" fill="#E9EDF5"/>
<path d="M147.276 309.825C149.02 299.055 141.704 288.911 130.935 287.167C120.165 285.422 110.021 292.739 108.276 303.508C106.532 314.278 113.848 324.422 124.618 326.166C135.387 327.911 145.532 320.594 147.276 309.825Z" fill="#FFCE00"/>
<path d="M181.109 362.568C183.002 354.558 178.044 346.53 170.034 344.636C162.024 342.743 153.995 347.701 152.102 355.711C150.208 363.721 155.167 371.749 163.177 373.643C171.187 375.536 179.215 370.578 181.109 362.568Z" fill="#FFCE00"/>
<path d="M212.113 315.911C214.16 307.251 208.799 298.57 200.138 296.523C191.477 294.475 182.797 299.837 180.749 308.497C178.702 317.158 184.063 325.839 192.724 327.886C201.385 329.934 210.066 324.572 212.113 315.911Z" fill="#FFCE00"/>
<path d="M256 350.292C264.9 350.292 272.114 343.078 272.114 334.178C272.114 325.278 264.9 318.064 256 318.064C247.1 318.064 239.886 325.278 239.886 334.178C239.886 343.078 247.1 350.292 256 350.292Z" fill="#FFCE00"/>
<path d="M256 318.063V350.292C264.9 350.292 272.114 343.077 272.114 334.178C272.114 325.279 264.9 318.063 256 318.063Z" fill="#FDBA12"/>
<path d="M166.654 265.484C175.206 265.484 182.138 258.552 182.138 250C182.138 241.448 175.206 234.516 166.654 234.516C158.102 234.516 151.17 241.448 151.17 250C151.17 258.552 158.102 265.484 166.654 265.484Z" fill="#FFCE00"/>
<path d="M229.614 391.802C236.69 391.802 242.427 386.065 242.427 378.989C242.427 371.913 236.69 366.176 229.614 366.176C222.538 366.176 216.801 371.913 216.801 378.989C216.801 386.065 222.538 391.802 229.614 391.802Z" fill="#FFCE00"/>
<path d="M234.023 287.053C239.755 284.681 242.478 278.113 240.107 272.381C237.735 266.65 231.166 263.926 225.435 266.298C219.703 268.67 216.98 275.238 219.351 280.97C221.723 286.701 228.292 289.425 234.023 287.053Z" fill="#FFCE00"/>
<path d="M387.259 326.251C398.027 324.497 405.335 314.347 403.581 303.579C401.828 292.811 391.677 285.503 380.909 287.257C370.141 289.011 362.833 299.161 364.587 309.929C366.341 320.697 376.491 328.005 387.259 326.251Z" fill="#FDBA12"/>
<path d="M348.787 373.335C356.796 371.436 361.749 363.404 359.85 355.395C357.95 347.387 349.919 342.434 341.91 344.333C333.901 346.232 328.949 354.264 330.848 362.272C332.747 370.281 340.779 375.234 348.787 373.335Z" fill="#FDBA12"/>
<path d="M319.255 327.602C327.915 325.548 333.27 316.864 331.217 308.204C329.163 299.545 320.479 294.19 311.819 296.243C303.16 298.297 297.805 306.981 299.858 315.64C301.912 324.3 310.596 329.655 319.255 327.602Z" fill="#FDBA12"/>
<path d="M345.346 265.484C353.898 265.484 360.83 258.552 360.83 250C360.83 241.448 353.898 234.516 345.346 234.516C336.794 234.516 329.862 241.448 329.862 250C329.862 258.552 336.794 265.484 345.346 265.484Z" fill="#FDBA12"/>
<path d="M282.386 391.802C289.462 391.802 295.199 386.065 295.199 378.989C295.199 371.913 289.462 366.176 282.386 366.176C275.31 366.176 269.573 371.913 269.573 378.989C269.573 386.065 275.31 391.802 282.386 391.802Z" fill="#FDBA12"/>
<path d="M292.883 281.07C295.259 275.34 292.54 268.769 286.81 266.394C281.08 264.018 274.509 266.737 272.134 272.467C269.758 278.196 272.477 284.767 278.207 287.143C283.937 289.518 290.507 286.799 292.883 281.07Z" fill="#FDBA12"/>
</g>
<defs>
<clipPath id="clip0_7_124">
<rect width="512" height="512" fill="white"/>
</clipPath>
</defs>
</svg>
