<svg width="512" height="512" viewBox="0 0 512 512" fill="none" xmlns="http://www.w3.org/2000/svg">
<g clip-path="url(#clip0_4_25)">
<path d="M512 256C512 338.12 473.33 411.21 413.21 458.05C369.82 491.86 315.26 427.19 256 427.19C196.74 427.19 142.18 491.86 98.79 458.05C38.67 411.21 0 338.12 0 256C0 114.62 114.62 0 256 0C397.38 0 512 114.62 512 256Z" fill="#F5CF33"/>
<path d="M413.21 458.05C369.82 491.86 315.26 512 256 512C225.63 512 196.5 506.71 169.47 497C143.994 487.847 120.135 474.699 98.79 458.05L162.95 323.27L175.43 297.06H336.57L413.21 458.05Z" fill="#6E8C8E"/>
<path d="M211.29 374.37L169.47 497C143.994 487.847 120.135 474.699 98.79 458.05L162.95 323.27L211.29 374.37Z" fill="#617F7F"/>
<path d="M501.21 220.12C481.84 241.3 440.29 277.59 387.27 271.53L371.12 232.15L327.05 124.72L409.22 64.19C422.91 54.11 441.83 54.98 454.44 66.38C475.83 85.73 504.54 123.14 511.75 188.01C513.05 199.72 509.17 211.42 501.21 220.12Z" fill="#809CA0"/>
<path d="M375.15 203.19C378.02 223.5 376.13 231.94 371.12 232.15L327.05 124.72L409.22 64.19C422.91 54.11 441.83 54.98 454.44 66.38C454.44 66.38 359.34 91.19 375.15 203.19Z" fill="#6E8C8E"/>
<path d="M336.665 178.251C336.665 178.251 412.501 102.241 445.48 116.929C478.458 131.617 489.886 218.518 386.664 250.318C283.442 282.118 336.665 178.251 336.665 178.251Z" fill="#FFE5BF"/>
<path d="M184.95 124.72L124.73 271.53C113.49 272.81 102.77 272.2 92.67 270.22C55.09 262.88 26.06 236.81 10.79 220.12C2.83001 211.42 -1.04999 199.72 0.250007 188.01C5.82001 137.9 24.22 104.17 42.16 82.5C47.45 76.12 52.69 70.78 57.56 66.38C70.17 54.98 89.09 54.11 102.78 64.19L184.95 124.72Z" fill="#809CA0"/>
<path d="M175.335 178.251C175.335 178.251 99.499 102.241 66.52 116.929C33.542 131.617 22.114 218.518 125.336 250.318C228.558 282.118 175.335 178.251 175.335 178.251Z" fill="#FFE5BF"/>
<path d="M156.807 206.285C156.807 206.285 131.949 130.957 101.896 137.588C71.843 144.219 76.509 177.826 86.414 187.731C86.414 187.731 71.863 246.649 131.918 246.649C191.973 246.649 156.807 206.285 156.807 206.285ZM355.193 206.285C355.193 206.285 380.051 130.957 410.104 137.588C440.157 144.219 435.491 177.826 425.586 187.731C425.586 187.731 440.137 246.649 380.082 246.649C320.027 246.649 355.193 206.285 355.193 206.285Z" fill="#FFF9F1"/>
<path d="M383.1 360.36L315.61 409.4C312.91 411.36 310.14 413.17 307.31 414.83C291.49 424.12 278.819 390.285 261.076 390.287C243.333 390.288 220.519 424.126 204.699 414.84C201.843 413.161 199.07 411.346 196.389 409.4L128.899 360.36C93.359 334.54 78.489 288.76 92.059 246.98L117.839 167.64C131.419 125.86 170.359 97.57 214.289 97.57H297.709C341.639 97.57 380.579 125.86 394.159 167.64L419.939 246.98C433.51 288.76 418.64 334.54 383.1 360.36Z" fill="#809CA0"/>
<path d="M242 409.4C244.06 411.36 246.17 413.17 248.34 414.84C234.7 413.21 216.93 422.02 204.7 414.84C201.844 413.161 199.071 411.346 196.39 409.4L128.9 360.36C93.36 334.54 78.49 288.76 92.06 246.98L117.84 167.64C131.42 125.86 170.36 97.57 214.29 97.57H255.65C222.17 97.57 192.49 125.86 182.14 167.64L162.49 246.98C152.15 288.76 163.48 334.54 190.57 360.36L242 409.4Z" fill="#6E8C8E"/>
<path d="M307.31 414.83C296.972 420.896 285.64 425.081 273.84 427.19H273.83C250.41 431.36 225.84 427.25 204.7 414.84C198.52 398.18 200.34 383.88 204.13 373.29C208.59 360.81 215.78 353.47 215.78 353.47C215.78 353.47 246.41 356.95 256 331.55C256 331.55 268.88 353.47 296.23 353.47C296.23 353.47 320.77 378.53 307.31 414.83Z" fill="#FFE5BF"/>
<path d="M273.83 427.19C250.41 431.36 225.84 427.25 204.7 414.84C198.52 398.18 200.34 383.88 204.13 373.29L242 409.4C244.06 411.36 246.17 413.17 248.34 414.84C256.34 421 264.97 425.12 273.83 427.19Z" fill="#FFE0A7"/>
<path d="M181.483 273.697C191.92 273.697 200.38 263.468 200.38 250.849C200.38 238.23 191.92 228.001 181.483 228.001C171.046 228.001 162.586 238.23 162.586 250.849C162.586 263.468 171.046 273.697 181.483 273.697Z" fill="#516666"/>
<path d="M190.924 270.637C188.147 272.583 184.915 273.699 181.481 273.699C171.039 273.699 162.586 263.469 162.586 250.849C162.586 238.229 171.039 228 181.481 228C184.915 228 188.147 229.116 190.924 231.062C185.283 235.011 181.481 242.394 181.481 250.85C181.481 259.306 185.283 266.688 190.924 270.637Z" fill="#384948"/>
<path d="M330.517 273.697C340.954 273.697 349.414 263.468 349.414 250.849C349.414 238.23 340.954 228.001 330.517 228.001C320.08 228.001 311.62 238.23 311.62 250.849C311.62 263.468 320.08 273.697 330.517 273.697Z" fill="#516666"/>
<path d="M339.958 270.637C337.181 272.583 333.949 273.699 330.515 273.699C320.073 273.699 311.62 263.469 311.62 250.849C311.62 238.229 320.073 228 330.514 228C333.948 228 337.18 229.116 339.957 231.062C334.316 235.011 330.514 242.394 330.514 250.85C330.514 259.306 334.316 266.688 339.958 270.637Z" fill="#384948"/>
<path d="M288.226 361.473C275.548 361.473 263.932 355.989 256 346.806C248.069 355.989 236.453 361.473 223.775 361.473C221.653 361.473 219.618 360.63 218.118 359.13C216.618 357.63 215.775 355.595 215.775 353.473C215.775 351.351 216.618 349.316 218.118 347.816C219.618 346.316 221.653 345.473 223.775 345.473C234.784 345.473 244.512 338.852 248.559 328.606C249.148 327.113 250.173 325.833 251.5 324.93C252.827 324.027 254.394 323.545 255.999 323.545C257.604 323.545 259.171 324.027 260.498 324.93C261.825 325.833 262.85 327.113 263.439 328.606C267.486 338.852 277.214 345.473 288.224 345.473C290.346 345.473 292.381 346.315 293.881 347.815C295.382 349.316 296.225 351.35 296.225 353.472C296.225 355.594 295.383 357.629 293.883 359.129C292.382 360.63 290.348 361.473 288.226 361.473Z" fill="#617F7F"/>
<path d="M256 331.545C235.431 331.545 218.757 314.871 218.757 294.302V254.543C218.757 233.974 235.431 217.3 256 217.3C276.569 217.3 293.243 233.974 293.243 254.543V294.302C293.243 314.871 276.569 331.545 256 331.545Z" fill="#6E8C8E"/>
<path d="M270.857 328.463C266.168 330.501 261.109 331.549 255.997 331.543C235.427 331.543 218.757 314.873 218.757 294.303V254.543C218.757 233.973 235.427 217.303 255.997 217.303C261.277 217.303 266.307 218.403 270.857 220.383C257.677 226.113 248.457 239.253 248.457 254.543V294.303C248.457 309.593 257.677 322.733 270.857 328.463Z" fill="#617F7F"/>
<path d="M249.478 317.593C254.463 312.608 253.35 303.413 246.991 297.055C240.633 290.697 231.438 289.584 226.454 294.568C221.469 299.553 222.582 308.748 228.94 315.106C235.299 321.464 244.494 322.578 249.478 317.593Z" fill="#384948"/>
<path d="M282.94 315.111C289.298 308.753 290.411 299.558 285.427 294.573C280.442 289.589 271.247 290.702 264.889 297.06C258.531 303.418 257.417 312.613 262.402 317.598C267.386 322.583 276.582 321.469 282.94 315.111Z" fill="#384948"/>
<path d="M92.67 270.22C55.09 262.88 26.06 236.81 10.79 220.12C2.83001 211.42 -1.04999 199.72 0.250007 188.01C5.82001 137.9 24.22 104.17 42.16 82.5C25.37 129.16 13.09 209.78 92.67 270.22Z" fill="#6E8C8E"/>
</g>
<defs>
<clipPath id="clip0_4_25">
<rect width="512" height="512" fill="white"/>
</clipPath>
</defs>
</svg>
