<svg width="512" height="512" viewBox="0 0 512 512" fill="none" xmlns="http://www.w3.org/2000/svg">
<g clip-path="url(#clip0_11_148)">
<path d="M512 256C512 352.75 458.33 436.96 379.14 480.48C378.81 480.67 378.48 480.85 378.15 481.03C341.85 500.78 300.23 492 256 492C235.47 492 215.5 489.59 196.37 485.01C174.28 479.75 153.3 491.61 133.85 481.03C133.52 480.85 133.18 480.66 132.85 480.48C53.67 436.95 0 352.74 0 256C0 114.62 114.62 0 256 0C397.38 0 512 114.62 512 256Z" fill="#7FBB1B"/>
<path d="M379.14 480.48C378.81 480.67 378.48 480.85 378.15 481.03C341.85 500.78 300.23 512 256 512C211.77 512 170.15 500.78 133.85 481.03C133.52 480.85 133.18 480.66 132.85 480.48C154.83 452.02 184.49 433.68 216.38 425.45C229.33 422.1 242.67 420.42 255.99 420.42C302.1 420.41 348.22 440.44 379.14 480.48Z" fill="#F97855"/>
<path d="M255.99 420.42C255.99 420.42 206.99 445.08 196.37 505.01C174.563 499.812 153.54 491.749 133.85 481.03C133.52 480.85 133.18 480.66 132.85 480.48C154.83 452.02 184.49 433.68 216.38 425.45C229.33 422.1 242.67 420.42 255.99 420.42ZM194.147 199.965L163.993 223.806L133.365 248.011L72.87 186.588C65.63 179.237 62.02 169.083 62.936 158.818C65.519 129.911 76.402 68.213 121.467 7.552C128.685 -2.15 143.1 -2.558 150.937 6.658C172.028 31.426 204.798 88.853 194.147 199.965Z" fill="#F36A38"/>
<path d="M183.48 177.235C183.48 177.235 156.1 94.266 122.999 101.57C89.898 108.874 95.036 145.89 105.946 156.8C105.946 156.8 89.919 221.695 156.066 221.695C222.213 221.695 183.48 177.235 183.48 177.235Z" fill="#FFE5BF"/>
<path d="M194.147 199.965L163.993 223.806C162.393 218.508 162.337 210.109 164.335 197.791C179.114 106.744 121.466 7.552 121.466 7.552C128.684 -2.15 143.099 -2.558 150.936 6.658C172.028 31.426 204.798 88.853 194.147 199.965Z" fill="#E05327"/>
<path d="M378.638 248.008L439.134 186.582C446.369 179.236 449.982 169.084 449.063 158.814C446.477 129.912 435.603 68.207 390.533 7.553C383.319 -2.155 368.902 -2.555 361.061 6.654C339.968 31.425 307.206 88.853 317.854 199.959L378.638 248.008Z" fill="#F36A38"/>
<path d="M328.52 177.235C328.52 177.235 355.9 94.266 389.001 101.57C422.102 108.874 416.964 145.89 406.054 156.8C406.054 156.8 422.081 221.695 355.934 221.695C289.787 221.695 328.52 177.235 328.52 177.235Z" fill="#FFE5BF"/>
<path d="M317.85 199.963L348.004 223.804C349.604 218.506 349.66 210.107 347.662 197.789C332.883 106.742 390.531 7.55 390.531 7.55C383.313 -2.152 368.898 -2.56 361.061 6.656C339.969 31.423 307.199 88.85 317.85 199.963Z" fill="#E05327"/>
<path d="M432.06 281.51L412.3 365.68H99.7L79.94 281.51L140.326 185.675C154.546 148.695 171.588 123.507 206.208 142.757L236 152.81C237.53 153.66 239.09 154.4 240.69 155.03C250.51 158.98 261.49 158.98 271.31 155.03C272.91 154.4 274.47 153.66 276 152.81L298.22 140.46C332.84 121.21 376.48 137.04 390.7 174.02L432.06 281.51Z" fill="#F97855"/>
<path d="M236 152.814C236 152.814 158.121 139.724 158.121 237.481C158.121 286.211 159.964 329.642 173.01 365.679H99.7L79.943 281.509L121.3 174.017C135.516 137.042 179.157 121.215 213.781 140.464L236 152.814Z" fill="#F36A38"/>
<path d="M300.746 264.231C300.746 264.231 318.237 176.211 377.324 224.629C384.65 230.632 392.096 234.837 399.52 237.598C404.256 239.359 406.516 244.738 404.467 249.357C395.986 268.467 373.26 309.767 339.56 297.096C296.152 280.775 300.746 264.231 300.746 264.231ZM172.437 297.093C168.132 298.704 164.005 299.455 160.064 299.466C133.166 299.576 114.932 266.023 107.537 249.357C105.484 244.743 107.747 239.357 112.482 237.602C119.899 234.843 127.349 230.637 134.678 224.633C144.325 216.73 152.867 212.459 160.395 210.858C199.003 202.613 211.255 264.234 211.255 264.234C211.255 264.234 215.846 280.769 172.437 297.093Z" fill="#FFE5BF"/>
<path d="M158.121 237.481C158.121 259.269 158.496 279.986 160.064 299.466C133.166 299.576 114.932 266.023 107.537 249.357C105.484 244.743 107.747 239.357 112.482 237.602C119.899 234.843 127.349 230.637 134.678 224.633C144.325 216.73 152.867 212.459 160.395 210.858C158.938 218.662 158.121 227.492 158.121 237.481Z" fill="#FFE0A7"/>
<path d="M387.134 413.15C346.848 437.62 301.429 449.86 256 449.86C210.571 449.86 165.152 437.62 124.866 413.15C80.021 385.921 61.092 330.481 79.944 281.508L99.701 320.701C112.383 345.866 143.983 351.992 165.053 336.595C168.629 333.99 171.896 330.767 174.722 326.904L194.015 300.547C202.26 289.289 216.984 284.874 230.063 289.753L256.001 299.433L281.939 289.753C295.018 284.875 309.742 289.289 317.987 300.547L337.28 326.904C356.761 353.515 397.466 350.137 412.3 320.701L432.057 281.508C450.908 330.481 431.979 385.921 387.134 413.15Z" fill="#FFE5BF"/>
<path d="M256 449.86C209.751 449.869 164.388 437.17 124.866 413.15C80.021 385.921 61.092 330.481 79.944 281.508L99.701 320.701C112.383 345.866 143.983 351.992 165.053 336.595C175.041 386.683 199.081 425.843 256 449.86Z" fill="#FFE0A7"/>
<path d="M256 342.556C255.261 341.048 254.447 339.578 253.561 338.152C254.367 338.097 255.184 338.075 256 338.075C256.816 338.075 257.633 338.097 258.439 338.152C257.553 339.578 256.739 341.048 256 342.556Z" fill="#516666"/>
<path d="M256 420.42C276.348 420.42 292.843 403.925 292.843 383.577C292.843 363.229 276.348 346.734 256 346.734C235.652 346.734 219.157 363.229 219.157 383.577C219.157 403.925 235.652 420.42 256 420.42Z" fill="#FFE0A7"/>
<path d="M256 393.247C268.844 393.247 279.256 382.835 279.256 369.991C279.256 357.147 268.844 346.735 256 346.735C243.156 346.735 232.744 357.147 232.744 369.991C232.744 382.835 243.156 393.247 256 393.247Z" fill="#516666"/>
<path d="M290.301 314.578C275.571 314.578 262.741 322.68 256.001 334.665C249.261 322.68 236.43 314.578 221.701 314.578C199.977 314.578 182.367 332.189 182.367 353.912C182.367 375.636 199.978 393.246 221.701 393.246C236.431 393.246 249.261 385.144 256.001 373.159C262.741 385.144 275.572 393.246 290.301 393.246C312.025 393.246 329.635 375.635 329.635 353.912C329.635 332.189 312.024 314.578 290.301 314.578Z" fill="#FFF9F1"/>
<path d="M237.736 389.832C232.836 392.032 227.406 393.252 221.696 393.252C199.976 393.252 182.366 375.642 182.366 353.912C182.366 332.192 199.976 314.582 221.696 314.582C227.406 314.582 232.836 315.802 237.736 318.002C224.016 324.142 214.466 337.912 214.466 353.912C214.466 369.912 224.016 383.682 237.736 389.832Z" fill="#F7EADC"/>
<path d="M295.977 328.866C295.39 330.206 294.673 331.485 293.836 332.685C293.141 333.689 292.048 334.186 290.944 334.186C289.84 334.186 288.726 333.678 287.997 332.685C286.838 331.087 285.349 329.757 283.631 328.784C281.914 327.811 280.007 327.218 278.041 327.045C276.147 326.872 274.238 327.093 272.434 327.693C270.63 328.293 268.969 329.26 267.556 330.533C262.203 335.312 261.651 343.513 265.867 349.307C266.194 349.757 266.415 350.276 266.512 350.824C266.609 351.372 266.58 351.935 266.427 352.471C266.273 353.006 266 353.499 265.628 353.913C265.256 354.327 264.794 354.65 264.278 354.859C258.967 357 253.033 357 247.722 354.859C247.206 354.65 246.744 354.327 246.372 353.913C246 353.499 245.727 353.006 245.573 352.471C245.42 351.935 245.391 351.372 245.488 350.824C245.585 350.276 245.806 349.757 246.133 349.307L246.387 348.954C247.568 347.334 248.383 345.475 248.774 343.508C249.164 341.541 249.122 339.513 248.65 337.564C248.272 336.009 247.63 334.531 246.752 333.193C245.836 331.808 244.676 330.6 243.33 329.628C240.972 327.905 238.127 326.978 235.207 326.979C233.022 326.977 230.867 327.493 228.919 328.485C226.972 329.477 225.287 330.916 224.004 332.685C222.569 334.672 219.567 334.694 218.165 332.685C217.327 331.487 216.614 330.208 216.035 328.866C213.874 323.926 213.603 318.364 215.273 313.237L219.037 301.648C221.631 293.635 226.664 286.924 233.154 282.211C239.644 277.498 247.58 274.783 256.001 274.783C272.844 274.783 287.766 285.633 292.965 301.648L296.729 313.237C298.396 318.364 298.128 323.923 295.977 328.866Z" fill="#CC754A"/>
<path d="M295.977 328.866C295.39 330.206 294.673 331.485 293.836 332.685C293.141 333.689 292.048 334.186 290.944 334.186C289.84 334.186 288.726 333.678 287.997 332.685C286.838 331.087 285.349 329.757 283.631 328.784C281.914 327.811 280.007 327.218 278.041 327.045C276.147 326.872 274.238 327.093 272.434 327.693C270.63 328.293 268.969 329.26 267.556 330.533C262.203 335.312 261.651 343.513 265.867 349.307C266.194 349.757 266.415 350.276 266.512 350.824C266.609 351.372 266.58 351.935 266.427 352.471C266.273 353.006 266 353.499 265.628 353.913C265.256 354.327 264.794 354.65 264.278 354.859C258.967 357 253.033 357 247.722 354.859C247.206 354.65 246.744 354.327 246.372 353.913C246 353.499 245.727 353.006 245.573 352.471C245.42 351.935 245.391 351.372 245.488 350.824C245.585 350.276 245.806 349.757 246.133 349.307L246.387 348.954C247.568 347.334 248.383 345.475 248.774 343.508C249.164 341.541 249.122 339.513 248.65 337.564C248.272 336.009 247.63 334.531 246.752 333.193C245.836 331.808 244.676 330.6 243.33 329.628C240.972 327.905 238.127 326.978 235.207 326.979C233.022 326.977 230.867 327.493 228.919 328.485C226.972 329.477 225.287 330.916 224.004 332.685C222.569 334.672 219.567 334.694 218.165 332.685C217.327 331.487 216.614 330.208 216.035 328.866C220.252 322.063 226.137 316.45 233.131 312.558C240.125 308.666 247.997 306.624 256.001 306.626C264.006 306.624 271.88 308.666 278.875 312.558C285.871 316.45 291.757 322.063 295.977 328.866Z" fill="#DC8758"/>
<path d="M174.264 286.753C185.838 286.753 195.22 272.863 195.22 255.728C195.22 238.593 185.838 224.703 174.264 224.703C162.69 224.703 153.308 238.593 153.308 255.728C153.308 272.863 162.69 286.753 174.264 286.753Z" fill="#516666"/>
<path d="M184.733 282.597C181.654 285.239 178.069 286.755 174.261 286.755C162.682 286.755 153.308 272.864 153.308 255.728C153.308 238.592 162.682 224.701 174.261 224.701C178.069 224.701 181.653 226.216 184.733 228.859C178.477 234.221 174.261 244.246 174.261 255.728C174.261 267.21 178.477 277.235 184.733 282.597Z" fill="#384948"/>
<path d="M337.736 286.753C349.31 286.753 358.692 272.863 358.692 255.728C358.692 238.593 349.31 224.703 337.736 224.703C326.162 224.703 316.78 238.593 316.78 255.728C316.78 272.863 326.162 286.753 337.736 286.753Z" fill="#516666"/>
<path d="M348.206 282.597C345.127 285.239 341.542 286.755 337.734 286.755C326.155 286.755 316.781 272.864 316.781 255.728C316.781 238.592 326.155 224.701 337.734 224.701C341.542 224.701 345.126 226.216 348.206 228.859C341.95 234.221 337.734 244.246 337.734 255.728C337.734 267.21 341.95 277.235 348.206 282.597Z" fill="#384948"/>
<path d="M310.456 206.662C309.328 206.662 308.212 206.432 307.176 205.985C306.141 205.538 305.207 204.885 304.433 204.064C303.659 203.244 303.061 202.274 302.675 201.214C302.29 200.154 302.125 199.026 302.191 197.9C302.3 196.033 305.055 151.813 321.941 121.235C322.464 120.278 323.17 119.434 324.02 118.751C324.87 118.067 325.846 117.559 326.893 117.254C327.94 116.949 329.037 116.855 330.12 116.975C331.204 117.095 332.253 117.429 333.208 117.956C334.162 118.483 335.003 119.193 335.682 120.046C336.362 120.899 336.866 121.878 337.165 122.927C337.465 123.975 337.555 125.072 337.429 126.155C337.304 127.238 336.966 128.286 336.434 129.238C330.079 140.747 325.936 154.88 323.269 167.398C331.952 158.908 339.084 154.863 339.596 154.578C340.545 154.048 341.589 153.709 342.669 153.582C343.748 153.455 344.842 153.542 345.888 153.838C346.934 154.134 347.912 154.633 348.765 155.306C349.618 155.98 350.331 156.815 350.861 157.764C351.391 158.713 351.73 159.757 351.857 160.837C351.984 161.916 351.897 163.01 351.601 164.056C351.305 165.102 350.806 166.08 350.133 166.933C349.459 167.786 348.624 168.499 347.675 169.029C347.312 169.238 329.615 179.539 317.796 202.21C317.096 203.552 316.042 204.676 314.748 205.461C313.454 206.246 311.969 206.661 310.456 206.662ZM201.544 206.662C202.672 206.662 203.788 206.432 204.824 205.985C205.859 205.538 206.793 204.885 207.567 204.064C208.341 203.244 208.939 202.274 209.325 201.214C209.71 200.154 209.875 199.026 209.809 197.9C209.7 196.033 206.945 151.813 190.059 121.235C189.536 120.278 188.83 119.434 187.98 118.751C187.13 118.067 186.154 117.559 185.107 117.254C184.06 116.949 182.963 116.855 181.88 116.975C180.796 117.095 179.747 117.429 178.792 117.956C177.838 118.483 176.997 119.193 176.317 120.046C175.638 120.899 175.134 121.878 174.835 122.927C174.535 123.975 174.445 125.072 174.571 126.155C174.696 127.238 175.034 128.286 175.566 129.238C181.921 140.747 186.064 154.88 188.731 167.398C180.048 158.908 172.916 154.863 172.404 154.578C170.488 153.507 168.224 153.24 166.112 153.838C163.999 154.435 162.21 155.848 161.139 157.764C160.068 159.68 159.801 161.944 160.399 164.056C160.996 166.169 162.409 167.958 164.325 169.029C164.688 169.238 182.385 179.539 194.204 202.21C194.904 203.552 195.958 204.676 197.252 205.461C198.546 206.246 200.031 206.661 201.544 206.662Z" fill="#FFF9F1"/>
<path d="M271.31 155.03V249.19C271.31 257.64 264.45 264.49 256 264.49C247.55 264.49 240.69 257.64 240.69 249.19V155.03C250.51 158.98 261.49 158.98 271.31 155.03Z" fill="#F36A38"/>
</g>
<defs>
<clipPath id="clip0_11_148">
<rect width="512" height="512" fill="white"/>
</clipPath>
</defs>
</svg>
